<?xml version="1.0" standalone="no"?>
<!DOCTYPE svg PUBLIC "-//W3C//DTD SVG 20010904//EN"
 "http://www.w3.org/TR/2001/REC-SVG-20010904/DTD/svg10.dtd">
<svg version="1.0" xmlns="http://www.w3.org/2000/svg"
 width="640.000000pt" height="640.000000pt" viewBox="0 0 640.000000 640.000000"
 preserveAspectRatio="xMidYMid meet">
<metadata>
Created by potrace 1.11, written by Peter Selinger 2001-2013
</metadata>
<g transform="translate(0.000000,640.000000) scale(0.100000,-0.100000)"
fill="#000000" stroke="none">
<path d="M1039 5483 c-64 -33 -93 -73 -109 -149 -16 -75 -16 -2668 -1 -2737
16 -67 45 -122 78 -145 69 -48 53 -47 843 -50 l745 -2 0 -178 c0 -120 -4 -189
-13 -214 -8 -21 -14 -39 -15 -40 -1 -1 -146 -5 -322 -8 l-320 -5 -32 -49 c-18
-28 -45 -79 -60 -114 l-27 -65 23 -18 c22 -18 68 -19 1368 -19 907 0 1351 3
1364 10 10 6 19 20 19 32 0 27 -82 199 -103 217 -13 10 -72 13 -285 12 -155
-1 -279 2 -294 8 -43 16 -52 64 -49 256 1 93 4 171 6 173 2 2 356 4 787 5
l783 2 45 25 c52 29 84 73 106 144 13 45 15 213 14 1401 0 813 -4 1364 -10
1385 -13 47 -63 106 -111 130 -38 20 -69 20 -2207 20 l-2168 0 -55 -27z m2105
-228 c-26 -39 -30 -152 -7 -195 36 -69 102 -78 144 -18 33 45 38 139 11 191
l-20 37 287 -1 c239 0 279 -3 246 -13 -51 -15 -61 -46 -16 -46 l31 0 0 -90 0
-90 -29 0 c-37 0 -50 -19 -26 -37 22 -15 118 -18 145 -3 26 14 14 40 -19 40
l-26 0 3 75 c2 41 -1 95 -6 120 l-10 45 139 0 139 0 0 -40 c0 -38 -2 -40 -30
-40 -23 0 -30 -5 -30 -19 0 -10 7 -22 16 -25 24 -9 100 -7 129 4 33 12 28 34
-8 38 -24 3 -27 7 -27 43 l0 39 103 0 103 0 17 -30 c32 -53 105 -53 135 0 l17
30 403 0 402 0 0 -90 0 -90 -29 0 c-54 0 -46 -42 8 -44 l31 -1 0 -70 0 -71
-32 -9 c-45 -14 -51 -45 -9 -45 l31 0 0 -90 0 -90 -29 0 c-17 0 -33 -5 -37
-12 -9 -14 23 -38 53 -38 22 0 23 -4 23 -65 0 -61 -2 -65 -29 -80 -83 -42 -78
-231 8 -270 20 -9 21 -16 19 -79 -3 -70 -3 -70 -36 -78 -42 -11 -41 -44 1 -41
l27 2 0 -90 c0 -86 -1 -89 -23 -89 -13 0 -28 -5 -35 -12 -17 -17 4 -38 39 -38
l29 0 0 -67 c0 -65 -1 -69 -30 -85 -59 -34 -79 -142 -40 -219 12 -22 32 -44
45 -49 23 -9 25 -15 25 -73 0 -59 -2 -65 -25 -75 -15 -7 -34 -30 -45 -55 -37
-81 -18 -182 40 -215 29 -16 30 -20 30 -83 0 -66 0 -66 -32 -75 -45 -13 -51
-44 -9 -44 30 0 31 -1 31 -45 l0 -45 -280 0 -280 0 0 30 c0 38 -15 44 -65 28
-51 -17 -64 -53 -16 -46 17 2 31 1 31 -4 0 -5 -128 -8 -285 -8 l-284 1 -3 117
c-3 114 -4 117 -26 120 -13 2 -37 -2 -53 -9 -38 -15 -35 -45 4 -42 l27 2 0
-94 0 -94 -307 0 c-183 0 -299 4 -287 9 77 31 96 174 33 254 -22 28 -64 35
-101 15 -28 -15 -48 -70 -48 -135 0 -68 23 -120 58 -133 21 -7 5 -10 -70 -10
l-97 -1 -20 45 c-38 85 -108 86 -150 3 l-23 -48 -99 0 c-91 0 -99 2 -99 19 0
11 -4 22 -9 26 -13 7 -95 -21 -99 -35 -3 -7 -127 -10 -372 -10 l-369 0 6 34
c14 87 -30 186 -82 186 -70 0 -100 -47 -100 -152 l0 -68 -102 0 -103 0 0 75
c0 87 -8 96 -68 73 -44 -17 -50 -43 -9 -43 26 1 27 -1 27 -55 l0 -55 -250 3
-250 3 0 1309 0 1310 250 0 250 0 0 -79 c0 -79 0 -80 -27 -83 -20 -2 -28 -9
-28 -23 0 -18 7 -20 80 -20 73 0 80 2 80 20 0 14 -8 21 -27 23 -28 3 -28 4
-28 83 l0 79 99 0 99 0 7 -52 c5 -38 15 -60 35 -80 34 -33 54 -35 97 -8 27 16
34 29 44 79 l13 61 535 3 c295 1 537 3 539 5 1 1 -5 -9 -14 -23z m-1114 -4 c0
-41 -28 -90 -52 -91 -9 0 -28 58 -28 86 0 21 5 24 40 24 33 0 40 -3 40 -19z
m2465 9 c-3 -5 -15 -10 -26 -10 -10 0 -19 5 -19 10 0 6 12 10 26 10 14 0 23
-4 19 -10z m-1240 -94 c8 -50 -15 -116 -40 -116 -43 0 -58 138 -19 181 l19 21
17 -22 c9 -11 20 -40 23 -64z m2114 -828 c-1 -102 -1 -103 -16 -68 -20 43 -22
132 -4 154 7 9 15 16 17 16 2 0 4 -46 3 -102z m1 -844 c0 -105 -12 -116 -30
-29 -9 42 -9 64 0 90 20 60 30 39 30 -61z m2 -524 c-6 -9 -22 26 -32 73 -10
50 -6 92 14 116 8 11 12 -10 16 -85 3 -54 4 -101 2 -104z m-1834 -109 c17 -56
15 -126 -4 -146 -36 -35 -66 13 -61 97 5 89 45 119 65 49z m-1512 -107 c3 -19
3 -50 0 -70 -7 -32 -10 -35 -38 -32 -25 2 -33 9 -40 33 -11 38 -4 90 18 123
l17 26 18 -23 c10 -12 21 -38 25 -57z m1212 -56 c7 -7 12 -20 12 -30 0 -14 -8
-18 -35 -18 -36 0 -42 10 -29 44 7 19 35 21 52 4z m432 -371 c27 -14 35 -36
26 -73 -13 -51 -30 -53 -469 -55 -362 -1 -410 0 -432 15 -31 21 -33 63 -4 100
l20 26 417 0 c315 0 423 -3 442 -13z"/>
<path d="M4717 5238 c-37 -13 -33 -44 6 -41 l27 2 0 -89 0 -89 -27 -3 c-20 -2
-28 -9 -28 -23 0 -18 7 -20 80 -20 68 0 80 3 83 18 3 12 -5 19 -27 23 l-30 6
-3 112 c-3 110 -3 111 -28 113 -14 1 -38 -3 -53 -9z"/>
<path d="M2837 5214 c-34 -18 -30 -39 6 -39 l27 1 0 -92 c0 -83 -2 -92 -17
-88 -24 6 -47 -11 -40 -29 12 -31 152 -30 164 0 7 18 -16 35 -39 29 -16 -4
-18 8 -20 113 -3 116 -3 116 -28 118 -14 2 -38 -4 -53 -13z"/>
<path d="M1302 5165 c-39 -17 -38 -40 1 -40 l27 1 0 -87 0 -88 -27 -3 c-20 -2
-28 -9 -28 -23 0 -18 7 -20 80 -20 68 0 80 3 83 18 3 12 -5 19 -27 23 l-30 6
-3 112 c-3 102 -5 111 -23 113 -11 2 -35 -4 -53 -12z"/>
<path d="M2243 5158 c-43 -14 -46 -48 -5 -48 l27 0 -2 -87 -1 -86 -74 -2 c-41
-1 -84 -7 -96 -14 -19 -10 -23 -8 -36 17 -22 42 -65 58 -105 38 -44 -23 -55
-51 -56 -138 0 -62 4 -82 21 -104 l20 -28 -43 -44 c-40 -43 -118 -176 -133
-231 l-7 -26 -16 37 c-26 62 -85 77 -130 32 -15 -14 -29 -42 -33 -61 -11 -56
1 -141 23 -171 34 -45 107 -39 131 12 10 20 11 20 11 -5 1 -14 -3 -39 -9 -55
-5 -16 -16 -65 -24 -109 -8 -44 -15 -66 -15 -48 -1 41 -9 45 -62 30 -50 -15
-59 -40 -16 -45 l27 -3 0 -89 0 -89 -27 -3 c-43 -5 -42 -35 1 -44 20 -3 36
-10 36 -15 0 -29 -38 -139 -58 -169 -21 -31 -23 -43 -18 -110 7 -114 7 -318 0
-382 -8 -74 1 -119 31 -152 32 -35 71 -34 110 3 l30 30 55 -19 c67 -23 161
-25 221 -5 64 22 137 81 194 158 l50 67 53 0 c45 0 52 3 52 20 0 16 -7 20 -30
20 -25 0 -30 4 -30 25 0 31 18 67 104 209 36 60 66 116 66 125 0 9 9 -2 19
-24 35 -77 155 -149 249 -149 l52 0 0 -51 c0 -125 104 -168 163 -68 23 40 26
129 4 171 -14 29 -14 32 8 52 13 12 34 46 47 76 l23 54 167 0 167 0 27 -57
c15 -32 26 -66 25 -75 -1 -11 4 -18 14 -18 9 0 31 -11 49 -25 84 -64 187 -71
309 -20 15 6 17 0 17 -59 l0 -66 -29 0 c-37 0 -50 -19 -26 -37 22 -15 118 -18
145 -3 26 14 14 40 -19 40 l-26 0 5 88 c4 76 9 92 35 129 17 24 32 43 35 43 3
0 39 -67 81 -148 l76 -147 -21 -35 c-16 -26 -21 -52 -21 -100 1 -113 52 -172
119 -136 19 10 39 29 45 43 l11 25 48 -40 c49 -40 105 -73 157 -93 29 -11 29
-11 8 -20 -13 -4 -32 -23 -43 -41 -18 -28 -20 -46 -18 -111 3 -75 5 -80 37
-109 36 -32 68 -32 105 0 72 64 53 229 -29 263 -14 5 0 8 43 8 34 1 79 8 99
16 41 17 46 18 39 7 -9 -15 15 -86 37 -109 34 -38 87 -29 126 20 36 45 30 171
-10 213 -21 22 -21 24 -5 64 9 22 16 55 16 73 0 18 6 39 12 45 10 10 10 17 0
32 -6 11 -12 33 -12 49 0 17 -9 76 -19 133 -11 57 -22 124 -26 151 -6 44 -5
47 17 47 13 0 29 4 37 9 21 13 5 41 -24 41 l-25 0 0 115 c0 85 -3 115 -12 116
-7 1 -22 2 -33 3 -20 1 -30 28 -49 131 -7 38 -7 39 11 24 28 -25 47 -28 80
-14 43 18 66 67 66 136 -1 119 -84 188 -149 124 -22 -22 -25 -23 -31 -7 -22
65 -75 176 -108 226 -32 49 -91 105 -124 118 -4 2 -11 18 -14 36 -6 30 -5 32
13 22 26 -14 65 4 94 43 29 39 29 148 1 194 -26 44 -65 59 -106 42 -38 -15
-59 -60 -59 -124 l0 -46 -29 20 c-23 17 -44 21 -100 21 -71 0 -71 0 -71 28 0
49 -12 57 -61 41 -54 -17 -67 -49 -20 -49 17 0 31 -4 31 -9 0 -4 -44 -11 -97
-13 -114 -6 -154 -20 -223 -80 -54 -47 -70 -79 -70 -143 0 -73 -6 -75 -243
-75 l-207 0 10 26 c22 57 6 150 -32 191 -24 26 -72 30 -100 9 -41 -31 -61
-140 -38 -200 l10 -26 -110 0 -110 0 0 85 c0 98 -7 106 -68 83 -44 -17 -50
-43 -9 -43 27 1 27 0 27 -62 l0 -63 -78 0 c-75 0 -79 1 -109 33 -37 38 -50
113 -24 135 14 11 14 14 -3 27 -11 8 -26 15 -33 15 -10 0 -13 26 -13 110 0
124 -3 128 -65 108 -51 -17 -64 -53 -16 -46 l31 5 0 -63 0 -63 -37 16 c-21 8
-77 18 -125 21 l-87 5 -3 116 c-3 127 -4 129 -65 109z m2251 -160 c32 -45 13
-178 -24 -178 -18 0 -40 59 -40 107 0 46 20 93 40 93 5 0 16 -10 24 -22z
m-2484 -90 c17 -29 18 -34 3 -61 -8 -17 -21 -49 -27 -71 l-12 -41 -14 25 c-20
37 -19 120 3 153 9 15 20 27 22 27 3 0 14 -14 25 -32z m1245 -162 c8 -50 -15
-116 -40 -116 -43 0 -57 139 -18 183 17 18 18 18 35 -3 9 -11 20 -40 23 -64z
m-1555 -393 c0 -88 -47 -126 -70 -57 -13 38 -8 96 12 140 l12 26 23 -26 c18
-21 23 -39 23 -83z m3096 -29 c36 -87 -8 -206 -52 -139 -21 32 -21 128 1 161
19 29 32 24 51 -22z m-1872 -870 c21 -54 -4 -154 -39 -154 -16 0 -35 51 -35
96 0 53 58 99 74 58z m1235 -252 c37 -58 38 -73 7 -108 l-23 -28 -17 26 c-9
14 -17 41 -18 59 -1 33 10 99 17 99 1 0 17 -22 34 -48z m-2479 -197 c-18 -18
-21 -18 -36 -3 -9 9 -19 37 -22 63 l-5 47 41 -43 c41 -44 41 -44 22 -64z
m3118 46 c23 -74 7 -151 -30 -151 -42 0 -54 112 -17 159 13 16 27 30 30 30 3
1 11 -16 17 -38z m-301 -172 c20 -38 16 -123 -6 -150 -19 -23 -20 -23 -38 -6
-14 14 -18 33 -18 86 0 94 32 130 62 70z"/>
<path d="M5022 5153 c-47 -16 -51 -36 -9 -41 25 -3 26 -5 29 -92 l3 -89 -30
-3 c-39 -4 -39 -29 0 -40 16 -4 54 -5 82 -1 43 5 53 9 53 24 0 18 -16 24 -48
20 -10 -2 -12 13 -7 66 6 75 -4 165 -20 169 -6 1 -29 -4 -53 -13z"/>
<path d="M3480 5046 c-51 -13 -62 -39 -17 -44 l27 -3 0 -90 c0 -89 0 -89 -25
-89 -29 0 -45 -27 -24 -41 8 -5 46 -8 84 -7 62 3 70 5 70 23 0 14 -8 21 -27
23 l-28 3 0 114 c0 63 -3 116 -7 118 -5 2 -28 -1 -53 -7z"/>
<path d="M1610 4907 c-34 -17 -33 -42 3 -42 l27 1 0 -93 0 -93 -30 0 c-39 0
-40 -26 -2 -41 40 -16 136 0 140 24 3 13 -3 17 -27 17 l-31 0 0 120 0 120 -27
0 c-16 0 -39 -6 -53 -13z"/>
<path d="M4727 4819 c-41 -24 -65 -121 -47 -189 33 -124 157 -117 180 10 22
119 -56 224 -133 179z m69 -70 c26 -71 10 -159 -28 -159 -38 0 -55 128 -23
177 21 31 35 26 51 -18z"/>
<path d="M1297 4737 c-53 -42 -56 -190 -5 -244 42 -45 114 -21 139 45 13 34
13 119 0 153 -12 33 -57 69 -85 69 -11 0 -34 -10 -49 -23z m76 -41 c24 -63 9
-168 -25 -174 -34 -7 -50 90 -27 157 11 32 42 43 52 17z"/>
<path d="M5004 4716 c-24 -20 -28 -32 -32 -89 -7 -108 26 -170 90 -170 93 0
131 179 55 261 -28 30 -77 29 -113 -2z m87 -46 c11 -41 10 -113 -4 -139 -19
-38 -36 -36 -53 5 -17 40 -15 86 5 137 13 35 42 33 52 -3z"/>
<path d="M1310 4326 c-19 -7 -37 -21 -38 -31 -3 -14 1 -17 27 -13 l31 5 0 -94
0 -93 -30 0 c-23 0 -30 -5 -30 -19 0 -10 7 -22 16 -25 24 -9 127 -7 143 3 21
13 5 41 -23 41 l-25 0 -3 117 c-3 130 -4 132 -68 109z"/>
<path d="M5025 4313 c-11 -3 -26 -10 -33 -15 -17 -15 5 -40 29 -33 16 5 18 -3
21 -85 3 -84 2 -90 -17 -90 -30 0 -49 -16 -42 -34 10 -25 160 -19 165 7 3 12
-5 19 -28 23 -31 7 -31 7 -25 55 4 26 4 77 0 113 -8 70 -11 73 -70 59z"/>
<path d="M1300 3893 c-72 -64 -54 -249 26 -269 79 -20 138 88 109 199 -23 89
-80 119 -135 70z m68 -40 c25 -48 20 -149 -8 -177 -8 -8 -16 -5 -31 13 -24 29
-26 109 -4 151 18 34 30 38 43 13z"/>
<path d="M5013 3882 c-30 -23 -43 -63 -43 -130 0 -141 111 -195 168 -82 63
125 -32 286 -125 212z m83 -99 c8 -62 -10 -126 -34 -121 -43 8 -53 120 -16
175 14 22 18 23 30 11 8 -8 17 -37 20 -65z"/>
<path d="M3172 3589 c-42 -12 -41 -45 1 -42 l27 2 0 -90 c0 -87 -1 -89 -24
-89 -34 0 -51 -23 -30 -41 21 -17 139 -18 156 -1 16 16 -8 42 -38 42 -24 0
-24 1 -24 115 0 127 2 124 -68 104z"/>
<path d="M1302 3475 c-39 -17 -38 -40 1 -40 l27 1 0 -87 0 -88 -27 -3 c-20 -2
-28 -9 -28 -23 0 -18 7 -20 80 -20 68 0 80 3 83 18 3 12 -5 19 -27 23 l-30 6
-3 112 c-3 102 -5 111 -23 113 -11 2 -35 -4 -53 -12z"/>
<path d="M5030 3467 c-55 -17 -64 -47 -14 -47 24 0 24 -1 24 -89 l0 -90 -27
-3 c-16 -2 -28 -9 -28 -17 0 -20 47 -30 110 -24 45 5 55 9 55 24 0 14 -7 19
-30 19 l-30 0 5 68 c6 74 -5 164 -20 168 -6 1 -26 -3 -45 -9z"/>
<path d="M2540 3367 c-20 -7 -36 -20 -38 -31 -3 -16 1 -18 27 -14 l31 5 0 -94
0 -93 -30 0 c-23 0 -30 -5 -30 -19 0 -22 26 -31 91 -31 48 0 87 20 75 38 -4 7
-18 12 -31 12 -24 0 -24 1 -27 117 -3 130 -4 132 -68 110z"/>
<path d="M3480 3358 c-54 -15 -64 -48 -14 -48 24 0 24 -1 24 -89 l0 -90 -27
-3 c-20 -2 -28 -9 -28 -23 0 -18 7 -20 80 -20 73 0 80 2 80 20 0 14 -8 21 -27
23 l-27 3 -3 116 c-2 67 -7 117 -13 119 -5 1 -26 -2 -45 -8z"/>
<path d="M3173 3169 c-24 -7 -33 -15 -33 -31 0 -17 4 -20 30 -14 l30 6 0 -95
0 -94 -32 -3 c-46 -4 -43 -30 4 -42 49 -12 133 3 133 24 0 10 -12 16 -32 18
l-33 3 0 120 c0 132 2 128 -67 108z"/>
<path d="M3787 3139 c-46 -27 -62 -153 -29 -219 39 -78 113 -76 152 4 60 124
-25 272 -123 215z m74 -59 c20 -70 1 -174 -30 -168 -22 4 -42 65 -36 110 11
81 50 115 66 58z"/>
<path d="M2851 3106 c-37 -21 -50 -55 -51 -132 0 -86 27 -137 74 -142 64 -8
107 49 107 141 0 65 -12 99 -47 126 -31 24 -49 26 -83 7z m63 -58 c33 -46 12
-168 -28 -168 -33 0 -47 95 -22 155 17 41 29 44 50 13z"/>
<path d="M1295 3047 c-34 -29 -48 -98 -35 -169 13 -64 42 -98 85 -98 97 0 136
189 55 263 -37 33 -70 34 -105 4z m78 -41 c24 -63 9 -168 -25 -174 -34 -7 -50
90 -27 157 11 32 42 43 52 17z"/>
<path d="M2250 3047 c-80 -40 -80 -231 1 -276 22 -12 29 -12 54 0 62 31 89
109 65 193 -20 71 -72 107 -120 83z m59 -68 c25 -72 8 -169 -30 -169 -20 0
-41 73 -35 123 9 79 45 104 65 46z"/>
<path d="M5003 3026 c-24 -21 -28 -32 -31 -93 -5 -79 13 -132 51 -158 50 -33
119 16 132 95 22 133 -69 227 -152 156z m88 -46 c18 -66 -1 -170 -32 -170 -5
0 -17 17 -26 37 -16 39 -14 86 6 136 13 35 42 33 52 -3z"/>
<path d="M2534 2941 c-63 -39 -71 -187 -14 -249 41 -43 116 -19 141 45 13 36
11 119 -5 157 -15 35 -50 66 -76 66 -8 0 -29 -9 -46 -19z m70 -53 c13 -50 6
-135 -12 -158 l-19 -23 -16 24 c-32 45 -15 179 23 179 10 0 20 -10 24 -22z"/>
<path d="M3123 1631 l-2241 -6 -26 -24 c-14 -13 -32 -42 -40 -65 -8 -23 -53
-144 -100 -271 -47 -126 -88 -241 -91 -255 -8 -35 9 -75 39 -95 23 -15 225
-17 2531 -16 2672 1 2535 -2 2574 45 19 23 7 82 -35 185 -20 47 -58 150 -85
229 -57 166 -90 236 -122 257 -13 8 -53 16 -92 18 -39 2 -1079 1 -2312 -2z
m2252 -62 c25 -24 186 -461 180 -486 -3 -12 -14 -27 -25 -33 -13 -7 -747 -10
-2331 -10 -2070 0 -2314 1 -2335 15 -13 8 -24 25 -24 36 0 47 126 392 165 451
l25 38 2048 3 c2541 4 2278 5 2297 -14z"/>
</g>
</svg>
