<svg xmlns="http://www.w3.org/2000/svg" viewBox="0 0 846.59 287.32"><title>Asset 2</title><g id="Layer_2" data-name="Layer 2"><g id="Layer_1-2" data-name="Layer 1"><path d="M27.8,135.65H79.33l4.55,25.52h1.57c18-16.3,39.43-30.4,68.5-30.4,46.36,0,66.12,30.93,66.12,81.31V337.21H156.91V219.73c0-29-8.24-38.08-26.48-38.08-15.87,0-25.57,7-39.47,19.58v136H27.8Z" transform="translate(-21.96 -54.77)"/><path d="M254.73,313.93l28.42-37.2c19.31,13.82,37.16,21.18,55,21.18,18.8,0,26.94-6.78,26.94-17.34,0-13.28-21.13-19.3-43.07-27.43-26.13-9.56-56.41-26-56.41-59.27,0-37.53,32.25-63.1,81.45-63.1,32.66,0,57,12.48,75.13,25.53l-28.27,35.86C378.74,181.74,363.78,175,349,175c-16.32,0-24.35,6-24.35,16.1,0,12.85,20,17.77,42.05,25.37,27,9.44,57.43,23.81,57.43,60.66,0,36.47-30.44,65-87.57,65C308.47,342.09,276.32,330.57,254.73,313.93Z" transform="translate(-21.96 -54.77)"/><path d="M454.13,281.31c0-42.47,35.74-65.46,120-73.87-1.26-17.63-10.56-29.14-33.71-29.14-17.89,0-35.73,7.12-56.41,18.21L461.61,157.3c27.05-15.63,57.54-26.53,91-26.53,54.5,0,84.69,29.44,84.69,91.21V337.21H585.82l-4.55-20.64H579.7c-18,14.91-38.06,25.52-62,25.52C478.8,342.09,454.13,315.27,454.13,281.31Zm120-2.66V243.44c-44.91,5.73-59.57,17.87-59.57,33.11,0,13,9.45,19.35,24.46,19.35C553.37,295.9,563,289.21,574.18,278.65Z" transform="translate(-21.96 -54.77)"/><path d="M671.93,305.52l29.13-37.73c16.68,15.06,36.9,26.1,59.79,26.1,26.64,0,44.38-11,44.38-30.82,0-22.64-14-36.6-73.34-36.6V184.16c49,0,64.44-14.1,64.44-34.55,0-18.15-12.23-28.42-33.65-28.42-19.41,0-34.12,8.31-51,22.55l-32-36.39c25.13-20.41,52.59-33,85.8-33,56.68,0,94.14,25.42,94.14,70.79,0,26.57-16.12,45.62-45.49,57.3v1.63c31.54,8.51,54.39,29.54,54.39,62.9,0,48-46.57,75.14-101.47,75.14C722.89,342.09,692,327.27,671.93,305.52Z" transform="translate(-21.96 -54.77)"/><path d="M25.84,55.63c-1.22,1.22-1.22,31.49,0,32.71.57.58,3.73.86,9.39.86H43.7l-.22,2.3c-.21,2.29-.35,2.37-3.8,2.58-3.23.22-4.59.93-4.66,2.44,0,.36,6.74.57,15,.57,14.5,0,15-.07,14.64-1.43-.29-1.08-1.08-1.43-4.09-1.58-3.59-.21-3.66-.29-3.87-2.58l-.22-2.3h8.9c6.74,0,9.11-.21,9.75-1s.79-5.81.65-17l-.22-16.07-24.39-.21C32.72,54.77,26.48,55,25.84,55.63ZM73.76,71.7V86.33H27.13V56.92L50.44,57l23.32.07Z" transform="translate(-21.96 -54.77)"/><path d="M36.81,62.66c-.21.79-.72,1.43-1,1.43-1.08,0-2.08,3.3-3,9.83-1,7.25-.57,8.83,2.59,8.83,1.72,0,4.95-3.23,5.74-5.82.5-1.36.57-1.43,1.86-.21,1.15,1,1.72,1.08,3.16.43,1-.43,1.79-1.15,1.79-1.58,0-1.36,3.73-.72,5,.86s1.51,1.51,3.23.72,2.08-.72,3,.36a6,6,0,0,1,1,1.79c0,1.29,3,3.45,4.66,3.45,2.94,0,3.52-2.3,2.23-9.83C65.65,64.45,63.43,61,59.48,61.37c-1.79.14-2.79.64-3.22,1.72-.58,1.29-1.37,1.5-6.32,1.58-4.73.07-5.74-.15-6.1-1.15-.64-1.72-1.65-2.3-4.3-2.3C37.89,61.22,37.17,61.58,36.81,62.66Z" transform="translate(-21.96 -54.77)"/><path d="M84.52,80.23V105.7h10V73.78l16,16c13,13,16.28,15.92,17.93,15.92h1.94V54.77h-10V70.55c0,8.68-.22,15.78-.58,15.78s-7.6-7.1-16.28-15.78C92.27,59.28,87.32,54.77,86.17,54.77H84.52Z" transform="translate(-21.96 -54.77)"/><path d="M141.2,80.23V105.7h37.31V96.38H151.25V84.18h20.09V75.57H151.25V64.09h27.26V54.77H141.2Z" transform="translate(-21.96 -54.77)"/><path d="M186.4,59.43v4.66h17.22V105.7h10V64.09h17.22V54.77H186.4Z" transform="translate(-21.96 -54.77)"/><path d="M250.26,55.41c-4,1.29-7.9,3.73-10,6.31-3.87,4.67-3.87,11.91,0,16.29,2.51,2.87,6.24,4.52,13.56,5.88a30,30,0,0,1,7,2.08c3.37,2.23,2.73,7.39-1.22,9.55-3.44,1.79-12.34.28-16.64-2.87-1.08-.79-1.72-.43-4.52,2.29-3.73,3.66-3.52,4.16,2.36,7.39,7.25,3.88,17.73,4.31,24.25,1,6.25-3.23,8.9-7.11,8.9-13.13,0-8.47-4.88-12.63-18.22-15.36-4.31-.86-7.61-3.22-7.61-5.31a7.55,7.55,0,0,1,1.65-3c1.44-1.65,10.84-2.22,13.78-.72l3.59,1.87,3-3c2.94-2.87,3-3.09,1.79-4.38-2.65-2.94-8-4.95-14.13-5.24C254.63,54.91,251.26,55.05,250.26,55.41Z" transform="translate(-21.96 -54.77)"/><path d="M297.82,56.27c-5.67,1.8-11.55,7-14.35,12.7-1.79,3.66-2,4.88-2,11.26s.22,7.61,2,11.27c7.9,16.14,30.21,19.08,42.33,5.67,4.52-5,5.81-8.68,5.81-16.94.08-5.88-.21-7.74-1.43-10.47C324.58,57.71,311,52,297.82,56.27Zm13.78,8.61a14.05,14.05,0,0,1,5.74,3.8c9.9,10.19,3.08,27.7-10.76,27.7-8.83,0-15.36-6.82-15.43-16C291.15,68.83,300.41,61.8,311.6,64.88Z" transform="translate(-21.96 -54.77)"/><path d="M356.22,55.55A25.77,25.77,0,0,0,340,68.68a27.26,27.26,0,0,0-2.23,15.72c2.37,14.63,15.86,23.6,31,20.66,4.3-.86,10.62-3.73,12-5.38.43-.5-.43-2.08-2.44-4.31l-3-3.51-3.52,1.65c-12.05,5.88-24-.65-24.1-13.2,0-5.24.71-7.32,3.73-10.69,4.44-5.1,13.05-6.25,20.37-2.66l3.52,1.65,3-3.51c1.72-1.94,2.94-3.73,2.73-4-.72-1.22-6.89-4.38-10.41-5.31A33.74,33.74,0,0,0,356.22,55.55Z" transform="translate(-21.96 -54.77)"/><path d="M23.47,99.75a29.46,29.46,0,0,0-1.15,4l-.36,2H50c15.43,0,28.06-.21,28.06-.57,0-1.65-2.59-7.32-3.38-7.32s-.71.5.15,2.59a17.59,17.59,0,0,1,1.07,3.22c0,.36-11.48.65-25.82.65-24.11,0-25.83-.07-25.83-1.29a11.4,11.4,0,0,1,1-3.23c.93-1.72.93-1.94,0-1.94C24.69,97.81,23.9,98.67,23.47,99.75Z" transform="translate(-21.96 -54.77)"/></g></g></svg>