<svg xmlns="http://www.w3.org/2000/svg" viewBox="0 0 1517.71 551.56"><defs><style>.cls-1{fill:#fff;}</style></defs><title>Asset 9</title><g id="Layer_2" data-name="Layer 2"><g id="Layer_1-2" data-name="Layer 1"><path class="cls-1" d="M22.89,472c0-55.13,46-85.18,155.07-96-1.78-22-13.91-35.48-42.72-35.48-22.53,0-45.26,8.83-72.64,23.32L32.43,311c36.06-20.75,75.81-34.57,119.37-34.57,71.24,0,111.46,38,111.46,119.69V545.23H193.71l-6.09-26.49h-2.09c-23.09,19.29-48.87,32.82-79.79,32.82C54.76,551.56,22.89,516,22.89,472ZM178,467.92V424.43c-55.48,7.2-73.48,22.5-73.48,41.15,0,15.79,11.51,23.73,30.38,23.73C152.77,489.31,164.43,480.92,178,467.92Z" transform="translate(-22.89)"/><path class="cls-1" d="M316.87,414.08c0-85.87,56.66-137.62,114.68-137.62,30.46,0,48.94,10.71,67.2,27.12l-3-39.3v-88.4H581V545.23H511.46l-6.1-25.58h-2.08c-19.44,18.38-46.7,31.91-72.94,31.91C361.4,551.56,316.87,499.62,316.87,414.08Zm178.84,49.13V358.05c-13.75-11.65-29.63-15.68-44-15.68-25.1,0-47.42,21.76-47.42,70.8,0,50.53,18.06,72.49,48.44,72.49C469.49,485.66,482.93,479.86,495.71,463.21Z" transform="translate(-22.89)"/><path class="cls-1" d="M651.77,282.8h69.55l6.1,33.28h2.08c22.64-21.38,47.16-39.62,83.92-39.62,38.73,0,62.37,15.65,76.61,43.68,24-23.61,49.84-43.68,86.76-43.68,60.21,0,87,40.67,87,106.14V545.23h-85.3V392.93c0-36.8-10.45-47.82-32.77-47.82-13.29,0-28.51,7.77-45.3,24.21V545.23h-85.3V392.93c0-36.8-10.45-47.82-32.77-47.82-13.13,0-28.51,7.77-45.3,24.21V545.23h-85.3Z" transform="translate(-22.89)"/><path class="cls-1" d="M1125.83,204.08c0-24.39,20.52-41.68,48.91-41.68s48.92,17.29,48.92,41.68-20.52,41.69-48.92,41.69S1125.83,228.34,1125.83,204.08ZM1132,282.8h85.3V545.23H1132Z" transform="translate(-22.89)"/><path class="cls-1" d="M1287.81,282.8h69.56l6.09,32.83h2.08c23.1-20.93,51-39.17,88.84-39.17,60.52,0,86.21,40.67,86.21,106.14V545.23h-85.3V392.93c0-36.8-10.3-47.82-32.92-47.82-20,0-32,8.68-49.25,24.21V545.23h-85.31Z" transform="translate(-22.89)"/></g><g id="Layer_2-2" data-name="Layer 2"><g id="layer1"><path id="path5334" class="cls-1" d="M757.64,133.7a58,58,0,0,1-24.86-9.81,85.11,85.11,0,0,1-17.15-17,70.55,70.55,0,0,1-13.09-46.64,66,66,0,0,1,19.23-40.45,61.47,61.47,0,0,1,16.54-12A35.58,35.58,0,0,1,752.4,3.37c3-.44,6.63-1.09,8-1.46a26.56,26.56,0,0,1,11.08-.55c28.06,2.7,50.69,19.2,59.58,43.31,5,13.53,5,29-.14,44.3C824.09,109.38,811,122.2,790,129.28c-11.82,4-23.5,5.54-32.4,4.42ZM775.75,108A41.1,41.1,0,0,0,795,97.39a38.31,38.31,0,0,0,8.59-12,44.31,44.31,0,0,0,2.62-30.75,36.56,36.56,0,0,0-9.54-16.61C789.59,30.8,780.75,27,769.31,26a25.22,25.22,0,0,0-10.08.75,49.83,49.83,0,0,0-7.39,2A43.17,43.17,0,0,0,740.34,37a39.51,39.51,0,0,0-11.5,27.56A41.76,41.76,0,0,0,731,81.49c4.71,14.2,15.05,24.2,28,27.17a46.22,46.22,0,0,0,16.62-.6ZM625,133.07c-11.87-1.85-19.33-5-31.66-13.63-5.15-3.69-6.73-4.91-6.73-5.53s2.58-3.38,8.47-9.07l8.49-8.19,2.25,2.23c2.09,2.05,2.75,2.4,7.92,4.3,21.52,7.85,35.3,7.26,41.11-1.84A13.89,13.89,0,0,0,657.09,92c-.57-6.74-4.78-11-12.92-12.92-1.7-.43-6.42-1.26-10.46-1.85-13.48-2-25.35-6.26-31.87-11.52-8.19-6.61-12.64-22-9.65-33.33a39.87,39.87,0,0,1,16.19-22c5-3.54,8.36-5,17.17-7.27L633.71.94l6.44.24c13.25.53,23.61,3,31.71,7.51a42.76,42.76,0,0,1,10,8l1.56,1.85L675.13,27c-4.58,4.65-8.49,8.53-8.68,8.6a8.94,8.94,0,0,1-2.56-2,13.16,13.16,0,0,0-6.19-3.69c-8.32-3-17.9-4.45-23.7-3.56a18.86,18.86,0,0,0-10.39,5,12.56,12.56,0,0,0-3.44,8.84c-.14,3.36-.11,3.52,1.22,5.54,2.72,4.06,6.8,5.68,19.55,7.79,17.09,2.8,28.39,8,36.92,16.91a27.51,27.51,0,0,1,8.36,22,40.25,40.25,0,0,1-12.14,27,52.06,52.06,0,0,1-28.8,13.73,87.32,87.32,0,0,1-20.31,0Zm279,.59a65.8,65.8,0,0,1-51.52-38.42,68.68,68.68,0,0,1,.87-57.87,66.22,66.22,0,0,1,34-31.62,134.91,134.91,0,0,1,24-4.44,78.45,78.45,0,0,1,30.88,6.33c8.27,3.82,18.46,10.37,18,11.59-.33.92-16.89,18.46-17.42,18.46a53.85,53.85,0,0,1-6.59-3.27c-10.49-5.72-14.12-6.75-23.72-6.7a38.87,38.87,0,0,0-17.17,3.4,42.41,42.41,0,0,0-17.9,15.39,34.44,34.44,0,0,0-4.8,20.64,46.13,46.13,0,0,0,11.94,29.7c7.57,8.05,16.45,11.48,28.39,11,8.93-.41,13.85-1.85,22.47-6.78A59.27,59.27,0,0,1,941,98.29l2.38-1,7.19,7.26c5.29,5.33,7.53,7.86,8.32,9.49a5.93,5.93,0,0,1,.85,2.58,128.42,128.42,0,0,1-15.38,9.77,67.07,67.07,0,0,1-20.1,6.75,111.06,111.06,0,0,1-20.3.54ZM202.85,133l-1.9-.15V89.32c.31-24,1.42-65.94,1.42-65.94V0h7.11l40.74,42.23c22.4,22.74,41,41.2,41.38,41.2s.57-2.57.57-14.6c0-8,.11-26.6-.22-41.26V1.42h25.59V133.66h-9.67l-30-30.25C251.88,77.15,240.4,65.18,237.29,61.2a56.21,56.21,0,0,0-9.22-7.93l-1.53-.8v81.19H216.08s-12-.52-13.14-.61ZM344.56,64.36V0H369.7c13.51,1.25,48.22,1.42,48.22,1.42h23.33V25.59H371.57V54h15.76c8.79.29,20.66.4,26.34,1.42h10.51V78.2H371.57v29.86h69.68v25.6H344.56ZM506.65,133l-2.84-.15,1.42-53.53V25.59L482.84,27H461.15l.19-13.57c.11-6.5.28-11.92.41-12s25.62,0,56.69,0l56.47.26V25.3c0,.06-10,.19-22,.29H529.41l1.42,54.15v52.5H519.72s-11.8.9-13.07.81Zm-474.77-.76a4.77,4.77,0,0,1-2.06-.53c-1.17-.61-1.48-1.75-.93-3.57.1-.36,1.16-3.25,2.34-6.42s2.34-6.3,2.54-7c.75-2.35,1.26-3.11,2.44-3.59l.64-.26h66.09c60.78,0,66.16,0,66.65.13,1,.27,1.37.57,2,1.9a48,48,0,0,1,2.28,6.13,40.27,40.27,0,0,0,1.9,5,22.75,22.75,0,0,1,1.9,5.7c0,1.12-1,1.89-2.68,2.26-.68.11-6.48.13-69.78.17H31.91Zm135.34-4.35a3.8,3.8,0,0,0,1.85-.58,2,2,0,0,0,.72-1.25c0-.13-.85-2.51-1.85-5.28s-2-5.54-2.14-5.93c-.48-1.64-1.07-2.56-1.84-2.77a14.8,14.8,0,0,0-3.7-.22c-1,0-27.94,0-59.9.11-55.76,0-58.09,0-58.31.21a6.83,6.83,0,0,0-1.42,2,41.29,41.29,0,0,0-2.25,5.87c-.52,1.57-1.13,3.36-1.37,4-.66,1.84-.7,2.49-.18,3.12a3.5,3.5,0,0,0,2.3.81H167.26ZM65.87,109.47a3.86,3.86,0,0,1-1.32-.43c-.25-.16-.27-.2-.25-.45a21,21,0,0,1,3-6l.23-.26H84.18l.28-.17c1.2-.81,1.55-3.62,1.31-10.51V89.58H65.66c-18.6,0-20.12,0-21-.13A6.64,6.64,0,0,1,41,88a9.59,9.59,0,0,1-2.16-5.67c0-.74-.09-2.08,0-5.44V14.41a42.49,42.49,0,0,1,.28-7.48,5.6,5.6,0,0,1,1.59-3.67A7.06,7.06,0,0,1,45,1.57c.66,0,11.56-.11,59.16-.15h59.1a6.61,6.61,0,0,1,2.66.66,4.64,4.64,0,0,1,1.56,1.18A5.16,5.16,0,0,1,169,5.71c.13.48.13,2.61.21,35.26,0,19.1,0,35.53.11,36.49.23,6.6-.65,9.7-3.21,11.21a7.79,7.79,0,0,1-2.35.71,42.77,42.77,0,0,1-6.2,0c-1.71,0-36.69-.13-36.84,0s-.22.48-.25,5.39a29.18,29.18,0,0,0,.12,5.12A2.88,2.88,0,0,0,122.1,102a69.87,69.87,0,0,0,10.73.14c4.55,0,4.82,0,5.28.34a24.53,24.53,0,0,1,2.73,5.5c.22.66.22.71,0,.9a1.29,1.29,0,0,1-.51.38l-.37.19H65.87Zm39.7-14.11c10.21,0,9.91,0,10.63-.43a2.49,2.49,0,0,0,1.11-2.56c-.19-.72-.94-1.18-2.2-1.37H92.24l-.48.52a2.75,2.75,0,0,0-.94,2.08,1.22,1.22,0,0,0,.24,1,2.81,2.81,0,0,0,1.85,1,16.64,16.64,0,0,0,1.73,0c.67,0,5.54,0,10.89-.1ZM60.18,80.72V78.87L59,79a1.76,1.76,0,0,1-1.2,0c-.11-.11,0-.52.57-.76a5.52,5.52,0,0,1,1.85-.35c.11,0,.12.28,0,2.31v.85h6.57l-.09,1.11a8.1,8.1,0,0,1-.17-3.53,3.79,3.79,0,0,1,.89-2,2.18,2.18,0,0,1,2-.48c.9.26,1.5,1.07,1.85,2.49a7.7,7.7,0,0,1,0,3.31c-.06.16-.15.53-.15.53H81.79s10.71,0,10.64-.24a.38.38,0,0,1,0-.33c0-.26.88-.61,1.73-.72s.89-.11,1.57.61v.68h5.69v-.54a4.55,4.55,0,0,1,.81-1.93,1.59,1.59,0,0,1,1.78-.56,3.08,3.08,0,0,1,1.67,2.7V81.05h22c.28,1.26.57,1.23.85,1.42h-.08V76.55l.43.11a1.78,1.78,0,0,1-1.18,0c-.11-.11,0-.52.54-.74a17.15,17.15,0,0,1,1.84-.56h-.21v5.69h1.21a6.53,6.53,0,0,0,.85,1.42h15V82c-.13-.44-.13-.44-.35-.35a3.19,3.19,0,0,1-1.3.15c-.2,0-.25-.44,0-.65a7,7,0,0,1,2-.59c.54,0,1.11,1,1.11,1v.94H164V79.35l-.52.13a1.84,1.84,0,0,1-1.18,0,.45.45,0,0,1,.16-.59l1-.28,2-.22V14.22H164a3.06,3.06,0,0,0-1.61-.77.43.43,0,0,1,0-.35c0-.39,1-.3,1-.3H164V7.11H140.71l-.15.45A2.88,2.88,0,0,1,139.49,9a3.06,3.06,0,0,1-.78.24,1.86,1.86,0,0,1-2.13-1.31,2.9,2.9,0,0,1-.3-.7,23,23,0,0,0-3.21-.11h-3.22V8.53h1.34c.29,1.18.59,1.22.87,1.3a.56.56,0,0,1,0,.65,9.08,9.08,0,0,1-3.2.24c-.88-.11-1.14-.22-1.18-.52s1-.25,1-.25h1.21V7.11H104.66l.34.42a3.73,3.73,0,0,1,.86,1.84,6.49,6.49,0,0,1-.24,3.92,2.34,2.34,0,0,1-2.73,1.45c-1.07-.31-1.71-1.55-1.84-3.54a4.93,4.93,0,0,1,1-3.82l.31,1.15H71.56V8.08c-.27,2.23-1,3.32-2.41,3.53s-3.28-3.7-3.28-3.7v-.8H60.18v4.27h1c.29.8.58.84.85.93a.51.51,0,0,1,0,.64,9.65,9.65,0,0,1-3.21.24c-.87-.11-1.13-.22-1.16-.53s0-.45,1,.14h.11V7.11H44.54V82.47H58.76V80.62Zm50.93,1.16a2.72,2.72,0,0,1-1.37-1.48,6.42,6.42,0,0,1-.37-2.75A3.69,3.69,0,0,1,111,74.2c.29-.18.38-.2,1-.18a1.61,1.61,0,0,1,1,.27,4.8,4.8,0,0,1,1.46,3.7,4.45,4.45,0,0,1-1,3.11,2.2,2.2,0,0,1-2.25.67Zm1.21-1.11a3.31,3.31,0,0,0,.89-2.49,7.28,7.28,0,0,0-.9-3.19.6.6,0,0,0-.52-.17.55.55,0,0,0-.55.26,4.41,4.41,0,0,0-.71,2.71,4.05,4.05,0,0,0,.91,2.86.81.81,0,0,0,1,0Zm25.85.78a2.85,2.85,0,0,1-1.57-2.11,9.26,9.26,0,0,1,0-3.15,3.76,3.76,0,0,1,.88-2.09,2.21,2.21,0,0,1,2-.48c.88.26,1.44,1,1.84,2.35a6.37,6.37,0,0,1-.24,4,2.34,2.34,0,0,1-2.78,1.46Zm1.05-1a2.73,2.73,0,0,0,1.05-2.25,4.56,4.56,0,0,0-.29-2.34c-.24-.63-.83-1.33-1.11-1.33s-.89.72-1.09,1.25a5.57,5.57,0,0,0,.35,4.29C138.44,80.64,138.76,80.75,139.22,80.51ZM84.86,81.58a2,2,0,0,1-1-.84,5.81,5.81,0,0,1-.72-3.44c0-1.84.39-2.58,1.33-3.23a1.36,1.36,0,0,1,1-.35c1.22,0,2,.81,2.44,2.47a7,7,0,0,1,0,3,3.16,3.16,0,0,1-1.44,2.16A2.18,2.18,0,0,1,84.86,81.58Zm1.34-2a5.2,5.2,0,0,0,.6-3.23,6.24,6.24,0,0,0-.6-2.07,1.8,1.8,0,0,0-.51-.17c-.52,0-.56,0-.94.8a5.11,5.11,0,0,0,0,4.39c.25.57.51.77.94.74s.35,0,.59-.46Zm-9.63-.89a2.65,2.65,0,0,1-1.37-1.46,6.58,6.58,0,0,1-.37-2.75,3.71,3.71,0,0,1,1.52-3.43c.29-.18.39-.2,1-.18a1.37,1.37,0,0,1,1,.27A4.84,4.84,0,0,1,79.82,75a4.38,4.38,0,0,1-1,3.1A2.23,2.23,0,0,1,76.57,78.74Zm.67-1.11a3.26,3.26,0,0,0,.87-2.49A7.22,7.22,0,0,0,77.22,72a.61.61,0,0,0-.51-.19.55.55,0,0,0-.56.28,4.41,4.41,0,0,0-.79,2.75,4.11,4.11,0,0,0,.9,2.86.84.84,0,0,0,1,0Zm77.6,1.13a1.83,1.83,0,0,1-1-.85,5.61,5.61,0,0,1-.66-3.52c0-1.85.38-2.59,1.33-3.23a1.38,1.38,0,0,1,1-.36c1.2,0,2,.82,2.43,2.5a6.65,6.65,0,0,1,0,3,3.2,3.2,0,0,1-1.44,2.17,2.23,2.23,0,0,1-1.64.19Zm1.36-1.42a5.16,5.16,0,0,0,.65-3.31,6.25,6.25,0,0,0-.57-2.08,2,2,0,0,0-.54-.15c-.5,0-.53,0-.92.8a5.11,5.11,0,0,0,0,4.39c.27.55.53.76,1,.72s.35,0,.59-.46Zm-105.94,1a1.8,1.8,0,0,1-1-.83,5.68,5.68,0,0,1-.72-3.45c0-1.84.39-2.58,1.33-3.23a1.39,1.39,0,0,1,1-.33c1.22,0,2,.79,2.44,2.47a7,7,0,0,1,0,3,3.2,3.2,0,0,1-1.44,2.18A2.2,2.2,0,0,1,50.26,78.35Zm1.35-1.42a5.11,5.11,0,0,0,.59-3.21,6,6,0,0,0-.57-2.16,1.32,1.32,0,0,0-.52-.16c-.51,0-.55,0-.94.79a5.19,5.19,0,0,0,0,4.39c.26.56.52.76.94.74s.35,0,.59-.48Zm41.79,0a3,3,0,0,1-1.31-2.08,8.45,8.45,0,0,1,0-3.47A2.84,2.84,0,0,1,93,69.75a1.87,1.87,0,0,1,2.07-.5,3.87,3.87,0,0,1,1.84,3.86,4,4,0,0,1-1.73,3.79,2.14,2.14,0,0,1-1.72,0Zm1.43-1.12a2.6,2.6,0,0,0,.77-1.13,4.41,4.41,0,0,0,.15-1.53,3.83,3.83,0,0,0-.17-1.61,2.79,2.79,0,0,0-1-1.29c-.44-.28-.59-.2-1,.55a5.08,5.08,0,0,0-.18,4.51C93.87,76.14,94.2,76.27,94.83,75.81ZM147,78.21a2,2,0,0,1-.66-.78,5.14,5.14,0,0,1-.87-3v-2.3l-1.05.22a9.24,9.24,0,0,1-6.42.57,14.14,14.14,0,0,1-5.17-3.31l-1.58-.68v.28s-.32,2-1.48,2.1-1.85-.7-2.16-2.25a6.5,6.5,0,0,1-.17-1.7,4.39,4.39,0,0,1,1-3.34l.41-.4L128,62.13c-.44-.83-1-1.85-1.23-2.22a18.19,18.19,0,0,1-1-1.93,14.09,14.09,0,0,0-1.7-3.18c-.17-.17-.28-.22-.28-.15a6.46,6.46,0,0,1-1.66,2.49l-.88.45v5h.79a1.52,1.52,0,0,0,.77.21c.56.12.69.3.54.67a2.56,2.56,0,0,1-.11.24,30.46,30.46,0,0,1-3.31,0c-1,0-1,0-1-.52s1,.83,1,.83h1.26V60.5a3.58,3.58,0,0,1-.56-2.14l-.7.35a8.22,8.22,0,0,1-6.24.67,7.45,7.45,0,0,1-2.73-1.63.55.55,0,0,0-.5-.22c-.46,0-.63-.11-.63-.44a.37.37,0,0,1,.13-.33c.11,0,0-.19-.33-.72a9.34,9.34,0,0,1-1.24-2.29V52.61h-10v.79c-.23.59-.39,1.16-.64,1.7a7.62,7.62,0,0,1-1.42,2L96,57.7l.2.31a5.74,5.74,0,0,1,.68,3.49c-.24,2.11-1.2,3.36-2.6,3.36-1.07,0-1.73-.7-2.14-2.23a18.27,18.27,0,0,0-.67-1.85V59.72h-.33a9.14,9.14,0,0,1-2.86,0,9.85,9.85,0,0,1-3.63-2,4.69,4.69,0,0,0-.75-.58,3.21,3.21,0,0,1-1.1-1.71,2,2,0,0,0-.33-.74c-.15-.13-.15-.11-.32.46a14.71,14.71,0,0,1-1.87,3.3,46.4,46.4,0,0,0-2.52,4.38l-.51,1v1.59h.88a4.65,4.65,0,0,1,.74,0c.74,0,1,.39.64.76a4.43,4.43,0,0,1-1.58.62h-1.3l-.4.65A16.19,16.19,0,0,1,72,72.21a8,8,0,0,1-5,1.48,10.54,10.54,0,0,1-4.49-1,5.18,5.18,0,0,0-.65-.26,1.16,1.16,0,0,0-.23.36,2.33,2.33,0,0,1-2.09,1.42c-1.08,0-1.76-.71-2.17-2.26a8.84,8.84,0,0,1,0-3.55,4.27,4.27,0,0,1,.36-1,.78.78,0,0,0,0-.78,17.2,17.2,0,0,1-.34-3,10.62,10.62,0,0,1,.32-2.45,1.43,1.43,0,0,0-.09-.56,6,6,0,0,1-.49-2.64,4.37,4.37,0,0,1,1-3.42,1.37,1.37,0,0,0,.56-1.17,9.58,9.58,0,0,1,.3-1.31c.11-.34.3-1,.43-1.52l.24-.89h-.57s-1-.36-1.41-.56a.56.56,0,0,1,0-.61c.29-.06.89-.26.89-.26h.15V42.66H59a1.39,1.39,0,0,1-1.2.16c-.11-.11,0-.5.58-.74a4.63,4.63,0,0,1,1.84-.35,14.7,14.7,0,0,1,0,2.2v2.18s.19-1,.38-2.13a52.8,52.8,0,0,1,1.07-5.58,7,7,0,0,0,.32-2c0-.63-.13-1.47-.15-1.1A4.5,4.5,0,0,1,61,36.76a2,2,0,0,1-2.86.27,1.54,1.54,0,0,1-.19-.17,5,5,0,0,1-.81-3.27,5.87,5.87,0,0,1,.49-2.68,3.48,3.48,0,0,1,1.28-1.19,2.16,2.16,0,0,1,1.88.28A4.47,4.47,0,0,1,62,32.45c0,.23.12.11.49-.89a16.73,16.73,0,0,1,4.95-7.73l.41-.28-.24-.17C66.31,22.51,65.9,19,66.86,17A1.87,1.87,0,0,1,68,15.91a2.09,2.09,0,0,1,2.78.91,2.44,2.44,0,0,1,.1.24l.3.63c0,.13,0,.15.22,0a8.37,8.37,0,0,1,4.39-.63h1.5V11.38h.31a2.87,2.87,0,0,1-1.27.14c-.19,0-.23-.44,0-.65a6.93,6.93,0,0,1,1.83-.51c.59,0,.55-.26.55,3.42v3.28h.45c.65,0,2.74.19,3.69.34a8.31,8.31,0,0,1,2.53.76l.44.24V14.22h-.58l-.72,1.42h-.66a6.63,6.63,0,0,1,0-1.73A9,9,0,0,1,85,13.53c.77-.23,1.1-.28,1.2-.23s.22,1,.24,3.92c0,2.18,0,2.25.18,2.47a.58.58,0,0,0,.35.24,2.9,2.9,0,0,1,.59.09c.5,0,.63.3.5.63a2.81,2.81,0,0,1-.44.68h-.35l.11,0a12,12,0,0,1,.27,2.24c0,.33,0,.38.3.57a5.58,5.58,0,0,1,1.37,1.33l.2.1h4.8V21.83l-.67.13a1.9,1.9,0,0,1-1.2,0c-.11-.11,0-.52.56-.74a3.06,3.06,0,0,0,1.84-1.31h.89v5.68h6l-.24-.18a7.42,7.42,0,0,1,.09-5.17,1.88,1.88,0,0,1,1.07-1.07,2.07,2.07,0,0,1,2.76,1l0,.07a6.71,6.71,0,0,1,.15,5.24L105.33,27h2.86a11.92,11.92,0,0,1,3-1.18c.25-.07.76-.25.76-.25h5.41l.57-.56.58-.56V23.22c0-2,.34-2.73,1.29-3.36a3.5,3.5,0,0,0,.7-.63,5.4,5.4,0,0,1,2.74-1.65,16.49,16.49,0,0,1,4.25-.52h2.39v-.91l-.84.11a1.6,1.6,0,0,1-1.18,0c-.11-.13,0-.52.54-.74a1.74,1.74,0,0,1,1.84.12h1.06v1.42h1.19s1.5.18,2.24.29a5.93,5.93,0,0,1,1.51,1.12c.26.28.44.43.43.33a6,6,0,0,1-.12-1.12,6.59,6.59,0,0,1,.5-3.07,1.89,1.89,0,0,1,1.06-1.07,2.1,2.1,0,0,1,2.78,1l0,.05a6.79,6.79,0,0,1,.61,2.8c0,2.26-.83,3.7-2.34,3.92a1.9,1.9,0,0,1-1.33-.32l.56-.16v.24c-.64.54,0,1.66,0,1.66V23l.69.34a7.43,7.43,0,0,1,1.22.78,19.38,19.38,0,0,1,4.79,8.24l.41,1.23v-.12a12.2,12.2,0,0,0,0,3.62c0,.37.3,1.61.49,2.79a22.39,22.39,0,0,0,.83,3.92.94.94,0,0,0,.2.44l.58-.12h.65a17.42,17.42,0,0,1,.1,3.61v3.5h.2a2.36,2.36,0,0,1,.65,0c.68,0,.93.41.59.8s-.23.16-.89.16a3.31,3.31,0,0,0-.77,0c0,.41.55,5,.65,5.48a32.06,32.06,0,0,1,.55,4c0,.78.13,1.63.15,2s0,.45.18.49a.51.51,0,0,1,.21.62.42.42,0,0,1-.21.24c-.12,0-.13.18-.18,1a8.55,8.55,0,0,1-.65,3.06l-.32.81.3.27A5.6,5.6,0,0,1,150,73.32a6,6,0,0,1-1,4.22,1.86,1.86,0,0,1-1.91.55Zm.26-2.9a3.29,3.29,0,0,0,.87-2.49c0-1.06-.68-3.29-1-3.29s-.21.11-.3.26-.46.53-.78.89l-.59.6v.6a5.82,5.82,0,0,0,.24,2.34,2.66,2.66,0,0,0,.71,1.18,1,1,0,0,0,.92,0Zm-87-3a3.13,3.13,0,0,0,.74-1,11.94,11.94,0,0,0-.83-.91A4.58,4.58,0,0,1,59,69.05c-.2-.37-.35-.57-.37-.52a2.83,2.83,0,0,0-.14.76A4.58,4.58,0,0,0,59,72.15C59.4,72.78,59.7,72.84,60.27,72.36Zm70-2.4a2.71,2.71,0,0,0,.9-1.85,1.2,1.2,0,0,0-.28-.89c-.27-.44-.62-1-1-1.57l-.65-1.1-.26.53a5.15,5.15,0,0,0,0,4.34c.39.85.72,1,1.35.52ZM94.86,63.57a2.54,2.54,0,0,0,.78-1.13,4.38,4.38,0,0,0,.15-1.53,3.57,3.57,0,0,0-.19-1.62,2.55,2.55,0,0,0-.37-.69l-.16-.2-.56.33-.85.45c-.33.12-.42.35-.55,1.36a4.6,4.6,0,0,0,.52,2.77C94.09,63.92,94.29,64,94.86,63.57ZM147,46.51c0-1.2,0-1.23-.17-1.2a.67.67,0,0,0-.2,0,8.5,8.5,0,0,0,.33,2.35,8.55,8.55,0,0,0,0-1.24ZM60.25,36.16A2.48,2.48,0,0,0,61,35a4,4,0,0,0,.14-1.51A3.92,3.92,0,0,0,61,31.89a2.75,2.75,0,0,0-1-1.27c-.44-.3-.59-.2-1,.53a5.08,5.08,0,0,0-.19,4.51C59.29,36.49,59.62,36.62,60.25,36.16Zm43.56-10.4c.58-.25,1-1.07,1.09-2.27a4.71,4.71,0,0,0-.27-2.32c-.26-.63-.85-1.33-1.13-1.33s-.88.7-1.07,1.24c-.68,1.84,0,4.72,1,4.78ZM69,22.07a8.8,8.8,0,0,1,1-2.93.6.6,0,0,0,.11-.61c-.24-.89-.94-1.85-1.31-1.85s-.89.72-1.09,1.26a5.55,5.55,0,0,0,.44,4.26c.23.35.41.5.63.5s.17-.13.24-.57Zm70.14-1.95a2.76,2.76,0,0,0,1-2.26,4.49,4.49,0,0,0-.29-2.32c-.24-.63-.83-1.33-1.11-1.33s-.88.7-1.09,1.24a5.59,5.59,0,0,0,.35,4.28C138.41,20.24,138.72,20.36,139.18,20.12Zm-18.9,55.74a1.84,1.84,0,0,1-1-.85,5.63,5.63,0,0,1-.72-3.43c0-1.85.38-2.58,1.32-3.23a1.34,1.34,0,0,1,1.06-.35c1.2,0,2,.81,2.43,2.47a7,7,0,0,1,0,3,3.3,3.3,0,0,1-1.44,2.16A2.28,2.28,0,0,1,120.28,75.86Zm1.37-1.92a5.25,5.25,0,0,0,.57-3.23,6,6,0,0,0-.57-2.07,2,2,0,0,0-.54-.17c-.5,0-.53,0-.92.8a5.11,5.11,0,0,0,0,4.39c.28.57.53.78,1,.74s.35,0,.59-.46ZM102.8,75.12l-.57-.13c-.69-.14-.76-.2-.76-.51s.15-.45,1,.88h.34V68.25h0a1.54,1.54,0,0,1-1.11.1c-.15,0-.17-.46,0-.61a19.2,19.2,0,0,0,2.18-.91h.33v7.11H105c.89-.07,1.08-.07,1,.43a.61.61,0,0,1,0,.27,10.88,10.88,0,0,1-3.06.32Zm60.4-1.18a2.81,2.81,0,0,1-1.62-2,6.41,6.41,0,0,1-.06-3.31c.35-1.36,1-2.27,1.85-2.47s.61-.15.61.33V67l-.33.17c-.78.33-1.07,1.05-1.06,2.55a6,6,0,0,0,.67,2.86c.2.39.29.48.48.52s.24,0,.24.48,0,.44-.22.42a1.69,1.69,0,0,1-.45,0Zm-53.29-4.43a.45.45,0,0,1,0-.65l0,0c.28,0,.86.86.86.86h.6V62.56h-.06a1.24,1.24,0,0,1-1.31.6c-.2,0-.24-.42,0-.64a6.5,6.5,0,0,1,2-.59c.61,0,.82,3.43.82,3.43v2.89h0a.77.77,0,0,0,.74.41c.73,0,1,.41.64.76s-.26.17-2.1.17a11.22,11.22,0,0,1-2.09-.1Zm-25.42-.24c-.92,0-1,0-1-.5s0-.44,1.07-.52h2.6V62.56H85.12L84.4,64h-.67a7.26,7.26,0,0,1,0-1.81,11.34,11.34,0,0,1,1.13-.35c.81-.22,1.12-.27,1.22-.22a6.76,6.76,0,0,1-.31,4.4v2.24h.88c.26,0,.53,0,.79.06.54.11.68.3.54.65s-.15.24-.52.28a24.2,24.2,0,0,1-2.95,0Zm70-2.8c-.93,0-1-.11-1-.52s0-.44,1.05.88h.87V59.72h-.34l-.72,1.42h-.66c-.14-1.32-.14-1.57,0-1.76a8.15,8.15,0,0,1,1.18-.39c.79-.22,1.11-.29,1.2-.22.31,1.43.76,4.36.76,4.36v2.28h-.22a5,5,0,0,1,.77,0c.55.11.68.28.54.65s-.15.24-.5.28a24.36,24.36,0,0,1-3,0ZM49.9,66.06c-.93,0-1-.11-1-.52s0-.44,1.07-.13h.22V58.3h.29l-.72,1.42h-.66a.72.72,0,0,1,0-.78,5.86,5.86,0,0,1,1.16-.39c.8-.22,1.13-.28,1.22-.22a23.52,23.52,0,0,1,.13,4.39V64h.44c.26,1,.52,1,.78,1,.55.11.7.27.55.64s-.15.24-.52.28A24.2,24.2,0,0,1,50,66Zm52.9-2.93-.57-.13c-.69-.15-.76-.21-.76-.52s1,.08,1,.08h.34V56.28l0,.11a2.32,2.32,0,0,1-1.11,0c-.15,0-.17-.46,0-.61a3.66,3.66,0,0,1,2.18-.33h.33v5.69H105c.89.77,1.08.77,1,1.28a.57.57,0,0,1,0,.26,10.52,10.52,0,0,1-3.06.32ZM163.28,62a2.87,2.87,0,0,1-1.63-2,6.51,6.51,0,0,1-.13-3.25c.35-1.37,1-2.27,1.85-2.47s.61-.15.61.35V55l-.33.15c-.78.33-1.07,1.05-1.06,2.55a6,6,0,0,0,.67,2.86c.2.38.29.49.48.53s.24,0,.24.48,0,.43-.22.43h-.45Zm-8.48-7.38c-1.2-.46-1.85-2-1.74-4.34,0-1.84.39-2.55,1.33-3.17a1.3,1.3,0,0,1,1.06-.35c1.2,0,2,.81,2.43,2.47a6.71,6.71,0,0,1-.29,3.89,3.21,3.21,0,0,1-1.15,1.3A2.28,2.28,0,0,1,154.8,54.58Zm1.37-1.42a5.21,5.21,0,0,0,.68-3.27,6,6,0,0,0-.57-2.07,1.68,1.68,0,0,0-.54-.16c-.5,0-.53,0-.92.79a5.11,5.11,0,0,0,0,4.39c.27.58.53.78,1,.74s.35,0,.59-.46ZM50.23,54c-1.22-.44-1.85-2-1.85-4.34,0-1.84.41-2.54,1.33-3.17a1.31,1.31,0,0,1,1-.35c1.22,0,2,.81,2.44,2.49a6.61,6.61,0,0,1-.3,3.88,3,3,0,0,1-1.14,1.29,2.13,2.13,0,0,1-1.62.2Zm1.35-1.28a5.19,5.19,0,0,0,.59-3.21,6.5,6.5,0,0,0-.54-2.12,1.56,1.56,0,0,0-.52-.15c-.51,0-.55,0-.94.77a5.25,5.25,0,0,0,0,4.42c.26.55.52.75.94.72s.35,0,.59-.47Zm111.16-3c-.41,0-.52-.2-.52-.46s.13-.41,1-1H164V43.15l-.45.11a1.6,1.6,0,0,1-1.18,0,.46.46,0,0,1,.17-.59l1-.27,1.89-.23v7.6h-1.19a3.88,3.88,0,0,1-1.4-.05Zm-8.33-7.38c-.92,0-1,0-1-.5s0-.44,1.05.78h.95V35.55H155L154.32,37h-.67c-.13-1.3-.13-1.55,0-1.74a10.27,10.27,0,0,1,1.19-.38c.79-.23,1.1-.28,1.2-.23.35,1.48.83,4.51.83,4.51v2.1h-.22a1.68,1.68,0,0,0,.77.21c.55.11.68.29.54.64s-.15.24-.5.28a24.36,24.36,0,0,1-3,0ZM50.23,42c-1.33-.09-1.37-.11-1.37-.52s0-.44,1.07-.24h1.72v-7.1h-1.2l-.67,1.42h-.66s-.15-.56,0-.74a12,12,0,0,1,1.16-.37c.8-.24,1.13-.3,1.22-.24a14.71,14.71,0,0,1,.24,4.39l-.11,1.22H52s.52,1.13.78,1.16c.55.13.7.3.55.67s-.15.22-.51.26a17.82,17.82,0,0,1-2.55,0Zm96.28-1.85a2.66,2.66,0,0,1-1.35-1.45,6.77,6.77,0,0,1-.38-2.75,3.81,3.81,0,0,1,1.53-3.44c.29-.18.39-.2,1-.18s.72,0,1,.27a4.74,4.74,0,0,1,1.48,3.79,4.47,4.47,0,0,1-1,3.1,2.23,2.23,0,0,1-2.2.55Zm1.83-1.1a3.29,3.29,0,0,0,.87-2.48,7.94,7.94,0,0,0-.89-3.19.64.64,0,0,0-.52-.19.51.51,0,0,0-.55.28,4.5,4.5,0,0,0-.8,2.75,4.21,4.21,0,0,0,.89,2.86.84.84,0,0,0,1,0Zm14.94-.72a2.84,2.84,0,0,1-1.63-2,6.51,6.51,0,0,1-.13-3.25c.35-1.36,1-2.29,1.85-2.49s.61-.13.61.35v.45l-.33.14c-.78.35-1.07,1.05-1.06,2.55a6.13,6.13,0,0,0,.67,2.88c.2.39.29.48.48.52s.24,0,.24.48,0,.44-.22.42h-.45Zm-8.48-7.85a1.86,1.86,0,0,1-1-.83,5.75,5.75,0,0,1-.62-3.43c0-1.85.38-2.59,1.33-3.23a1.36,1.36,0,0,1,1-.34c1.2,0,2,.8,2.43,2.48a6.65,6.65,0,0,1,0,3,3.2,3.2,0,0,1-1.44,2.17,2.23,2.23,0,0,1-1.64.19Zm1.37-1.42a5.12,5.12,0,0,0,.68-3.29,6.25,6.25,0,0,0-.57-2.08,1.67,1.67,0,0,0-.54-.15c-.5,0-.53,0-.92.79a5.14,5.14,0,0,0,0,4.4c.27.55.53.75,1,.72s.35,0,.59-.46Zm-105.94,1a1.85,1.85,0,0,1-1-.84,5.83,5.83,0,0,1-.72-3.45c0-1.84.39-2.58,1.33-3.21a1.37,1.37,0,0,1,1.06-.35c1.21,0,2,.81,2.43,2.47a7,7,0,0,1,0,3,3.18,3.18,0,0,1-1.36,2.18,2.2,2.2,0,0,1-1.63.18Zm1.35-1.43a5.11,5.11,0,0,0,.59-3.21,6.14,6.14,0,0,0-.54-2.14,1.52,1.52,0,0,0-.52-.17c-.51,0-.55,0-.94.8a5.19,5.19,0,0,0,0,4.39c.26.56.52.76.94.74s.35,0,.59-.48Zm95-.59a2.68,2.68,0,0,1-1.34-1.47,6.78,6.78,0,0,1-.39-2.75,3.81,3.81,0,0,1,1.53-3.44c.3-.18.39-.2,1-.18a1.61,1.61,0,0,1,1,.27,4.8,4.8,0,0,1,1.47,3.7,4.58,4.58,0,0,1-1,3.12A2.29,2.29,0,0,1,146.58,28.05Zm1.76-1.1a3.37,3.37,0,0,0,.87-2.59,7.89,7.89,0,0,0-.89-3.19.66.66,0,0,0-.52-.17.52.52,0,0,0-.55.26,4.48,4.48,0,0,0-.8,2.75,4.21,4.21,0,0,0,.89,2.86.87.87,0,0,0,1,0Zm14.22-1.28a.49.49,0,0,1-.27-.48c0-.28,1-1,1-1H164V19l-.38.11a1.78,1.78,0,0,1-1.18,0,.44.44,0,0,1,.17-.59l1-.28L165.4,18v7.56h-1.11a5.19,5.19,0,0,1-1.73,0Zm-104-.08c-.61-.34-.85-.47-.87-.75s1-.67,1-.67h.08V18.62l.25.2a1.77,1.77,0,0,1-1.2,0c-.11-.11,0-.51.56-.74a4.44,4.44,0,0,0,1.84-1h0v7.11h1a3.18,3.18,0,0,0,.87.32.53.53,0,0,1,0,.65,3.48,3.48,0,0,1-1.15.2c-.78.11-1.58.11-2.36.25ZM110,21.33a.48.48,0,0,1,0-.67l0-.05c.29,0,.87.72.87.72h.52V14.22h0a1.2,1.2,0,0,1-1.31.67c-.2,0-.24-.42,0-.64a7.67,7.67,0,0,1,2-.6c.61-.09.74,3.46.74,3.46v2.8h.79c.74.48,1,.89.65,1.24s-.26.17-2.11.17c-.69.06-2.08,0-2.08,0Zm44.51-3.06c-.93,0-1-.11-1-.52s0-.44,1.05.73h.87v-7.1h-.34l-.72,1.42h-.66c-.14-1.27-.14-1.52,0-1.71a8.15,8.15,0,0,1,1.18-.39c.79-.22,1.11-.28,1.2-.22.33,1.43.76,4.37.76,4.37v2.21h-.19a5.2,5.2,0,0,0,.78.1c.55.11.68.28.53.65s-.14.24-.5.27a20.75,20.75,0,0,1-3,0ZM49.9,17.86c-.93,0-1-.11-1-.51s0-.45,1.07-.29h.22V10h.29l-.74,1.43h-.66s-.15-.39,0-.57a12.15,12.15,0,0,1,1.16-.39c.8-.22,1.13-.27,1.22-.22a12.06,12.06,0,0,1,.15,4.4v2.46h.42a1,1,0,0,1,.78-.16c.55.11.7.3.55.65s-.14.24-.51.28a24.36,24.36,0,0,1-3,0ZM93.18,16.5c-.61-.11-.85-.24-.87-.5s1-.36,1-.36h1V9.76l-.67.13a1.76,1.76,0,0,1-1.2,0c-.11-.11,0-.52.56-.74s1.21-.38,1.84-.62h.89v5.69h.2c.29,1.25.57,1.28.85,1.35a.53.53,0,0,1,0,.65,3.4,3.4,0,0,1-1.14.22,9.4,9.4,0,0,1-2.37,0Zm52.19-.81a.48.48,0,0,1,0-.68l0,0c.29-.07.88.66.88.66h.67V8.53h-.15a1.16,1.16,0,0,1-1.29.73c-.21,0-.26-.42,0-.64a6.78,6.78,0,0,1,2-.6c.61,0,.91,3.44.91,3.44v2.76h-.09c.24.52.48.52.72.54.75,0,1,.41.66.76s-.26.17-2.1.17a12.38,12.38,0,0,1-2.11-.1Zm-25.44-.32c-.92,0-1-.09-1-.5s0-.44,1-.65h1.3V8.53h-.76L119.84,10h-.67a7.12,7.12,0,0,1,0-1.67,10.12,10.12,0,0,1,1.18-.38c.8-.23,1.11-.28,1.2-.23a3.72,3.72,0,0,1-1.65,4.43v2.12h2.21a1.71,1.71,0,0,0,.77.19c.54.11.69.3.54.65s-.15.24-.5.27a20.75,20.75,0,0,1-3,0Zm-50,67.1a6.85,6.85,0,0,0,.41-1.81,4.32,4.32,0,0,0-.85-3.25c-.48-.51-.63-.51-1.11,0A5,5,0,0,0,68,82.34c0,.11.17.13.92-1.29h1.17v1.42Zm24.15,0h-.3c-.29,0-.5.13,0,.15s.39,0,.39-.11Zm10.19-.22a4.57,4.57,0,0,0-.37-1.31,1,1,0,0,0-1-.7,1,1,0,0,0-1,.62,6.38,6.38,0,0,0-.37,1.41,7.72,7.72,0,0,0,1.36,0,6.28,6.28,0,0,0,1.37,0Zm0-68.52c.57-.28.94-1.09,1-2.25A4.74,4.74,0,0,0,105,9.15c-.25-.63-.84-1.33-1.12-1.33s-.89.72-1.07,1.26a5.55,5.55,0,0,0,.33,4.21c.33.49.65.6,1.09.36ZM69.26,10c.68.22,1-.49.87-1.87v-1H67.29V7.8a12.26,12.26,0,0,0,1.1,2.68c.2.2.35.2.78-.53Zm69.9-1.88a1.9,1.9,0,0,0,.82-.74l.11-.22h-2.18l.17.33C138.41,8.09,138.68,8.25,139.16,8.07Z" transform="translate(-22.89)"/></g></g></g></svg>