<svg xmlns="http://www.w3.org/2000/svg" viewBox="0 0 627.27 254.7"><defs><style>.cls-1{fill:#fff;}</style></defs><title>Asset 6</title><g id="Layer_2" data-name="Layer 2"><g id="Layer_1-2" data-name="Layer 1"><g id="Layer_2-2" data-name="Layer 2-2"><g id="layer1"><path id="path5334" class="cls-1" d="M295.78,53.6a23.12,23.12,0,0,1-10-3.93,34.2,34.2,0,0,1-6.88-6.82,28.26,28.26,0,0,1-5.24-18.7A26.46,26.46,0,0,1,281.4,7.93,24.26,24.26,0,0,1,288,3.11a14.24,14.24,0,0,1,5.65-1.76c1.21-.18,2.65-.44,3.19-.58a10.4,10.4,0,0,1,4.44-.22c11.25,1.08,20.33,7.69,23.89,17.36a26.59,26.59,0,0,1-.06,17.76c-2.72,8.18-8,13.32-16.38,16.17a30.69,30.69,0,0,1-13,1.77ZM303,43.3a16.47,16.47,0,0,0,7.71-4.25,15.72,15.72,0,0,0,3.44-4.8,17.74,17.74,0,0,0,1.05-12.33,14.68,14.68,0,0,0-3.82-6.66,16.48,16.48,0,0,0-11-4.84,10.2,10.2,0,0,0-4,.3,18.77,18.77,0,0,0-3,.81,17.19,17.19,0,0,0-4.61,3.32,15.8,15.8,0,0,0-4.61,11,16.74,16.74,0,0,0,.87,6.77c1.89,5.69,6,9.71,11.24,10.89a18.2,18.2,0,0,0,6.66-.24ZM242.6,53.35c-4.76-.74-7.75-2-12.69-5.46-2.06-1.48-2.7-2-2.7-2.22s1-1.36,3.4-3.64l3.4-3.28.9.89c.84.83,1.1,1,3.18,1.73,8.63,3.14,14.15,2.91,16.48-.74a5.56,5.56,0,0,0,.89-3.76c-.22-2.7-1.91-4.4-5.18-5.18-.67-.17-2.57-.51-4.19-.74-5.41-.8-10.16-2.53-12.78-4.62-3.28-2.65-5.05-8.84-3.87-13.37a16,16,0,0,1,6.49-8.82c2-1.42,3.35-2,6.89-2.91l3.27-.86,2.58.1c5.31.22,9.47,1.19,12.72,3a17.31,17.31,0,0,1,4,3.22l.61.72-3.33,3.39c-1.83,1.86-3.41,3.41-3.48,3.44a3.72,3.72,0,0,1-1-.8A5.2,5.2,0,0,0,255.72,12c-3.34-1.2-7.19-1.79-9.51-1.43a7.59,7.59,0,0,0-4.17,2,5,5,0,0,0-1.37,3.54c-.06,1.34,0,1.41.5,2.22,1.1,1.63,2.73,2.28,7.84,3.12,6.86,1.12,11.39,3.21,14.8,6.78a11,11,0,0,1,3.36,8.83,16.19,16.19,0,0,1-4.87,10.81,20.94,20.94,0,0,1-11.55,5.51,35.74,35.74,0,0,1-8.14,0Zm111.87.23a26.4,26.4,0,0,1-20.66-15.4,27.52,27.52,0,0,1,.35-23.2A26.57,26.57,0,0,1,347.81,2.29a53.92,53.92,0,0,1,9.6-1.77A31.33,31.33,0,0,1,369.79,3c3.32,1.52,7.4,4.16,7.22,4.65s-6.77,7.4-7,7.4a21.74,21.74,0,0,1-2.65-1.31c-4.2-2.3-5.66-2.71-9.5-2.69A15.69,15.69,0,0,0,351,12.45a17.08,17.08,0,0,0-7.14,6.2,13.78,13.78,0,0,0-1.92,8.27,18.51,18.51,0,0,0,4.78,11.91c3,3.23,6.57,4.6,11.38,4.4a17,17,0,0,0,9-2.72c.72-.4,1.47-.77,2.23-1.11l.95-.4,2.88,2.91c2.12,2.14,3,3.15,3.33,3.8a2.49,2.49,0,0,1,.35,1,51.45,51.45,0,0,1-6.17,3.92,26.34,26.34,0,0,1-8.06,2.7A44.3,44.3,0,0,1,354.47,53.58ZM73.34,53.32l-.76-.06V35.81c.12-9.6.57-26.43.57-26.43V0H76L92.33,16.93c9,9.1,16.44,16.52,16.59,16.52s.23-1,.23-5.85c0-3.22,0-10.67-.08-16.55V.57h10.26v53h-3.89l-12-12.13C93,30.93,88.4,26.13,87.15,24.53a22.79,22.79,0,0,0-3.69-3.17L82.84,21V53.58H78.65s-4.82-.21-5.27-.25ZM130.16,25.8V0h10.08c5.42.51,19.34.57,19.34.57h9.35v9.69H141v11.4h6.32c3.54.12,8.28.17,10.56.57h4.22v9.11H141v12h27.94V53.58H130.16Zm65,27.53L194,53.27l.57-21.46V10.26l-9,.57h-8.69L177,5.39c.05-2.6.11-4.78.16-4.82s10.28,0,22.75,0l22.64.1v9.47s-4,.08-8.82.12h-9.44L204.84,32V53h-4.45s-4.73.37-5.24.33ZM4.8,53A1.92,1.92,0,0,1,4,52.82c-.48-.24-.6-.7-.38-1.43,0-.15.47-1.31.94-2.57s.93-2.53,1-2.81c.3-.94.51-1.25,1-1.44l.25-.11H33.29c24.37,0,26.53,0,26.72.06.42.11.55.23.83.76a21.32,21.32,0,0,1,.91,2.46,16.4,16.4,0,0,0,.76,2,9.2,9.2,0,0,1,.76,2.29c0,.45-.4.76-1.07.91-.28,0-2.6,0-28,.06H4.8Zm54.26-1.75a1.46,1.46,0,0,0,.73-.23.85.85,0,0,0,.29-.51s-.35-1-.75-2.11-.79-2.22-.85-2.37c-.2-.67-.43-1-.74-1.12a6.14,6.14,0,0,0-1.48-.09c-.4,0-11.21,0-24,0C9.88,44.9,9,44.9,8.86,45a3.06,3.06,0,0,0-.57.8,18.06,18.06,0,0,0-.9,2.35c-.21.64-.45,1.35-.55,1.6-.26.73-.28,1-.07,1.24a1.37,1.37,0,0,0,.92.33H59.08ZM18.43,43.89a1.57,1.57,0,0,1-.53-.17c-.1-.07-.11-.08-.1-.18A8.35,8.35,0,0,1,19,41.15l.09-.1h6.69l.11-.07c.5-.33.63-1.45.5-4.21v-.85h-8c-7.45,0-8.08,0-8.41-.06a2.71,2.71,0,0,1-1.47-.58A3.82,3.82,0,0,1,7.6,33c0-.3,0-.83,0-2.18v-25a16.82,16.82,0,0,1,.13-3A2.22,2.22,0,0,1,8.37,1.3,2.83,2.83,0,0,1,10.06.63c.27,0,4.64,0,23.72-.06h23.7a2.67,2.67,0,0,1,1.07.26,2.21,2.21,0,0,1,.62.47,2.23,2.23,0,0,1,.62,1c.05.2.05,1,.08,14.16,0,7.66,0,14.24.05,14.63.09,2.64-.26,3.89-1.29,4.49a3.53,3.53,0,0,1-.94.29,20.69,20.69,0,0,1-2.49,0c-.68,0-14.71-.05-14.77,0s-.08.19-.1,2.16a11.71,11.71,0,0,0,.05,2.05A1.14,1.14,0,0,0,41,41a28.06,28.06,0,0,0,4.3.06c1.83,0,1.94,0,2.12.13a9.7,9.7,0,0,1,1.1,2.21c.08.26.08.29,0,.36a.51.51,0,0,1-.21.15l-.15.08H18.43Zm15.92-5.66c4.08,0,4,0,4.26-.17a1,1,0,0,0,.44-1c-.07-.29-.38-.48-.88-.55H29l-.19.21a1.11,1.11,0,0,0-.36.82.51.51,0,0,0,.1.38,1.11,1.11,0,0,0,.74.38H30c.27,0,2.22,0,4.37,0Zm-18.2-5.88v-.73l-.51.05a.62.62,0,0,1-.5,0c-.05,0,0-.21.23-.3a2.07,2.07,0,0,1,.74-.14s.05.11,0,.93v.34h2.63l0,.44a3.24,3.24,0,0,1-.06-1.42,1.52,1.52,0,0,1,.35-.8.9.9,0,0,1,.8-.2c.36.11.6.43.74,1a3,3,0,0,1,0,1.33,1.06,1.06,0,0,1-.06.22h4.34s4.29,0,4.26-.1a.17.17,0,0,1,0-.14c0-.1.36-.24.7-.28s.36-.05.63.24v.28h2.28v-.23a1.73,1.73,0,0,1,.32-.78.67.67,0,0,1,.72-.23,1.24,1.24,0,0,1,.67,1.08v-.43H43.2c.11.51.23.51.34.57h0V30.69l.18,0a.79.79,0,0,1-.48,0s0-.21.21-.3.51-.14.75-.22h-.09v2.28h.51a2.92,2.92,0,0,0,.33.57h6v-.21c0-.17,0-.17-.14-.14a1.06,1.06,0,0,1-.5.06c-.08,0-.1-.18,0-.26a2.71,2.71,0,0,1,.78-.24c.22,0,.45.41.45.41v.38h6.24V31.81l-.21.05a.64.64,0,0,1-.47,0,.17.17,0,0,1,.06-.23l.4-.11.79-.09V5.7h-.57a1.2,1.2,0,0,0-.64-.31.12.12,0,0,1,0-.14c0-.16.39-.12.39-.12h.25V2.85H48.43L48.37,3A1.09,1.09,0,0,1,48,3.6a1.19,1.19,0,0,1-.32.1.76.76,0,0,1-.86-.51,2.33,2.33,0,0,1-.11-.28,9.27,9.27,0,0,0-1.29,0H44.08v.55h.55c.11.48.23.51.35.51a.24.24,0,0,1,0,.26,4,4,0,0,1-1.28.09c-.36,0-.46-.08-.48-.21s.39-.09.39-.09h.5V2.85H34l.11.18a1.42,1.42,0,0,1,.35.74,2.63,2.63,0,0,1-.09,1.57,1,1,0,0,1-1.1.58c-.43-.12-.69-.61-.74-1.42A2,2,0,0,1,33,3l.13.46H20.71V3.24c-.11.89-.39,1.33-1,1.42s-1.31-1.49-1.31-1.49V2.85H16.15v1.7h.41c.12.32.23.34.34.37a.21.21,0,0,1,0,.26,4,4,0,0,1-1.29.1c-.35,0-.45-.09-.46-.22s0-.17.38.06h.05V2.85H9.88V33.07h5.7v-.72Zm20.41.5a1.06,1.06,0,0,1-.53-.61,2.62,2.62,0,0,1-.15-1.11,1.48,1.48,0,0,1,.66-1.38c.12-.08.16-.08.4-.08a.65.65,0,0,1,.4.12,1.9,1.9,0,0,1,.59,1.48,1.78,1.78,0,0,1-.4,1.25.87.87,0,0,1-.9.26Zm.51-.44a1.34,1.34,0,0,0,.35-1A2.84,2.84,0,0,0,37,30.1a.24.24,0,0,0-.2-.06.2.2,0,0,0-.22.1,1.75,1.75,0,0,0-.28,1.09,1.58,1.58,0,0,0,.36,1.14.32.32,0,0,0,.39,0Zm10.36.31a1.15,1.15,0,0,1-.65-.88,3.87,3.87,0,0,1,0-1.27,1.55,1.55,0,0,1,.36-.83.86.86,0,0,1,.8-.19c.36.1.58.4.74.94a2.58,2.58,0,0,1-.1,1.6.94.94,0,0,1-1.11.59Zm.42-.42a1.11,1.11,0,0,0,.42-.9,1.7,1.7,0,0,0-.12-.94c-.09-.25-.33-.53-.44-.53s-.35.29-.44.5a2.24,2.24,0,0,0,.15,1.72.27.27,0,0,0,.42.13Zm-21.79.43a.75.75,0,0,1-.42-.34A2.25,2.25,0,0,1,25.35,31a1.39,1.39,0,0,1,.51-1.3.51.51,0,0,1,.42-.14c.51,0,.81.33,1,1a2.79,2.79,0,0,1,0,1.22,1.26,1.26,0,0,1-.58.86.84.84,0,0,1-.64,0ZM26.6,32a2.08,2.08,0,0,0,.23-1.29,2.41,2.41,0,0,0-.25-.84.65.65,0,0,0-.21-.06c-.2,0-.22,0-.37.31a2,2,0,0,0,0,1.76c.1.23.2.32.37.3s.15,0,.24-.19Zm-3.87-.35a1.13,1.13,0,0,1-.55-.59,2.74,2.74,0,0,1-.14-1.1,1.45,1.45,0,0,1,.6-1.38.55.55,0,0,1,.4-.07.54.54,0,0,1,.41.11A1.87,1.87,0,0,1,24,30.08a1.77,1.77,0,0,1-.39,1.25.91.91,0,0,1-.92.24Zm.27-.45a1.26,1.26,0,0,0,.35-1A2.82,2.82,0,0,0,23,28.87a.2.2,0,0,0-.2-.07.2.2,0,0,0-.22.11,1.73,1.73,0,0,0-.32,1.1,1.67,1.67,0,0,0,.36,1.15.35.35,0,0,0,.39,0Zm31.11.45a.76.76,0,0,1-.41-.34,2.31,2.31,0,0,1-.26-1.41c0-.74.15-1,.53-1.3a.6.6,0,0,1,.42-.14c.51,0,.8.33,1,1a2.75,2.75,0,0,1,0,1.21,1.28,1.28,0,0,1-.58.87.94.94,0,0,1-.66.08Zm.55-.57a2.09,2.09,0,0,0,.26-1.32,2.44,2.44,0,0,0-.23-.84.79.79,0,0,0-.22-.06c-.19,0-.21,0-.37.32a2.08,2.08,0,0,0,0,1.76c.11.23.22.31.39.29s.14,0,.24-.19Zm-42.46.41a.75.75,0,0,1-.41-.33,2.34,2.34,0,0,1-.29-1.39A1.33,1.33,0,0,1,12,28.43a.6.6,0,0,1,.42-.14c.51,0,.81.32,1,1a2.7,2.7,0,0,1,0,1.2,1.29,1.29,0,0,1-.61.83.82.82,0,0,1-.65.07Zm.51-.61A2,2,0,0,0,13,29.55a2.39,2.39,0,0,0-.23-.87.58.58,0,0,0-.21-.07c-.21,0-.22,0-.37.32a2,2,0,0,0,0,1.77c.1.22.2.3.37.29s.14,0,.24-.19Zm16.75,0A1.16,1.16,0,0,1,29,30a3.26,3.26,0,0,1,0-1.39,1.1,1.1,0,0,1,.35-.65.74.74,0,0,1,.83-.21,1.58,1.58,0,0,1,.72,1.57,1.59,1.59,0,0,1-.7,1.51A.85.85,0,0,1,29.46,30.83Zm.57-.45a.94.94,0,0,0,.31-.45,1.82,1.82,0,0,0,.07-.61,1.59,1.59,0,0,0-.07-.65,1.12,1.12,0,0,0-.39-.5c-.17-.11-.23-.08-.38.22a2,2,0,0,0-.07,1.81c.15.32.29.38.54.19Zm20.93,1A.82.82,0,0,1,50.7,31a2.05,2.05,0,0,1-.35-1.2v-.91l-.42.09a3.63,3.63,0,0,1-2.57.23,5.76,5.76,0,0,1-2.08-1.32l-.63-.28v.11s-.13.81-.59.85-.75-.28-.87-.91a2.58,2.58,0,0,1-.07-.68,1.81,1.81,0,0,1,.39-1.34l.17-.16-.33-.59c-.17-.34-.4-.74-.5-.89a6.18,6.18,0,0,1-.39-.77A5.61,5.61,0,0,0,41.78,22c-.06-.06-.11-.09-.11-.06a2.56,2.56,0,0,1-.67,1l-.35.18v2H41a.55.55,0,0,0,.31.08c.22.05.27.12.21.27l0,.1c-.44,0-.89,0-1.33,0s-.4,0-.4-.21.42.33.42.33h.51V24.26a1.44,1.44,0,0,1-.22-.86l-.29.14a3.22,3.22,0,0,1-2.52.27,2.87,2.87,0,0,1-1.08-.66.22.22,0,0,0-.2-.08c-.19,0-.26-.05-.26-.18a.19.19,0,0,1,.05-.13s0-.08-.13-.29a3.57,3.57,0,0,1-.5-.92v-.46h-4v.32c-.1.23-.16.47-.26.68a3.09,3.09,0,0,1-.57.82l-.21.22.09.13a2.33,2.33,0,0,1,.27,1.4c-.1.84-.51,1.35-1,1.35s-.7-.29-.86-.9c-.08-.25-.17-.5-.27-.74v-.43h-.14a3.63,3.63,0,0,1-1.14,0,3.83,3.83,0,0,1-1.45-.8l-.3-.23a1.24,1.24,0,0,1-.45-.67.7.7,0,0,0-.13-.29c-.06-.06-.06-.05-.13.18a5.56,5.56,0,0,1-.75,1.32,17,17,0,0,0-1,1.76l-.2.39v.64h.65c.29,0,.4.15.25.3a1.81,1.81,0,0,1-.63.25h-.51l-.16.26A6.51,6.51,0,0,1,20.87,29a3.15,3.15,0,0,1-2,.59,4.16,4.16,0,0,1-1.8-.38,1.09,1.09,0,0,0-.25-.1.42.42,0,0,0-.09.14,1,1,0,0,1-.84.57c-.44,0-.71-.29-.87-.91a3.4,3.4,0,0,1,0-1.42,1.64,1.64,0,0,1,.14-.39.36.36,0,0,0,0-.32A7.76,7.76,0,0,1,15,25.55a4.62,4.62,0,0,1,.13-1,.62.62,0,0,0,0-.23,2.36,2.36,0,0,1-.19-1.05,1.7,1.7,0,0,1,.4-1.37.59.59,0,0,0,.22-.47,4.7,4.7,0,0,1,.12-.51c0-.14.12-.41.17-.61l.1-.35h-.23s-.39-.15-.56-.23a.21.21,0,0,1,0-.24,1.3,1.3,0,0,0,.35-.11h.06V17.1h.1a.54.54,0,0,1-.48.07c0-.05,0-.2.23-.3a1.91,1.91,0,0,1,.74-.14,6.46,6.46,0,0,1,0,.88v.88s.08-.39.15-.86c.11-.75.25-1.5.43-2.23a2.73,2.73,0,0,0,.13-.8c0-.26-.05-.59-.06-.44a1.83,1.83,0,0,1-.32.58.82.82,0,0,1-1.15.1l-.08-.06a2.09,2.09,0,0,1-.32-1.31,2.36,2.36,0,0,1,.2-1.08,1.44,1.44,0,0,1,.5-.48.86.86,0,0,1,.76.12,1.85,1.85,0,0,1,.5,1c0,.09.05.05.2-.36a6.68,6.68,0,0,1,2-3.1l.17-.11-.1-.06a2.52,2.52,0,0,1-.31-2.57.75.75,0,0,1,.44-.43.82.82,0,0,1,1.11.37.36.36,0,0,1,0,.09l.12.26c0,.05,0,.05.09,0a3.22,3.22,0,0,1,1.76-.26H23V4.55h.12a1.06,1.06,0,0,1-.5.06c-.08,0-.1-.18,0-.26a2.66,2.66,0,0,1,.73-.21c.24,0,.22-.1.22,1.37V6.83h.18A12.58,12.58,0,0,1,25.22,7a3.27,3.27,0,0,1,1,.3l.19.09V5.7h-.24l-.29.57h-.27a2.66,2.66,0,0,1,0-.69,3.86,3.86,0,0,1,.48-.16,1.15,1.15,0,0,1,.5-.09,5.54,5.54,0,0,1,.1,1.57c0,.87,0,.9.07,1a.21.21,0,0,0,.15.09l.23,0c.2,0,.25.12.2.25a.8.8,0,0,1-.18.27h-.09a5.53,5.53,0,0,1,.11.9c0,.13,0,.15.11.22a2.39,2.39,0,0,1,.56.54l.08,0h1.92V8.75l-.27.05a.72.72,0,0,1-.5,0c-.05,0,0-.2.22-.29A1.21,1.21,0,0,0,30.05,8h.35v2.26h2.4l-.1-.07a3,3,0,0,1,0-2.07.7.7,0,0,1,.43-.43.81.81,0,0,1,1.1.39h0v0a2.69,2.69,0,0,1,.07,2.1l-.1.63h1.15a4.62,4.62,0,0,1,1.18-.47,1,1,0,0,0,.31-.1h2.19l.22-.22.24-.23v-.5c0-.8.13-1.1.5-1.35a1.16,1.16,0,0,0,.28-.26A2.31,2.31,0,0,1,41.41,7a7,7,0,0,1,1.71-.21h1V6.47l-.34,0c-.22.05-.43.05-.47,0s0-.21.21-.3a.69.69,0,0,1,.74,0h.43v.56h.48L46,7a2.42,2.42,0,0,1,.6.45c.11.11.18.17.17.14a2.38,2.38,0,0,1,0-.46A2.48,2.48,0,0,1,47,5.85a.8.8,0,0,1,.42-.43.85.85,0,0,1,1.12.4h0a2.72,2.72,0,0,1,.24,1.12c0,.91-.33,1.49-.94,1.57a.76.76,0,0,1-.53-.12l.23-.07v.1c-.26.21,0,.66,0,.66v.1l.27.14a2.67,2.67,0,0,1,.51.31,7.86,7.86,0,0,1,1.92,3.3l.16.51v0a5,5,0,0,0,0,1.45c0,.15.12.65.2,1.12a8.43,8.43,0,0,0,.33,1.57.37.37,0,0,0,.08.18l.23,0h.25a6.4,6.4,0,0,1,0,1.45v1.38h.34c.27,0,.37.17.24.32s-.09.07-.36.07a1.61,1.61,0,0,0-.31,0c0,.16.22,2,.26,2.19a12.77,12.77,0,0,1,.22,1.63c0,.31.06.65.06.78s0,.19.07.2a.21.21,0,0,1,.09.25.22.22,0,0,1-.09.1s-.05.07-.07.4a3.47,3.47,0,0,1-.26,1.23l-.13.32.12.11a2.23,2.23,0,0,1,.51,1.28,2.37,2.37,0,0,1-.41,1.69.75.75,0,0,1-.76.22Zm.11-1.16a1.37,1.37,0,0,0,.35-1,2.58,2.58,0,0,0-.4-1.31c-.13,0-.09,0-.12.1s-.19.21-.31.36l-.24.24v.26a2.29,2.29,0,0,0,.1.94,1.07,1.07,0,0,0,.28.48.4.4,0,0,0,.37,0ZM16.19,29a1.14,1.14,0,0,0,.3-.39,2.9,2.9,0,0,0-.34-.36,2.18,2.18,0,0,1-.46-.58c-.08-.14-.13-.22-.14-.2a1.45,1.45,0,0,0-.06.3,1.84,1.84,0,0,0,.2,1.15c.13.27.26.29.49.1Zm28.07-1a1.15,1.15,0,0,0,.37-.74.49.49,0,0,0-.11-.35c-.12-.18-.26-.39-.4-.63l-.27-.45-.1.22a2,2,0,0,0,0,1.73c.16.35.29.4.54.21ZM30.05,25.48a.9.9,0,0,0,.31-.45,1.57,1.57,0,0,0,.06-.61,1.34,1.34,0,0,0-.07-.66,1.25,1.25,0,0,0-.15-.28l-.06-.08-.23.13-.34.18c-.13.05-.17.14-.22.55a1.86,1.86,0,0,0,.2,1.11C29.74,25.63,29.82,25.66,30.05,25.48ZM51,18.65c0-.51,0-.51-.07-.51h-.08a3.68,3.68,0,0,0,.13.94,2.09,2.09,0,0,0,0-.5ZM16.17,14.5a1,1,0,0,0,.32-.45,1.8,1.8,0,0,0,.05-.61,1.43,1.43,0,0,0-.06-.65,1.1,1.1,0,0,0-.39-.51c-.17-.12-.23-.08-.38.21a2,2,0,0,0-.08,1.81C15.82,14.63,15.92,14.68,16.17,14.5Zm17.47-4.17c.23-.1.39-.43.44-.91A2,2,0,0,0,34,8.49c-.1-.26-.34-.51-.45-.51s-.36.28-.43.51c-.28.73,0,1.89.4,1.91ZM19.7,8.85a3.63,3.63,0,0,1,.42-1.18.21.21,0,0,0,0-.24c-.09-.36-.37-.74-.5-.74s-.36.29-.44.5A2.22,2.22,0,0,0,19.4,8.9c.09.14.16.2.25.2s.07,0,.1-.23Zm28.12-.76a1.15,1.15,0,0,0,.43-.91,1.85,1.85,0,0,0-.13-.93c-.09-.25-.33-.53-.44-.53s-.35.28-.44.5a2.24,2.24,0,0,0,.15,1.72A.32.32,0,0,0,47.82,8.09ZM40.24,30.43a.66.66,0,0,1-.41-.34,2.25,2.25,0,0,1-.29-1.37c0-.74.16-1,.54-1.29a.5.5,0,0,1,.42-.15c.5,0,.8.33,1,1a2.79,2.79,0,0,1,0,1.22,1.3,1.3,0,0,1-.57.82.89.89,0,0,1-.66.08Zm.54-.77A2,2,0,0,0,41,28.37a2.19,2.19,0,0,0-.23-.83.65.65,0,0,0-.21-.07c-.2,0-.21,0-.37.32a2.08,2.08,0,0,0,0,1.76c.11.23.22.31.39.3s.13,0,.23-.19Zm-7.58.48L33,30.09c-.28-.06-.31-.08-.31-.21s.06-.17.42.36h.13V27.36h0a.64.64,0,0,1-.45.05c-.06,0-.07-.19,0-.25a9.11,9.11,0,0,0,.91-.37h.14v2.85h.3c.36,0,.43,0,.39.17a.2.2,0,0,1,0,.11,4.59,4.59,0,0,1-1.23.13Zm24.22-.48a1.11,1.11,0,0,1-.65-.78,2.61,2.61,0,0,1,0-1.33,1.3,1.3,0,0,1,.74-1c.33-.11.24-.06.24.13v.18l-.13.07c-.31.13-.43.41-.42,1a2.38,2.38,0,0,0,.26,1.14c.09.16.12.2.2.21s.09,0,.09.19,0,.18-.09.17h-.18ZM36.08,27.87a.19.19,0,0,1,0-.26h0c.12,0,.35.35.35.35h.24V25.09h0a.52.52,0,0,1-.51.23c-.08,0-.1-.17,0-.25a2.77,2.77,0,0,1,.79-.24c.25,0,.33,1.37.33,1.37v1.16h0a.31.31,0,0,0,.3.17c.29,0,.4.16.26.3s-.11.07-.85.07a4.73,4.73,0,0,1-.84,0ZM25.89,27.8c-.37,0-.38,0-.38-.2s0-.18.42-.21H27v-2.3h-.84l-.29.56h-.26a2.89,2.89,0,0,1,0-.72,3.88,3.88,0,0,1,.45-.14,1.21,1.21,0,0,1,.51-.09,2.82,2.82,0,0,1-.12,1.77v.89h.67c.21.05.27.12.21.26s-.06.1-.21.11a7.75,7.75,0,0,1-1.18,0ZM54,26.67c-.37,0-.39,0-.39-.2s0-.18.42.35h.35V23.94h-.11l-.29.57h-.27c-.05-.5-.05-.63,0-.7a3,3,0,0,1,.48-.16c.32-.09.44-.12.48-.09.13.58.3,1.75.3,1.75v.91h.22c.23.05.28.11.22.26s-.06.1-.2.11a7.88,7.88,0,0,1-1.19,0Zm-42-.16c-.36,0-.38,0-.38-.21s0-.17.43-.05h.09V23.37h.14l-.29.57h-.27a.29.29,0,0,1,0-.31,2.6,2.6,0,0,1,.47-.16,1.19,1.19,0,0,1,.5-.09,9.53,9.53,0,0,1,.05,1.77v.5h.18c.1.41.21.41.31.42s.28.11.22.26-.06.09-.21.11a7.75,7.75,0,0,1-1.18,0Zm21.23-1.18L33,25.27c-.27-.06-.3-.08-.3-.2s.41,0,.41,0h.13V22.62a1.09,1.09,0,0,1-.44,0c-.06,0-.07-.19,0-.25a1.41,1.41,0,0,1,.88-.13h.14v2.27h.3c.36.31.43.31.39.51a.17.17,0,0,1,0,.1,4.22,4.22,0,0,1-1.23.13Zm24.27-.46a1.16,1.16,0,0,1-.66-.8,2.58,2.58,0,0,1-.08-1.32,1.34,1.34,0,0,1,.74-1c.33-.1.24-.06.24.15v.17l-.13.06c-.31.13-.43.42-.42,1a2.4,2.4,0,0,0,.26,1.15c.09.15.12.2.2.21s.09,0,.09.2,0,.17-.09.17h-.18Zm-3.4-3c-.51-.19-.74-.81-.7-1.74,0-.74.16-1,.54-1.28a.5.5,0,0,1,.42-.14c.48,0,.8.33,1,1a2.68,2.68,0,0,1-.11,1.56,1.34,1.34,0,0,1-.46.51.94.94,0,0,1-.68.05Zm.54-.57A2.09,2.09,0,0,0,54.92,20a2.39,2.39,0,0,0-.23-.83.57.57,0,0,0-.22-.07c-.19,0-.21,0-.37.32a2.08,2.08,0,0,0,0,1.76c.11.23.22.31.39.3s.14,0,.24-.19Zm-42.45.35c-.51-.18-.74-.81-.74-1.74,0-.74.16-1,.53-1.27a.55.55,0,0,1,.42-.15c.51,0,.81.33,1,1a2.66,2.66,0,0,1-.12,1.55,1.17,1.17,0,0,1-.46.5.86.86,0,0,1-.65.08Zm.54-.51A2.11,2.11,0,0,0,13,19.9a2.66,2.66,0,0,0-.22-.85.86.86,0,0,0-.21-.07c-.21,0-.22,0-.37.32a2,2,0,0,0,0,1.77c.1.22.2.3.37.29s.14,0,.24-.19ZM57.26,20c-.16,0-.2-.08-.2-.19s0-.16.39-.38h.32V17.3l-.18.05c-.22,0-.43,0-.47,0a.18.18,0,0,1,.06-.24l.4-.11.76-.09v3h-.48a1.75,1.75,0,0,1-.56,0Zm-3.33-3c-.37,0-.39,0-.39-.2s0-.18.42.31h.38V14.25h-.16l-.29.57h-.27c0-.51,0-.62,0-.69A4.5,4.5,0,0,1,54.1,14c.32-.09.44-.11.48-.09.14.59.33,1.81.33,1.81v.84h-.09a.71.71,0,0,0,.31.08c.23.05.28.12.22.26s-.06.1-.2.11A7.88,7.88,0,0,1,54,17Zm-41.77-.15c-.51,0-.55-.05-.55-.21s0-.18.43-.1h.69V13.68h-.51l-.27.57h-.26s-.06-.22,0-.29a3.53,3.53,0,0,1,.46-.15,1.15,1.15,0,0,1,.51-.1,5.79,5.79,0,0,1,.12,1.76l0,.51h.13s.21.45.31.46.29.12.22.27-.06.09-.2.1a5.68,5.68,0,0,1-1,0Zm38.6-.75a1,1,0,0,1-.54-.58,2.75,2.75,0,0,1-.16-1.1A1.52,1.52,0,0,1,50.69,13c.12-.08.16-.08.4-.08s.28,0,.4.12a1.94,1.94,0,0,1,.6,1.51,1.83,1.83,0,0,1-.41,1.25.87.87,0,0,1-.88.21Zm.73-.44a1.26,1.26,0,0,0,.35-1,3.35,3.35,0,0,0-.35-1.28.34.34,0,0,0-.21-.08.2.2,0,0,0-.22.11,1.76,1.76,0,0,0-.32,1.11,1.67,1.67,0,0,0,.35,1.14.33.33,0,0,0,.4,0Zm6-.29a1.13,1.13,0,0,1-.65-.79,2.49,2.49,0,0,1,0-1.3,1.28,1.28,0,0,1,.74-1c.33-.09.24,0,.24.14v.18l-.13.06c-.31.14-.43.42-.42,1a2.42,2.42,0,0,0,.26,1.15c.09.16.12.2.2.21s.09,0,.09.19,0,.18-.09.17h-.19Zm-3.4-3.14a.76.76,0,0,1-.41-.34,2.33,2.33,0,0,1-.25-1.37c0-.74.16-1,.54-1.3a.52.52,0,0,1,.42-.13c.5,0,.8.32,1,1a3.08,3.08,0,0,1,0,1.21,1.37,1.37,0,0,1-.58.83.9.9,0,0,1-.66.07Zm.55-.59a2,2,0,0,0,.27-1.32,2.29,2.29,0,0,0-.23-.84.73.73,0,0,0-.21-.06c-.2,0-.21,0-.37.32a2.08,2.08,0,0,0,0,1.76c.11.23.22.31.38.29s.14,0,.24-.19ZM12.17,12a.71.71,0,0,1-.41-.33,2.29,2.29,0,0,1-.29-1.38c0-.74.16-1,.53-1.29a.51.51,0,0,1,.42-.14c.51,0,.81.32,1,1a2.75,2.75,0,0,1,0,1.21,1.25,1.25,0,0,1-.55.87.82.82,0,0,1-.65.07Zm.54-.57A2.06,2.06,0,0,0,13,10.17a2.33,2.33,0,0,0-.22-.85.48.48,0,0,0-.2-.07c-.21,0-.23,0-.38.32a2.08,2.08,0,0,0,0,1.76c.1.22.21.31.38.3s.14,0,.23-.2Zm38.09-.23a1.13,1.13,0,0,1-.54-.6,2.72,2.72,0,0,1-.15-1.1,1.53,1.53,0,0,1,.58-1.35c.12-.08.16-.09.4-.08a.64.64,0,0,1,.4.11,1.9,1.9,0,0,1,.59,1.48,1.76,1.76,0,0,1-.4,1.25.89.89,0,0,1-.89.31Zm.71-.45a1.35,1.35,0,0,0,.34-1,3,3,0,0,0-.35-1.28.24.24,0,0,0-.21-.07.2.2,0,0,0-.22.1,1.74,1.74,0,0,0-.32,1.11,1.63,1.63,0,0,0,.36,1.14.33.33,0,0,0,.4,0Zm5.7-.5a.21.21,0,0,1-.11-.2c0-.11.4-.41.4-.41h.27v-2l-.15,0a.66.66,0,0,1-.48,0,.18.18,0,0,1,.07-.23l.4-.12.73-.09v3h-.45a2,2,0,0,1-.69,0Zm-41.7,0c-.25-.14-.34-.19-.35-.3s.39-.27.39-.27h0V7.47l.1.08a.79.79,0,0,1-.48,0s0-.21.22-.3a1.86,1.86,0,0,0,.74-.41h0V9.69h.41a1.48,1.48,0,0,0,.35.13.21.21,0,0,1,0,.26,1.48,1.48,0,0,1-.46.08c-.32,0-.63,0-1,.1Zm20.6-1.71a.2.2,0,0,1,0-.27h0c.12,0,.35.29.35.29h.21V5.7h0a.51.51,0,0,1-.5.27c-.09,0-.1-.17,0-.26A3.45,3.45,0,0,1,37,5.47c.24,0,.3,1.39.3,1.39V8h.29c.3.2.41.36.26.51s-.1.06-.84.06a7.36,7.36,0,0,1-.84,0ZM54,7.32c-.37,0-.39,0-.39-.2s0-.18.42.29h.35V4.55h-.11l-.29.57h-.27c-.05-.51-.05-.61,0-.68a3,3,0,0,1,.48-.16c.32-.09.44-.11.48-.09.13.58.3,1.75.3,1.75v.89h-.07a1.55,1.55,0,0,0,.31,0c.22,0,.27.11.21.26s-.06.1-.19.11a7.88,7.88,0,0,1-1.19,0ZM12,7.16c-.36,0-.38,0-.38-.21s0-.17.43-.11h.09V4h.14l-.3.56h-.27s-.06-.15,0-.22a2.6,2.6,0,0,1,.47-.16,1.19,1.19,0,0,1,.5-.09,4.74,4.74,0,0,1,.06,1.76v1h.17a.38.38,0,0,1,.31-.06c.23,0,.29.11.23.26s-.07.09-.21.11a11.61,11.61,0,0,1-1.18,0Zm17.36-.54c-.25,0-.34-.1-.35-.21s.39-.14.39-.14h.41V3.91l-.27,0A.62.62,0,0,1,29,4c-.05,0,0-.2.22-.29s.51-.15.74-.25h.35V5.7h.12c.12.51.24.51.35.54a.26.26,0,0,1,0,.27,1.48,1.48,0,0,1-.46.08,3.78,3.78,0,0,1-.95,0Zm20.92-.33a.2.2,0,0,1,0-.27h0c.11,0,.36.27.36.27h.26V3.42h-.06a.47.47,0,0,1-.5.3c-.08,0-.1-.18,0-.27a2.66,2.66,0,0,1,.79-.23c.24,0,.36,1.37.36,1.37V5.7h0c.1.21.19.21.29.22.3,0,.41.16.27.3s-.11.07-.85.07a4.73,4.73,0,0,1-.84,0Zm-10.2-.13c-.37,0-.38,0-.38-.2s0-.17.42-.26h.5V3.42h-.3L40.08,4h-.27a2.51,2.51,0,0,1,0-.67l.47-.16c.32-.08.44-.11.51-.08a1.52,1.52,0,0,1-.71,1.77V5.7H41a.84.84,0,0,0,.31.08c.22,0,.27.12.22.26s-.06.09-.2.11a11.81,11.81,0,0,1-1.19,0Zm-20,26.91a3,3,0,0,0,.17-.72A1.79,1.79,0,0,0,19.86,31c-.19-.2-.25-.2-.45,0a2.05,2.05,0,0,0-.13,2c0,.05.07.06.37-.5h.47v.57Zm9.69,0h-.13c-.11,0-.19,0,0,0s.16,0,.16,0ZM33.82,33a1.5,1.5,0,0,0-.15-.51.38.38,0,0,0-.41-.28.39.39,0,0,0-.39.25,2.65,2.65,0,0,0-.15.57,5,5,0,0,0,.55,0,2.53,2.53,0,0,0,.55,0Zm0-27.48c.23-.11.38-.43.42-.9a2,2,0,0,0-.11-.93c-.1-.25-.34-.54-.45-.54s-.36.3-.43.51a2.25,2.25,0,0,0,.13,1.69c.14.19.26.24.44.14ZM19.79,4c.27.08.4-.2.35-.76V2.85H19v.28a4.73,4.73,0,0,0,.44,1.07c.08.08.14.08.31-.21Zm28-.76a.71.71,0,0,0,.32-.3l0-.08h-.87l.07.13c.13.26.24.33.44.25Z" transform="translate(-3.5)"/></g></g><path class="cls-1" d="M8.76,186.88c0-43,34.49-67.82,73.37-67.82,16.42,0,29.56,5.18,40,13.46L100.2,161c-6-4.66-10.41-6.22-15.34-6.22-17.52,0-27.92,12.43-27.92,32.1S68.44,219,83.22,219c7.67,0,15.33-3.62,21.9-8.28l18.07,29c-13.69,11.39-31.21,15-45.44,15C38.87,254.7,8.76,229.85,8.76,186.88Z" transform="translate(-3.5)"/><path class="cls-1" d="M137.4,206V71.43h47.08V207.59c0,8.8,4.38,11.39,7.67,11.39a17.77,17.77,0,0,0,4.93-.52l5.47,32.62c-4.93,2.07-12.59,3.62-23,3.62C147.8,254.7,137.4,235,137.4,206Z" transform="translate(-3.5)"/><path class="cls-1" d="M200.88,186.88c0-43,32.85-67.82,67.89-67.82s67.89,24.85,67.89,67.82-32.85,67.82-67.89,67.82S200.88,229.85,200.88,186.88Zm87.6,0c0-19.67-5.47-32.1-19.71-32.1s-19.71,12.43-19.71,32.1,5.48,32.1,19.71,32.1S288.48,206.55,288.48,186.88Z" transform="translate(-3.5)"/><path class="cls-1" d="M352.46,201.9V122.17h47.09v74c0,16.57,4.38,20.71,13.68,20.71,8.77,0,13.69-3.11,19.72-11.39V122.17H480V251.59H441.71l-3.29-17.08h-1.09c-10.95,12.43-23.55,20.19-42.16,20.19C365.05,254.7,352.46,234,352.46,201.9Z" transform="translate(-3.5)"/><path class="cls-1" d="M497.72,186.88c0-42.45,27.92-67.82,55.84-67.82,14.79,0,23.55,5.18,31.76,12.95l-1.64-18.64V71.43h47.08V251.59H592.44l-3.29-11.9h-1.09c-9.31,8.8-22.45,15-34.5,15C519.62,254.7,497.72,228.82,497.72,186.88Zm86,22.26V161.51c-5.48-4.65-12.6-6.21-18.62-6.21-9.86,0-19.16,8.29-19.16,31.06,0,23.3,7.66,32.1,20.26,32.1C573.27,218.46,578.75,216.39,583.68,209.14Z" transform="translate(-3.5)"/></g></g></svg>