<svg id="svg5321" xmlns="http://www.w3.org/2000/svg" width="446.21" height="496.53" viewBox="0 0 446.21 496.53"><defs><style>.cls-1{fill:#fff;}</style></defs><title>logo</title><g id="layer1"><path id="path5334" class="cls-1" d="M375.53,537.32A34.11,34.11,0,0,1,361,531.57a50.44,50.44,0,0,1-10.07-10,41.48,41.48,0,0,1-7.68-27.41A38.77,38.77,0,0,1,354.5,470.4a36.44,36.44,0,0,1,9.72-7.06,20.82,20.82,0,0,1,8.28-2.57c1.78-.26,3.89-.65,4.68-.86a15.51,15.51,0,0,1,6.55-.33c16.4,1.6,29.69,11.28,34.92,25.46,2.94,7.94,2.9,17-.09,26-4,12-11.66,19.57-24,23.69-6.95,2.32-13.82,3.26-19,2.58Zm10.63-15.09a24.18,24.18,0,0,0,11.3-6.23,22.34,22.34,0,0,0,5.05-7,26,26,0,0,0,1.54-18.06,21.39,21.39,0,0,0-5.61-9.79c-4.14-4.27-9.33-6.56-16.05-7.1a14.75,14.75,0,0,0-5.93.44,31.2,31.2,0,0,0-4.3,1.18,25.83,25.83,0,0,0-6.76,4.87,23.17,23.17,0,0,0-6.75,16.2,24.39,24.39,0,0,0,1.27,9.92c2.77,8.34,8.84,14.22,16.48,16a27,27,0,0,0,9.76-.36ZM297.62,537c-7-1.05-11.36-2.94-18.61-8-3-2.12-3.95-2.88-3.95-3.28s1.51-2,5-5.33l5-4.81,1.33,1.31c1.22,1.2,1.61,1.42,4.65,2.53,12.65,4.61,20.73,4.26,24.15-1a8.13,8.13,0,0,0,1.35-5.54c-.33-3.95-2.81-6.45-7.57-7.62-1-.25-3.78-.74-6.15-1.09-7.92-1.16-14.89-3.67-18.73-6.77-4.8-3.88-7.43-12.94-5.66-19.58a23.38,23.38,0,0,1,9.5-12.93c2.95-2.08,4.92-2.91,10.09-4.26l4.8-1.26,3.77.15c7.8.31,13.88,1.74,18.64,4.41a24.85,24.85,0,0,1,5.88,4.71l.92,1.14-4.88,5c-2.69,2.73-5,5-5.1,5.05a5.36,5.36,0,0,1-1.56-1.25,7.82,7.82,0,0,0-3.64-2.16c-4.88-1.76-10.51-2.61-13.91-2.1a11.11,11.11,0,0,0-6.11,3,7.32,7.32,0,0,0-2,5.23c-.08,2-.06,2.08.72,3.24,1.59,2.38,4,3.33,11.48,4.57,10,1.65,16.68,4.7,21.66,9.93a16.18,16.18,0,0,1,4.91,13,23.64,23.64,0,0,1-7.14,15.84A30.54,30.54,0,0,1,309.5,537a51.32,51.32,0,0,1-11.88,0Zm163.92.15a38.63,38.63,0,0,1-30.27-22.57,40.39,40.39,0,0,1,.51-34,38.89,38.89,0,0,1,20-18.57,79,79,0,0,1,14.13-2.61A46.23,46.23,0,0,1,484,463.08c4.85,2.24,10.84,6.09,10.58,6.81-.19.54-9.92,10.83-10.24,10.83a32.89,32.89,0,0,1-3.86-1.92c-6.17-3.36-8.3-4-13.94-3.94a22.89,22.89,0,0,0-10.08,2A25,25,0,0,0,446,485.91,20.35,20.35,0,0,0,443.12,498a27.1,27.1,0,0,0,7,17.46c4.45,4.73,9.66,6.74,16.68,6.43,5.25-.23,8.13-1.1,13.2-4,1-.57,2.43-1.29,3.2-1.62l1.4-.59,4.26,4.27c3.11,3.13,4.42,4.62,4.89,5.57a3.38,3.38,0,0,1,.49,1.52c-.3.49-6.81,4.62-9,5.74a39.39,39.39,0,0,1-11.81,4,64.78,64.78,0,0,1-11.88.31ZM49.6,536.94l-1.18-.09.16-25.59c.09-14.07.16-31.5.16-38.74V459.36H53.5L77.43,483.6c13.17,13.33,24.08,24.24,24.26,24.24s.33-1.52.33-8.58c0-4.72.07-15.63.16-24.24l.16-15.66h15v77.76h-5.69L94.07,519.3c-15.28-15.45-22-22.48-23.83-24.83a33.76,33.76,0,0,0-5.48-4.66l-.9-.46v47.77l-6.54,0c-3.6,0-7.07-.08-7.72-.13Zm83.62-38.74V459.28l14.44.16c7.94.09,20.68.16,28.32.16h13.88v14.16H148.58v16.72l9.4.16c5.17.09,12.13.16,15.48.16h6.08V505h-31v17.76h41v14.4h-56.4Zm95,38.74-1.14-.09L227,505.36l-.06-31.48-12.81-.07-12.82-.06.11-7.07c.06-3.89.17-7.13.24-7.2s15-.05,33.28,0l33.16.16v7c0,3.87,0,7.06-.06,7.09s-5.84.11-12.9.18l-12.84.13-.06,31.5-.06,31.5-6.42,0c-3.53,0-6.94-.08-7.56-.13Zm-165.67-103a14.7,14.7,0,0,1-6-1.52c-3.43-1.8-4.3-5.09-2.72-10.36.32-1.06,3.38-9.43,6.82-18.6s6.75-18.3,7.37-20.28c2.16-6.86,3.64-9.06,7-10.41l1.88-.75H268.62c176.12,0,191.8,0,193.2.37,3,.78,4,1.68,6,5.63,1.6,3.19,3.29,7.77,6.58,17.77,2,6.21,3.79,11,5.33,14.62q5.61,13.17,5.61,16.4c0,3.24-2.88,5.66-7.75,6.53-2,.35-18.83.4-202.37.49-110.09.06-202.54.15-205.44.2s-6.15,0-7.21-.08Zm397.82-11.37a11.8,11.8,0,0,0,5.3-1.74,6,6,0,0,0,2.13-3.75c0-.37-2.53-7.45-5.61-15.73s-6-16.24-6.38-17.69c-1.43-4.91-3.23-7.64-5.45-8.27-2-.55-5.58-.76-10.88-.62-3,.08-83.38.22-178.69.32-166.34.16-173.32.18-173.95.6-.94.61-2.83,3.26-4.22,5.93-1.89,3.62-3.72,8.37-6.75,17.52-1.56,4.68-3.38,10-4,11.82-2,5.35-2.11,7.48-.56,9.32,1.05,1.25,3.56,2.14,6.9,2.43,1.33.12,380.62,0,382.21-.14ZM157.82,365.83a13,13,0,0,1-4.12-1.35c-.74-.47-.82-.62-.73-1.36.42-3.3,6.62-15.83,9.11-18.42l.75-.78h51.44l.81-.55c3.6-2.43,4.65-10.85,4-31.94l-.21-6.44-60.63.06c-56,.05-60.83,0-63.23-.35-5.27-.83-9-2.32-11.12-4.45-3.08-3.11-4.94-8.64-5.88-17.53-.24-2.27-.3-6.32-.22-16.56.14-17.83.15-168.56,0-186-.11-13.83,0-16.57.86-22.49.84-5.73,2-8.46,4.79-11.09s6.77-4.3,12.72-5.09c2-.26,34.7-.34,177.6-.44,96.36-.07,176.19,0,177.41.05a19.92,19.92,0,0,1,8,2,13.93,13.93,0,0,1,4.69,3.54c2.63,2.65,3.84,4.59,4.59,7.37.4,1.44.43,7.81.6,105.82.1,57.35.26,106.65.37,109.56.71,19.81-2,29.1-9.65,33.61a21.46,21.46,0,0,1-7.05,2.16c-3,.44-11.43.5-18.63.12-5.09-.27-109.91-.39-110.57-.13s-.67,1.44-.74,16.2c-.05,12.24,0,13.73.37,15.36.86,3.63,2.63,6.15,4.72,6.71,2.8.76,12.25.89,32.2.46,13.69-.29,14.5-.24,15.91,1s6.66,11.79,8.2,16.58c.63,2,.65,2.12.28,2.68a4.73,4.73,0,0,1-1.54,1.16l-1.15.57-111.6,0c-61.38,0-111.93,0-112.32-.07Zm118.44-42.28c30.42-.18,29.55-.15,31.71-1.25a7.46,7.46,0,0,0,3.33-7.66c-.58-2.16-2.81-3.54-6.58-4.06-1.25-.18-12.63-.26-34.93-.26H236.71l-1.44,1.54c-2.06,2.21-2.81,3.85-2.81,6.18,0,1.66.07,1.94.73,2.88a8.53,8.53,0,0,0,5.39,2.83,41.3,41.3,0,0,0,5.16.09c2-.07,16.61-.2,32.52-.29ZM138.74,280.34v-5.26l-1.34.35c-1.63.43-3.2.35-3.53-.18-.53-.84,0-1.53,1.66-2.22s5-1.3,5.68-1c.37.14.41.8.41,6.88v6.73H160.8l-.33-.92a24.38,24.38,0,0,1-.49-10.51c.44-2.54,1.67-5.32,2.67-6,2.24-1.58,4-2,6-1.41,2.67.78,4.42,3.19,5.43,7.46a22.28,22.28,0,0,1-.21,9.83,7.77,7.77,0,0,0-.43,1.51s14.43,0,32-.1c29.85-.15,31.92-.19,31.68-.57a1.42,1.42,0,0,1-.1-1c.19-.78,2.66-1.81,5.2-2.18s2.64-.33,2.64,1.85v1.81H263l.28-1.61A13.33,13.33,0,0,1,266,278a5.6,5.6,0,0,1,5.84-1.62c2.83.83,4.86,3.76,5.53,8l.16,1H310c21.4,0,32.54-.09,32.64-.24a7.32,7.32,0,0,1,2.53-.24h2.39v-17l-1.34.35c-1.63.43-3.2.35-3.53-.18-.53-.83,0-1.53,1.6-2.2a14.46,14.46,0,0,1,5.34-1.09l.69.08.12,10,.12,10,2.28.07a8.1,8.1,0,0,1,2.5.3c.15.14,8.56.23,22.39.23h22.15V284c0-1.31,0-1.31-.61-1.08a9.18,9.18,0,0,1-3.89.46c-.62-.24-.75-1.31-.24-1.95.3-.37,3.94-1.47,5.89-1.76,1.59-.25,1.73,0,1.73,3v2.61h48v-9.08l-1.34.35c-1.63.43-3.2.35-3.53-.18a1.39,1.39,0,0,1,.49-1.76c.23-.1,1.58-.47,3-.83l2.58-.67.07,6.14c0,3.38.07-44.4.06-106.17s0-108-.06-102.79l-.07,9.53-.86.16a12.4,12.4,0,0,1-4.83-.43,1.17,1.17,0,0,1-.74-1c-.14-1.18.25-1.36,2.87-1.36h2.37V61h-68.3L382,62.25a8.26,8.26,0,0,1-3.17,4.16,7.71,7.71,0,0,1-2.32.69c-2.82.33-4.82-.87-6.28-3.78a10.5,10.5,0,0,1-.85-2c0-.27-1.63-.32-9.49-.32h-9.48l.06,3.9.07,3.9,2.26.07a8,8,0,0,1,2.58.33,1.65,1.65,0,0,1,0,2c-.56.56-6.94,1-9.54.7s-3.41-.68-3.51-1.57c-.13-1.18.25-1.36,2.87-1.36h2.37V61h-74l1,1c1.3,1.42,1.9,2.66,2.59,5.37,1,4,.71,8.85-.73,11.89-1.68,3.55-4.94,5.32-8.11,4.39s-5.11-4.64-5.39-10.58c-.24-5.22,1.05-9.93,3.14-11.44L267,61H174.33l-.14,2.82c-.33,6.63-2.4,9.87-6.7,10.5-4.65.68-7.63-3.65-7.63-11.06V61H141.61l.06,7.5.07,7.5L144,76a8,8,0,0,1,2.58.33,1.65,1.65,0,0,1,0,2c-.56.56-6.94,1-9.54.7s-3.41-.68-3.51-1.57c-.14-1.18.25-1.36,2.87-1.36h2.37V61H95.3v110.7c0,60.88.07,111.43.15,112.32l.16,1.62h43.13v-5.26ZM293,283.79c-1.48-.47-3.33-2.48-4-4.37a19.77,19.77,0,0,1-1.12-8.22c.24-5.35,1.58-8.37,4.54-10.23.88-.56,1.16-.61,3-.54s2.11.17,3,.81c2.59,1.82,4.36,6.39,4.36,11.28,0,4-.95,7-3,9.29a6.7,6.7,0,0,1-6.76,2Zm3.66-3.3c1.51-1,2.62-4.16,2.62-7.43,0-2.66-1.6-8.37-2.66-9.51a1.88,1.88,0,0,0-1.54-.51,1.54,1.54,0,0,0-1.64.78,13,13,0,0,0-2.39,8.22c0,3.61,1.17,7.36,2.67,8.54a2.5,2.5,0,0,0,2.94-.09Zm77,2.34c-2.06-.66-3.77-2.95-4.67-6.27a27.9,27.9,0,0,1-.24-9.44c.46-2.7,1.66-5.45,2.69-6.17,2.24-1.58,4-2,6-1.41,2.62.77,4.27,2.94,5.3,7s.72,8.88-.72,11.93c-1.69,3.58-5.14,5.38-8.32,4.36Zm3.13-3.1c1.69-.88,2.82-3.3,3.15-6.73a14.28,14.28,0,0,0-.88-7c-.75-1.87-2.51-4-3.33-4s-2.62,2.12-3.22,3.72c-1.42,3.8-.95,9.65,1,12.79.95,1.51,1.89,1.84,3.25,1.14Zm-162.25,2.91a5.8,5.8,0,0,1-3.06-2.52c-1.63-2.53-2.3-5.76-2.14-10.26.2-5.39,1.16-7.71,4-9.63a4,4,0,0,1,3.14-1c3.6,0,6,2.41,7.26,7.4a20.66,20.66,0,0,1,0,9c-.83,3.21-2.26,5.38-4.28,6.48a6.76,6.76,0,0,1-4.88.57Zm4-4.24a15.22,15.22,0,0,0,1.74-9.6c-.31-2.43-1.25-5.79-1.74-6.19a5.22,5.22,0,0,0-1.56-.48c-1.52-.27-1.62-.18-2.79,2.36a15.47,15.47,0,0,0-.25,13.12c.81,1.67,1.59,2.27,2.84,2.18.9-.07,1-.18,1.76-1.39Zm-28.78-4.21c-1.48-.47-3.33-2.48-4-4.37a19.77,19.77,0,0,1-1.12-8.22c.24-5.35,1.58-8.37,4.54-10.23.88-.56,1.16-.61,3-.54s2.11.17,3,.81c2.59,1.82,4.36,6.39,4.36,11.28,0,4-.95,7-3,9.29a6.7,6.7,0,0,1-6.76,2Zm3.66-3.3c1.51-1,2.62-4.16,2.62-7.43,0-2.66-1.6-8.37-2.66-9.51a1.88,1.88,0,0,0-1.54-.51,1.54,1.54,0,0,0-1.64.78,13,13,0,0,0-2.39,8.22c0,3.61,1.17,7.36,2.67,8.54a2.5,2.5,0,0,0,2.94-.09Zm229.87,3.35a5.8,5.8,0,0,1-3.06-2.52c-1.63-2.53-2.3-5.76-2.14-10.26.2-5.39,1.16-7.71,4-9.63a4,4,0,0,1,3.14-1c3.6,0,6,2.41,7.26,7.4a20.66,20.66,0,0,1,0,9c-.83,3.21-2.26,5.38-4.28,6.48a6.76,6.76,0,0,1-4.88.57Zm4-4.24a15.22,15.22,0,0,0,1.74-9.6c-.31-2.43-1.25-5.79-1.74-6.19a5.22,5.22,0,0,0-1.56-.48c-1.52-.27-1.62-.18-2.79,2.36a15.47,15.47,0,0,0-.25,13.12c.81,1.67,1.59,2.27,2.84,2.18.9-.07,1-.18,1.76-1.39Zm-316,3a5.8,5.8,0,0,1-3.06-2.52c-1.63-2.53-2.3-5.76-2.14-10.26.2-5.39,1.16-7.71,4-9.63a4,4,0,0,1,3.14-1c3.6,0,6,2.41,7.26,7.4a20.66,20.66,0,0,1,0,9c-.83,3.21-2.26,5.38-4.28,6.48a6.76,6.76,0,0,1-4.88.57Zm4.05-4.24a15.22,15.22,0,0,0,1.74-9.6c-.31-2.43-1.25-5.79-1.74-6.19a5.22,5.22,0,0,0-1.56-.48c-1.52-.27-1.62-.18-2.79,2.36A15.47,15.47,0,0,0,110.8,268c.81,1.67,1.59,2.27,2.84,2.18.9-.07,1-.18,1.76-1.39Zm124.68-.27c-1.75-.86-3.09-3-3.94-6.17a26.38,26.38,0,0,1,0-10.4,8.43,8.43,0,0,1,2.63-4.82c2-1.86,3.76-2.28,6.17-1.47,3.26,1.11,5.48,5.79,5.45,11.49,0,5.5-2,9.82-5.21,11.31a6.26,6.26,0,0,1-5.1.06Zm4.23-3.35a7.61,7.61,0,0,0,2.33-3.34c.31-.82.41-1.92.42-4.56,0-3.06,0-3.65-.51-4.81a8.32,8.32,0,0,0-2.82-3.84c-1.37-.84-1.78-.61-2.9,1.62-2.28,4.6-2.47,9.31-.54,13.43,1.18,2.51,2.16,2.87,4,1.5ZM398.62,267a5.19,5.19,0,0,1-2.32-1.67c-1.76-1.93-2.6-4.37-2.89-8.45l-.15-2.21-1.1.68C387.83,258,379.5,258.78,373,257c-4.33-1.17-10.8-5.29-15.44-9.82l-2.13-2.08-.27.85c-1.27,3.93-3.88,6.25-7,6.25s-5.2-2.09-6.41-6.67a18.15,18.15,0,0,1-.49-5.08c0-5,.8-7.79,2.92-10l1.18-1.2-2.41-4.44c-1.32-2.45-3-5.43-3.69-6.63s-2-3.79-2.88-5.76c-2.31-5.17-4.12-8.57-5.06-9.48-.51-.49-.81-.66-.81-.44,0,1.18-2.21,4.48-4.95,7.43l-1,1.08-.08,7.72-.08,7.73,1-.13a8.11,8.11,0,0,1,2.34.15c1.62.33,2.05.86,1.6,1.95a7.09,7.09,0,0,1-.32.71c-.3.17-8.44.34-9.89.21-2.9-.26-3-.3-3-1.53s.16-1.33,3.18-1.33h2.1v-6.5a56,56,0,0,0-.18-6.42c-.1,0-1.05.53-2.1,1.07a24.31,24.31,0,0,1-18.6,2,21.65,21.65,0,0,1-8.14-4.85,1.81,1.81,0,0,0-1.52-.62c-1.37,0-1.86-.35-1.86-1.32a1.2,1.2,0,0,1,.38-1c.31-.18.16-.51-1-2.11a17.29,17.29,0,0,1-3.24-6.84l-.3-1.66H254.9v.62a17.06,17.06,0,0,1-1.43,5,23.13,23.13,0,0,1-4.25,6.1l-1.55,1.65.63.95c1.55,2.34,2.43,6.87,2,10.4-.72,6.3-3.61,10-7.78,10-3.18,0-5.2-2.09-6.41-6.67a19,19,0,0,1-.5-5.22l0-3.38-1,.19a26.62,26.62,0,0,1-8.44-.28,28.34,28.34,0,0,1-10.71-6,18.88,18.88,0,0,0-2.2-1.71c-1.23-.74-2.57-2.86-3.24-5.1a6.67,6.67,0,0,0-1-2.21c-.42-.38-.46-.32-1,1.35-.7,2.31-2.25,5.23-5.27,9.89A136.8,136.8,0,0,0,195.4,227l-1.46,2.91V235l.64-.16a8.66,8.66,0,0,1,2.19,0c2.22.24,3,1.19,2,2.27-.45.44-.8.48-4.74.48h-4.27l-1.15,1.92c-3.2,5.34-8.41,11.07-12.64,13.89a23.41,23.41,0,0,1-14.64,4.37A31.3,31.3,0,0,1,148.12,255a19.65,19.65,0,0,0-1.93-.81,3.38,3.38,0,0,0-.68,1.07,7,7,0,0,1-6.16,4.21c-3.18,0-5.19-2.1-6.41-6.68a26.13,26.13,0,0,1,0-10.46,14.85,14.85,0,0,1,1-2.88,2.32,2.32,0,0,0,.24-2.3,52.53,52.53,0,0,1-1-8.71,32.6,32.6,0,0,1,.94-7.21c.21-.54.16-.85-.24-1.63a17.35,17.35,0,0,1-1.48-7.77c0-5.06.77-7.79,2.95-10.08,1.35-1.42,1.37-1.47,1.66-3.48a29,29,0,0,1,.87-3.86c.32-1,.89-3,1.27-4.47l.69-2.65-1.95-.15a9.86,9.86,0,0,1-4.17-.93,1.58,1.58,0,0,1,0-1.81,6.17,6.17,0,0,1,2.64-.29h2.35v-17l-1.34.35c-1.63.43-3.2.35-3.53-.18-.53-.84,0-1.53,1.66-2.22s5-1.3,5.69-1c.36.14.4.78.4,6.56,0,3.52,0,6.35.12,6.29s.55-2.92,1.08-6.34A156.25,156.25,0,0,1,146,154.13a18.77,18.77,0,0,0,.91-5.88c0-1.9-.34-4.35-.42-3.29a13.15,13.15,0,0,1-2.35,4.33c-2.49,2.76-6.86,2.89-8.92.27-1.94-2.46-2.72-5.35-2.72-10,0-3.56.44-6,1.44-8a10.28,10.28,0,0,1,3.76-3.54,6.23,6.23,0,0,1,5.68.86c1.46,1,2.93,4,3.67,7.28.14.62.32.3,1.43-2.64,4.28-11.33,9.54-19.67,14.46-23l1.24-.82-.7-.47c-3.86-2.58-5.11-13-2.28-19a5.38,5.38,0,0,1,3.18-3.17c3.2-1.63,6.75-.19,8.46,3.41.38.81.75,1.66.83,1.9.13.39.19.39.7.06,2-1.34,6.22-1.93,12.33-1.75l4.4.13v-17l-.61.23a9.18,9.18,0,0,1-3.89.46c-.61-.24-.75-1.31-.24-2,.3-.37,4-1.46,5.89-1.76s1.73-.78,1.73,10.19v9.77h1.38c2,0,8.4.53,11.31,1a27.28,27.28,0,0,1,7.77,2.29l1.38.69V82.5l-.54.15c-.3.08-1.27.27-2.16.42-1.27.22-1.69.21-2,0a1.52,1.52,0,0,1-.06-1.87A27,27,0,0,1,214.55,80c2.36-.67,3.31-.84,3.6-.66.52.33.68,3,.72,11.67,0,6.46,0,6.69.55,7.38a1.61,1.61,0,0,0,1.07.71,10.91,10.91,0,0,1,1.76.26c1.45.31,1.88.87,1.45,1.89-.23.55-.48.71-1.31.83l-1,.16.33,1.25a39.62,39.62,0,0,1,.82,6.68c0,1,.08,1.16.9,1.7a15.9,15.9,0,0,1,4,3.94l.61,1h13.88v-12.2l-1.34.35c-1.63.43-3.2.35-3.53-.18-.53-.83,0-1.53,1.6-2.2a14.46,14.46,0,0,1,5.34-1.09l.69.08.12,7.56.12,7.56,9.88.06,9.89.06-.62-1.5c-1.78-4.37-1.66-11.37.27-15.45a5.38,5.38,0,0,1,3.18-3.17c3.07-1.56,6.5-.3,8.33,3.06,2.25,4.13,2.45,11.58.42,15.64l-.71,1.42h8.57c5.82,0,8.66-.09,8.83-.26a4.65,4.65,0,0,1,2.27-.11c1.11.08,5.19.2,9.07.27l7.07.12,1.73-1.72,1.73-1.72.1-3.75c.17-6,1-8.3,3.92-10.22a11,11,0,0,0,2.22-2c1.58-2.07,4.66-3.91,8.29-5,3.14-.91,6.94-1.36,12.82-1.51l5.34-.14v-3l-1.34.35c-1.63.43-3.2.35-3.53-.18-.53-.83,0-1.53,1.6-2.2a14.46,14.46,0,0,1,5.34-1.09l.69.08.12,3,.12,3,6,.12a56.4,56.4,0,0,1,6.48.34,17.79,17.79,0,0,1,4.54,3.35c.78.81,1.34,1.25,1.24,1a23.18,23.18,0,0,1-.31-3.36A19.44,19.44,0,0,1,370,83.13,5.38,5.38,0,0,1,373.14,80c3.07-1.56,6.5-.3,8.33,3.06a19.5,19.5,0,0,1,1.82,8.39c0,6.71-2.48,10.83-7,11.67a6.18,6.18,0,0,1-4-.91l-.64-.51.18.71a24.26,24.26,0,0,1,.85,4.95v1.12l2,1a20.8,20.8,0,0,1,3.56,2.28c5.1,4.22,10.25,13.08,13.94,24l1.22,3.6-.16,2.66c-.47,8.13-.47,8.19.06,10.16.28,1,1,4.54,1.6,7.8,1.06,5.76,1.76,8.62,2.72,11.11.26.66.56,1.19.67,1.19s1-.15,2-.32c1.37-.25,1.82-.26,2.1,0s.35,1.78.35,10.13v9.84l.64-.16a8.66,8.66,0,0,1,2.19,0c2.22.24,3.05,1.19,2,2.27-.42.42-.8.48-3,.48a10.29,10.29,0,0,0-2.52.15c0,1.14,1.8,13.93,2.16,15.34A78.72,78.72,0,0,1,406,221.28c.2,2.18.42,4.52.49,5.21.09,1,.22,1.28.6,1.4a1.27,1.27,0,0,1,0,2.38c-.38.12-.46.5-.6,2.85a21.17,21.17,0,0,1-2.13,8.58L403.31,244l1,.73c1.86,1.39,3.47,5,4,9,.6,4.44-.8,9.43-3.31,11.84a7,7,0,0,1-6.35,1.5Zm3.66-3.3c1.51-1,2.62-4.16,2.62-7.44,0-3.11-2-9.77-3-9.77-.18,0-.57.35-.87.78a31.9,31.9,0,0,1-2.32,2.61l-1.77,1.84-.22,1.76a17.52,17.52,0,0,0,.72,7,8,8,0,0,0,2.11,3.52,2.74,2.74,0,0,0,2.73-.28Zm-261.15-8.13a8.42,8.42,0,0,0,2.17-2.88,25.37,25.37,0,0,0-2.48-2.66,15.07,15.07,0,0,1-3.42-4.31c-.56-1.11-1-1.73-1.1-1.56a14,14,0,0,0-.43,2.25,13.62,13.62,0,0,0,1.57,8.41C138.5,256.64,139.42,256.83,141.13,255.56Zm208.78-7.18a7.73,7.73,0,0,0,2.74-5.42c.13-1.17.08-1.33-.84-2.64-.54-.77-1.87-2.89-3-4.7l-2-3.3-.72,1.62c-2,4.56-2.12,9-.27,12.94,1.18,2.51,2.16,2.87,4,1.5Zm-105.6-19.2a7.61,7.61,0,0,0,2.33-3.34c.31-.82.41-1.92.42-4.56,0-3.1,0-3.64-.53-4.87a9.3,9.3,0,0,0-1.09-2l-.54-.62-1.66,1c-.91.53-2.05,1.12-2.51,1.32-1,.4-1.26,1.09-1.68,4.06a13.75,13.75,0,0,0,1.59,8.29C241.7,230.24,242.62,230.43,244.31,229.18Zm155.55-50.72c0-3.59,0-3.69-.49-3.57a1.22,1.22,0,0,0-.59.3c-.25.41.66,7,1,7a36.24,36.24,0,0,0,.1-3.7ZM141.11,147.58a7.61,7.61,0,0,0,2.33-3.34c.31-.82.41-1.92.42-4.56,0-3.06,0-3.65-.51-4.81a8.32,8.32,0,0,0-2.82-3.84c-1.37-.84-1.78-.61-2.9,1.62-2.28,4.6-2.47,9.31-.54,13.43,1.18,2.51,2.16,2.87,4,1.5Zm130-31c1.75-.73,2.95-3.2,3.29-6.75a14.28,14.28,0,0,0-.88-7c-.75-1.87-2.51-4-3.33-4s-2.62,2.12-3.22,3.72c-2,5.3-.11,14.11,3.05,14.26a3.79,3.79,0,0,0,1.09-.31Zm-103.76-11a27.46,27.46,0,0,1,3.19-8.92,1.77,1.77,0,0,0,.35-1.79c-.73-2.65-2.78-5.55-3.91-5.55-.78,0-2.62,2.13-3.21,3.71-1.42,3.81-.95,9.66,1,12.8.65,1,1.2,1.47,1.87,1.48.31,0,.46-.38.68-1.73Zm209.5-5.81c1.69-.88,2.82-3.3,3.15-6.73a14.28,14.28,0,0,0-.88-7c-.75-1.87-2.51-4-3.33-4s-2.62,2.12-3.22,3.71c-1.42,3.81-.95,9.66,1,12.8.95,1.51,1.89,1.84,3.25,1.14ZM320.15,265.84a5.8,5.8,0,0,1-3.06-2.52c-1.63-2.53-2.3-5.76-2.14-10.26.2-5.39,1.16-7.71,4-9.63a4,4,0,0,1,3.14-1c3.6,0,6,2.41,7.26,7.4a20.66,20.66,0,0,1,0,9c-.83,3.21-2.26,5.38-4.28,6.48a6.76,6.76,0,0,1-4.88.57Zm4.05-4.24a15.22,15.22,0,0,0,1.74-9.6c-.31-2.43-1.25-5.79-1.74-6.19a5.22,5.22,0,0,0-1.56-.48c-1.52-.27-1.62-.18-2.79,2.36a15.47,15.47,0,0,0-.25,13.12c.81,1.67,1.59,2.27,2.84,2.18.9-.07,1-.18,1.76-1.39ZM268,263.66c-.13-.05-.89-.23-1.68-.4-2.06-.43-2.28-.59-2.28-1.54,0-1.12.47-1.32,3.1-1.32h2.18v-17l-1.38.32a6.51,6.51,0,0,1-3.28.19c-.48-.18-.51-1.38-.05-1.83s5.22-1.7,6.49-1.73h1l.06,10,.06,10h2.26c2.62,0,3.16.28,2.92,1.52a3.22,3.22,0,0,1-.23.81c-.48.48-8.25,1.27-9.15.93Zm182-3.51c-2-.61-3.78-2.73-4.86-5.9a19.33,19.33,0,0,1-.36-9.71c1-4.07,3-6.79,5.41-7.39,1.78-.45,1.82-.43,1.82,1v1.3l-1,.46c-2.31,1-3.19,3.15-3.14,7.61a18.38,18.38,0,0,0,2,8.54c.58,1.16.86,1.46,1.43,1.57s.72.2.72,1.44,0,1.29-.66,1.27a7.2,7.2,0,0,1-1.35-.23ZM289.4,246.94a1.48,1.48,0,0,1,0-2.13,9.63,9.63,0,0,1,2.64-.25h2.18v-17l-.61.23a9.18,9.18,0,0,1-3.89.46c-.62-.24-.75-1.31-.24-1.95.3-.37,3.94-1.47,5.89-1.76s1.73-.79,1.73,10.26v9.84l.64-.16a8.66,8.66,0,0,1,2.19,0c2.22.24,3,1.19,2,2.27-.46.45-.8.48-6.3.47a40.81,40.81,0,0,1-6.24-.25Zm-76-.72c-2.74-.24-2.87-.31-2.87-1.53s.16-1.33,3.18-1.33h2.1V226.5l-.54.15c-.3.08-1.27.27-2.16.42-1.27.22-1.69.21-2,0a1.52,1.52,0,0,1-.06-1.87,27,27,0,0,1,3.51-1.15c2.37-.67,3.31-.84,3.6-.66.56.35.78,4.6.7,13.08l-.07,6.89,1-.13a8.11,8.11,0,0,1,2.34.15c1.62.33,2,.86,1.6,1.93-.24.6-.44.7-1.52.81a65.43,65.43,0,0,1-8.8.13Zm208.8-8.4c-2.74-.24-2.87-.31-2.87-1.53s.16-1.33,3.18-1.33h2.1V218.1l-.54.15c-.3.08-1.27.27-2.16.42-1.27.22-1.69.21-2,0a1.52,1.52,0,0,1-.06-1.87,27,27,0,0,1,3.51-1.15c2.37-.67,3.31-.84,3.6-.66.56.35.78,4.6.7,13.08l-.07,6.89,1-.13a8.11,8.11,0,0,1,2.34.15c1.62.33,2.05.86,1.6,1.93-.24.6-.44.7-1.52.81a65.43,65.43,0,0,1-8.8.13Zm-312-1.2c-2.74-.24-2.87-.31-2.87-1.53s.16-1.33,3.18-1.33h2.1V216.9l-.54.15c-.3.08-1.27.27-2.16.42-1.27.22-1.69.21-2,0a1.52,1.52,0,0,1-.06-1.87,27,27,0,0,1,3.51-1.15c2.37-.67,3.31-.84,3.6-.66.56.35.78,4.6.7,13.08l-.07,6.89,1-.13a8.11,8.11,0,0,1,2.34.15c1.62.33,2,.86,1.6,1.93-.24.6-.44.7-1.52.81a65.43,65.43,0,0,1-8.8.13Zm157.81-9c-.13,0-.89-.23-1.68-.4-2.06-.43-2.28-.59-2.28-1.54,0-1.12.47-1.32,3.1-1.32h2.18v-17l-1.38.32a6.51,6.51,0,0,1-3.28.19c-.48-.18-.51-1.38-.05-1.83s5.22-1.7,6.49-1.73h1l.06,10,.06,10h2.26c2.62,0,3.16.28,2.92,1.52a3.22,3.22,0,0,1-.23.81c-.48.48-8.25,1.27-9.15.93Zm182-3.51c-2-.61-3.78-2.73-4.86-5.9a19.33,19.33,0,0,1-.36-9.71c1-4.07,3-6.79,5.41-7.39,1.78-.45,1.82-.43,1.82,1v1.3l-1,.46c-2.31,1-3.19,3.15-3.14,7.61a18.38,18.38,0,0,0,2,8.54c.58,1.16.86,1.46,1.43,1.57s.72.2.72,1.44,0,1.29-.66,1.27a7.2,7.2,0,0,1-1.35-.23Zm-26.58-21.91c-3.59-1.34-5.47-6-5.2-12.92.21-5.25,1.19-7.59,4-9.49a4,4,0,0,1,3.14-1c3.6,0,6,2.42,7.25,7.4.9,3.49.49,8.9-.88,11.6a9.52,9.52,0,0,1-3.4,3.86,6.7,6.7,0,0,1-4.89.58Zm4-4.24a15.22,15.22,0,0,0,1.74-9.6c-.31-2.43-1.25-5.79-1.74-6.19a5.22,5.22,0,0,0-1.56-.48c-1.52-.27-1.62-.18-2.79,2.36a15.47,15.47,0,0,0-.25,13.12c.81,1.67,1.59,2.27,2.84,2.18.9-.07,1-.18,1.76-1.39Zm-316,3c-3.59-1.34-5.47-6-5.2-12.92.21-5.25,1.19-7.59,4-9.49a4,4,0,0,1,3.14-1c3.6,0,6,2.42,7.25,7.4.9,3.49.49,8.9-.88,11.6a9.52,9.52,0,0,1-3.4,3.86,6.7,6.7,0,0,1-4.89.58Zm4.05-4.24a15.22,15.22,0,0,0,1.74-9.6c-.31-2.43-1.25-5.79-1.74-6.19a5.22,5.22,0,0,0-1.56-.48c-1.52-.27-1.62-.18-2.79,2.36A15.47,15.47,0,0,0,110.8,196c.81,1.67,1.59,2.27,2.84,2.18.9-.07,1-.18,1.76-1.39ZM447,187.89c-1.22-.29-1.58-.61-1.58-1.39,0-1.07.38-1.22,2.93-1.22h2.35v-17l-1.34.35c-1.63.43-3.2.35-3.53-.18a1.39,1.39,0,0,1,.49-1.76c.23-.1,1.58-.47,3-.84l2.58-.66v22.67l-.54.15A14.1,14.1,0,0,1,447,187.89Zm-24.87-22.07c-2.74-.24-2.87-.31-2.87-1.53s.16-1.33,3.18-1.33h2.1V146.1l-.54.15c-.3.08-1.27.27-2.16.42-1.27.22-1.69.21-2,0a1.52,1.52,0,0,1-.06-1.87,27,27,0,0,1,3.51-1.15c2.37-.67,3.31-.84,3.6-.66.56.35.78,4.6.7,13.08l-.07,6.89,1-.13a8.11,8.11,0,0,1,2.34.15c1.62.33,2.05.86,1.6,1.93-.24.6-.44.7-1.52.81a65.43,65.43,0,0,1-8.8.13Zm-312-1.2c-2.74-.24-2.87-.31-2.87-1.53s.16-1.33,3.18-1.33h2.1V144.9l-.54.15c-.3.08-1.27.27-2.16.42-1.27.22-1.69.21-2,0a1.52,1.52,0,0,1-.06-1.87,27,27,0,0,1,3.51-1.15c2.37-.67,3.31-.84,3.6-.66.56.35.78,4.6.7,13.08l-.07,6.89,1-.13a8.11,8.11,0,0,1,2.34.15c1.62.33,2,.86,1.6,1.93-.24.6-.44.7-1.52.81a65.43,65.43,0,0,1-8.8.13ZM398.62,159c-1.48-.47-3.33-2.48-4.05-4.37a19.77,19.77,0,0,1-1.12-8.22c.24-5.35,1.58-8.37,4.54-10.23.88-.56,1.16-.61,3-.54s2.11.17,3,.81c2.59,1.82,4.36,6.39,4.36,11.28,0,4-.95,7-3,9.29A6.7,6.7,0,0,1,398.62,159Zm3.66-3.3c1.51-1,2.62-4.16,2.62-7.43,0-2.66-1.6-8.37-2.66-9.51a1.88,1.88,0,0,0-1.54-.51,1.54,1.54,0,0,0-1.64.78,13,13,0,0,0-2.39,8.22c0,3.61,1.17,7.36,2.67,8.54a2.5,2.5,0,0,0,2.94-.09Zm47.65-3.54c-2-.61-3.78-2.73-4.86-5.9a19.33,19.33,0,0,1-.36-9.71c1-4.07,3-6.79,5.41-7.39,1.78-.45,1.82-.43,1.82,1v1.3l-1,.46c-2.31,1-3.19,3.15-3.14,7.61a18.38,18.38,0,0,0,2,8.54c.58,1.16.86,1.46,1.43,1.57s.72.2.72,1.44,0,1.29-.66,1.27a7.2,7.2,0,0,1-1.35-.23Zm-26.58-21.91a5.8,5.8,0,0,1-3.06-2.52c-1.63-2.53-2.3-5.76-2.14-10.26.2-5.39,1.16-7.71,4-9.63a4,4,0,0,1,3.14-1c3.6,0,6,2.41,7.26,7.4a20.66,20.66,0,0,1,0,9c-.83,3.21-2.26,5.38-4.28,6.48a6.76,6.76,0,0,1-4.88.57Zm4-4.24a15.22,15.22,0,0,0,1.74-9.6c-.31-2.43-1.25-5.79-1.74-6.19a5.22,5.22,0,0,0-1.56-.48c-1.52-.27-1.62-.18-2.79,2.36a15.47,15.47,0,0,0-.25,13.12c.81,1.67,1.59,2.27,2.84,2.18.9-.07,1-.18,1.76-1.39Zm-316,3a5.8,5.8,0,0,1-3.06-2.52c-1.63-2.53-2.3-5.76-2.14-10.26.2-5.39,1.16-7.71,4-9.63a4,4,0,0,1,3.14-1c3.6,0,6,2.41,7.26,7.4a20.66,20.66,0,0,1,0,9c-.83,3.21-2.26,5.38-4.28,6.48a6.76,6.76,0,0,1-4.88.57Zm4.05-4.24a15.22,15.22,0,0,0,1.74-9.6c-.31-2.43-1.25-5.79-1.74-6.19a5.22,5.22,0,0,0-1.56-.48c-1.52-.27-1.62-.18-2.79,2.36A15.47,15.47,0,0,0,110.8,124c.81,1.67,1.59,2.27,2.84,2.18.9-.07,1-.18,1.76-1.39ZM398.62,123c-1.48-.47-3.33-2.48-4.05-4.37a19.77,19.77,0,0,1-1.12-8.22c.24-5.35,1.58-8.37,4.54-10.23.88-.56,1.16-.61,3-.54s2.11.17,3,.81c2.59,1.82,4.36,6.39,4.36,11.28,0,4-.95,7-3,9.29A6.7,6.7,0,0,1,398.62,123Zm3.66-3.3c1.51-1,2.62-4.16,2.62-7.43,0-2.66-1.6-8.37-2.66-9.51a1.88,1.88,0,0,0-1.54-.51,1.54,1.54,0,0,0-1.64.78,13,13,0,0,0-2.39,8.22c0,3.61,1.17,7.36,2.67,8.54a2.5,2.5,0,0,0,2.94-.09Zm44.76-3.8c-1.22-.29-1.58-.61-1.58-1.39,0-1.07.38-1.22,2.93-1.22h2.35v-17l-1.34.35c-1.63.43-3.2.35-3.53-.18a1.39,1.39,0,0,1,.49-1.76c.23-.1,1.58-.47,3-.84l2.58-.66v22.67l-.54.15A14.1,14.1,0,0,1,447,115.89Zm-310.92-1c-1.86-.31-2.53-.69-2.62-1.49-.14-1.18.25-1.36,2.87-1.36h2.37v-17l-1.34.35c-1.63.43-3.2.35-3.53-.18-.53-.83,0-1.53,1.6-2.2A14.46,14.46,0,0,1,140.81,92l.69.08.12,10,.12,10L144,112a8,8,0,0,1,2.58.33,1.65,1.65,0,0,1,0,1.94,9.71,9.71,0,0,1-3.42.62,25.53,25.53,0,0,1-7,0Zm153.28-12a1.48,1.48,0,0,1,0-2.13,9.63,9.63,0,0,1,2.64-.25h2.18v-17l-.61.23a9.18,9.18,0,0,1-3.89.46c-.62-.24-.75-1.31-.24-2,.3-.37,3.94-1.47,5.89-1.76s1.73-.79,1.73,10.26v9.84l.64-.16a8.66,8.66,0,0,1,2.19,0c2.22.24,3,1.19,2,2.27-.46.45-.8.48-6.3.47a40.81,40.81,0,0,1-6.24-.25Zm132.77-9.12c-2.74-.24-2.87-.31-2.87-1.53s.16-1.33,3.18-1.33h2.1V74.1l-.54.15c-.3.08-1.27.27-2.16.42-1.27.22-1.69.21-2,0a1.52,1.52,0,0,1-.06-1.87,27,27,0,0,1,3.51-1.15c2.37-.67,3.31-.84,3.6-.66.56.35.78,4.6.7,13.08l-.07,6.89,1-.13a8.11,8.11,0,0,1,2.34.15c1.62.33,2.05.86,1.6,1.93-.24.6-.44.7-1.52.81a65.43,65.43,0,0,1-8.8.13Zm-312-1.2c-2.74-.24-2.87-.31-2.87-1.53s.16-1.33,3.18-1.33h2.1V72.9l-.54.15c-.3.08-1.27.27-2.16.42-1.27.22-1.69.21-2,0a1.52,1.52,0,0,1-.06-1.87,27,27,0,0,1,3.51-1.15c2.37-.67,3.31-.84,3.6-.66.56.35.78,4.6.7,13.08l-.07,6.89,1-.13a8.11,8.11,0,0,1,2.34.15c1.62.33,2,.86,1.6,1.93-.24.6-.44.7-1.52.81a65.43,65.43,0,0,1-8.8.13Zm129.15-4.09c-1.86-.31-2.53-.69-2.62-1.49-.14-1.18.25-1.36,2.87-1.36h2.37v-17L240.6,69c-1.63.43-3.2.35-3.53-.18-.53-.83,0-1.53,1.6-2.2A14.46,14.46,0,0,1,244,65.56l.69.08.12,10,.12,10,2.26.07a8,8,0,0,1,2.58.33,1.65,1.65,0,0,1,0,1.94,9.71,9.71,0,0,1-3.42.62,25.53,25.53,0,0,1-7,0ZM395,86.14A1.48,1.48,0,0,1,395,84a9.63,9.63,0,0,1,2.64-.25h2.18v-17l-.61.23a9.18,9.18,0,0,1-3.89.46c-.62-.24-.75-1.31-.24-2,.3-.37,3.94-1.46,5.89-1.76s1.73-.79,1.73,10.26v9.84l.64-.16a8.66,8.66,0,0,1,2.19,0c2.22.24,3.05,1.19,2,2.27-.46.45-.8.48-6.3.47a40.81,40.81,0,0,1-6.24-.25Zm-76-.72c-2.74-.24-2.87-.31-2.87-1.53s.16-1.33,3.18-1.33h2.1V65.7l-.54.15c-.3.08-1.27.27-2.16.42-1.27.22-1.69.21-2,0a1.52,1.52,0,0,1-.06-1.87,27,27,0,0,1,3.51-1.15c2.37-.67,3.31-.84,3.6-.66.56.35.78,4.6.7,13.08l-.07,6.89,1-.13a8.11,8.11,0,0,1,2.34.15c1.62.33,2.05.86,1.6,1.93-.24.6-.44.7-1.52.81a65.43,65.43,0,0,1-8.8.13Zm-149,199.52a12.81,12.81,0,0,0,1.21-4.74c.39-4-.54-7.47-2.57-9.73-1.4-1.55-1.87-1.55-3.28,0-2.81,3.12-3.22,9.2-1,14.69.15.36.52.42,2.74.42h2.58l.31-.66Zm72,.08c0-.28-.17-.3-.9-.11-1.43.37-1.45.41-.24.43.83,0,1.14-.07,1.14-.32Zm32.4.11a13.57,13.57,0,0,0-1.1-3.89c-.81-1.6-1.57-2.12-3.1-2.12a2.87,2.87,0,0,0-2.88,1.9,20.38,20.38,0,0,0-1.08,4.16,23.24,23.24,0,0,0,4.08.18,16.91,16.91,0,0,0,4.08-.23ZM271.2,80.53c1.69-.88,2.82-3.3,3.15-6.73a14.28,14.28,0,0,0-.88-7c-.75-1.87-2.51-4-3.33-4s-2.62,2.12-3.22,3.72c-1.42,3.8-.95,9.65,1,12.79.95,1.51,1.89,1.84,3.25,1.14ZM167.93,70.82c2-.93,3-3.07,3.15-7.16l.12-2.7h-8.28l.17,1.86c.31,3.26,1.46,6.91,2.51,8,.61.61,1.05.62,2.33,0Zm208.57-7a5.42,5.42,0,0,0,2.39-2.2l.34-.66h-6.5l.5,1c1,1.94,1.83,2.42,3.27,1.87Z" transform="translate(-48.42 -41.01)"/></g></svg>