<svg id="svg5321" xmlns="http://www.w3.org/2000/svg" width="503.6" height="72.35" viewBox="0 0 503.6 72.35"><defs><style>.cls-1{fill:#fff;}</style></defs><title>logo-horizontal</title><g id="layer1"><path id="path5334" class="cls-1" d="M405.47,110.23A31.42,31.42,0,0,1,392,104.92a46.34,46.34,0,0,1-9.29-9.22,38.24,38.24,0,0,1-7.09-25.27,35.75,35.75,0,0,1,10.42-21.91A33.22,33.22,0,0,1,395,42a19.22,19.22,0,0,1,7.63-2.37c1.65-.24,3.59-.59,4.32-.79a14.35,14.35,0,0,1,6-.3C428.15,40,440.41,48.94,445.23,62c2.71,7.33,2.68,15.7-.08,24-3.68,11.06-10.76,18-22.13,21.84-6.4,2.15-12.73,3-17.55,2.39Zm9.81-13.92a22.25,22.25,0,0,0,10.42-5.75,20.74,20.74,0,0,0,4.65-6.48,24,24,0,0,0,1.42-16.66,19.78,19.78,0,0,0-5.17-9c-3.82-3.93-8.61-6-14.81-6.54a13.67,13.67,0,0,0-5.46.41,26.84,26.84,0,0,0-4,1.09,23.31,23.31,0,0,0-6.23,4.49,21.38,21.38,0,0,0-6.23,14.93,22.64,22.64,0,0,0,1.18,9.15c2.55,7.69,8.15,13.11,15.19,14.72a25.07,25.07,0,0,0,9-.33Zm-81.66,13.58c-6.43-1-10.47-2.71-17.15-7.38-2.79-2-3.65-2.66-3.65-3s1.4-1.83,4.59-4.91l4.6-4.44,1.22,1.21c1.13,1.11,1.49,1.3,4.29,2.33,11.66,4.25,19.12,3.93,22.27-1A7.54,7.54,0,0,0,351,87.62c-.31-3.65-2.59-5.94-7-7-.92-.23-3.48-.68-5.67-1-7.3-1.07-13.73-3.39-17.26-6.24-4.44-3.58-6.85-11.94-5.23-18.06a21.59,21.59,0,0,1,8.77-11.92c2.72-1.92,4.53-2.69,9.3-3.94l4.42-1.15,3.49.13c7.18.29,12.79,1.61,17.18,4.07a23.14,23.14,0,0,1,5.42,4.34l.85,1-4.5,4.58c-2.48,2.52-4.6,4.62-4.7,4.66A4.87,4.87,0,0,1,354.68,56a7.08,7.08,0,0,0-3.35-2c-4.51-1.62-9.7-2.41-12.84-1.93a10.24,10.24,0,0,0-5.63,2.72A6.8,6.8,0,0,0,331,59.58c-.08,1.82-.06,1.91.66,3,1.47,2.2,3.68,3.08,10.59,4.22,9.26,1.52,15.38,4.33,20,9.16a14.9,14.9,0,0,1,4.53,11.94,21.81,21.81,0,0,1-6.58,14.6,28.2,28.2,0,0,1-15.6,7.44,47.28,47.28,0,0,1-11,0Zm151.16.14a35.64,35.64,0,0,1-27.91-20.81,37.2,37.2,0,0,1,.47-31.35,35.86,35.86,0,0,1,18.43-17.13,73.13,73.13,0,0,1,13-2.41,42.63,42.63,0,0,1,16.73,3.43c4.48,2.07,10,5.62,9.76,6.28-.18.5-9.15,10-9.44,10a29.35,29.35,0,0,1-3.57-1.77c-5.68-3.1-7.65-3.66-12.85-3.63a21.08,21.08,0,0,0-9.3,1.84,23,23,0,0,0-9.7,8.34A18.67,18.67,0,0,0,467.8,74a25,25,0,0,0,6.47,16.09c4.1,4.36,8.91,6.22,15.38,5.94,4.84-.22,7.5-1,12.17-3.67a32.85,32.85,0,0,1,3-1.49l1.29-.55L510,94.25c2.87,2.89,4.08,4.26,4.51,5.14a3.26,3.26,0,0,1,.46,1.4,69.43,69.43,0,0,1-8.33,5.29,36.27,36.27,0,0,1-10.89,3.66,60.07,60.07,0,0,1-11,.29Zm-379.86-.16-1.09-.08.15-23.6c.08-13,.14-29,.14-35.72V38.33h4.39l22.07,22.35C142.72,73,152.79,83,153,83s.31-1.39.31-7.91c0-4.35.06-14.41.14-22.35l.15-14.44h13.87V110h-5.25L145.92,93.6c-14.08-14.24-20.31-20.73-22-22.89a30.86,30.86,0,0,0-5-4.3l-.83-.43V110l-6,0c-3.32,0-6.52-.07-7.12-.12ZM182,74.15V38.26l13.31.14c7.32.08,19.08.15,26.12.15h12.8V51.61H196.19V67l8.67.14c4.76.09,11.19.15,14.27.15h5.61V80.38H196.19V96.76H234V110H182Zm87.58,35.72-1.05-.08-.06-29-.05-29-11.82-.06-11.81-.06.1-6.52c.06-3.59.15-6.58.22-6.64s13.87,0,30.69,0l30.57.14v6.5c0,3.57,0,6.51,0,6.54s-5.39.1-11.9.16l-11.84.12L282.56,81l-.06,29-5.92,0c-3.26,0-6.39-.07-7-.12Zm-256.2-.45a2.54,2.54,0,0,1-1.08-.28c-.62-.32-.78-.92-.49-1.88.05-.19.61-1.71,1.23-3.38s1.23-3.32,1.34-3.68c.39-1.24.66-1.64,1.28-1.89l.34-.14h34.8c32,0,34.83,0,35.09.07.55.14.72.3,1.08,1a25.91,25.91,0,0,1,1.2,3.23c.37,1.13.68,2,1,2.65a11.82,11.82,0,0,1,1,3c0,.59-.52,1-1.41,1.19-.36.06-3.41.07-36.74.09l-37.31,0c-.53,0-1.12,0-1.31,0Zm72.24-2.07a2.06,2.06,0,0,0,1-.31,1.09,1.09,0,0,0,.39-.68c0-.07-.46-1.36-1-2.86s-1.08-3-1.16-3.21c-.26-.89-.58-1.39-1-1.5a7.88,7.88,0,0,0-2-.12c-.54,0-15.14,0-32.45.06-30.21,0-31.47,0-31.59.11a3.84,3.84,0,0,0-.77,1.08,22.71,22.71,0,0,0-1.22,3.18c-.28.85-.61,1.82-.74,2.15-.36,1-.38,1.35-.1,1.69a1.91,1.91,0,0,0,1.25.44c.25,0,69.12,0,69.41,0ZM30.71,97.05a2.15,2.15,0,0,1-.74-.24c-.14-.09-.15-.11-.14-.25a11.72,11.72,0,0,1,1.66-3.34l.13-.15H41l.15-.09c.66-.45.85-2,.72-5.8l0-1.17h-11c-10.17,0-11,0-11.48-.07a3.67,3.67,0,0,1-2-.81A5.31,5.31,0,0,1,16.21,82c0-.41-.05-1.15,0-3,0-3.23,0-30.61,0-33.77a23.26,23.26,0,0,1,.15-4.08,3.05,3.05,0,0,1,.87-2,3.88,3.88,0,0,1,2.31-.92c.36,0,6.3-.06,32.25-.08,17.5,0,32,0,32.22,0a3.59,3.59,0,0,1,1.45.36,2.56,2.56,0,0,1,.85.64,2.83,2.83,0,0,1,.84,1.34c.07.26.07,1.42.11,19.22,0,10.41,0,19.37.06,19.89.13,3.6-.35,5.29-1.75,6.11a4.22,4.22,0,0,1-1.28.39,24,24,0,0,1-3.38,0c-.93,0-20-.07-20.08,0s-.12.26-.14,2.94a16.18,16.18,0,0,0,.07,2.79A1.55,1.55,0,0,0,61.59,93a38,38,0,0,0,5.85.08c2.48,0,2.63,0,2.88.18a13.5,13.5,0,0,1,1.49,3c.12.36.12.39,0,.49a.75.75,0,0,1-.28.21l-.2.1H51.11c-11.15,0-20.32,0-20.4,0Zm21.51-7.67c5.53,0,5.37,0,5.76-.23a1.35,1.35,0,0,0,.6-1.39c-.1-.39-.51-.64-1.19-.74-.23,0-2.29,0-6.34,0H45l-.26.28a1.49,1.49,0,0,0-.51,1.13.66.66,0,0,0,.13.52,1.52,1.52,0,0,0,1,.51,8.32,8.32,0,0,0,.94,0c.36,0,3,0,5.9-.05Zm-25-7.85v-1l-.24.07c-.3.08-.59.06-.65,0s0-.28.31-.41a2.86,2.86,0,0,1,1-.19c.06,0,.07.15.07,1.25v1.22h3.48l-.05-.16a4.41,4.41,0,0,1-.09-1.91,2.05,2.05,0,0,1,.48-1.09,1.18,1.18,0,0,1,1.08-.26c.49.14.81.58,1,1.35a4.11,4.11,0,0,1,0,1.79,2.73,2.73,0,0,0-.08.27s2.62,0,5.81,0c5.43,0,5.8,0,5.76-.11a.22.22,0,0,1,0-.18c0-.14.48-.33.94-.39s.48-.06.48.33v.33h3.3l0-.29a2.38,2.38,0,0,1,.49-1.05,1,1,0,0,1,1.06-.3,1.65,1.65,0,0,1,1,1.46l0,.18h5.9c3.88,0,5.9,0,5.92,0a1.18,1.18,0,0,1,.46-.05h.44V79.27l-.25.06c-.29.08-.58.06-.64,0s0-.28.29-.4a2.62,2.62,0,0,1,1-.2h.13l0,1.81,0,1.81h.41a1.73,1.73,0,0,1,.46.06s1.55,0,4.06,0h4V82.2c0-.24,0-.24-.12-.19a1.67,1.67,0,0,1-.7.08c-.11,0-.14-.24,0-.35a3.74,3.74,0,0,1,1.06-.32c.29,0,.32,0,.32.55v.47h8.72V80.79l-.25.07c-.29.07-.58.06-.64,0a.25.25,0,0,1,.09-.32l.54-.15.47-.12v1.12c0,.61,0-8.07,0-19.28s0-19.62,0-18.67v1.73l-.16,0a2.23,2.23,0,0,1-.87-.08A.22.22,0,0,1,83,44.9c0-.21,0-.25.53-.25h.43v-3H71.5l-.08.24a1.48,1.48,0,0,1-.57.75,1.72,1.72,0,0,1-.42.13,1,1,0,0,1-1.14-.69,1.82,1.82,0,0,1-.16-.37s-.29-.06-1.72-.06H65.69v1.42h.41a1.51,1.51,0,0,1,.47.06.29.29,0,0,1,0,.35,5,5,0,0,1-1.73.13c-.48-.06-.62-.12-.64-.28s.05-.25.52-.25h.44V41.69H51.73l.18.19a2,2,0,0,1,.47,1A3.55,3.55,0,0,1,52.25,45a1.27,1.27,0,0,1-1.48.79c-.58-.17-.93-.84-1-1.92a2.69,2.69,0,0,1,.57-2.07l.17-.13H33.71l0,.51c-.06,1.21-.44,1.8-1.22,1.91s-1.39-.66-1.39-2v-.41H27.77v2.73h.42a1.22,1.22,0,0,1,.46.06.28.28,0,0,1,0,.35,5.3,5.3,0,0,1-1.74.13c-.47-.06-.61-.12-.63-.29s0-.24.52-.24h.43V41.69H19.36v20.1c0,11.06,0,20.24,0,20.4l0,.29h7.83v-1Zm28,.63a1.46,1.46,0,0,1-.74-.8,3.48,3.48,0,0,1-.2-1.49A2,2,0,0,1,55.15,78c.16-.1.21-.11.54-.1a.86.86,0,0,1,.55.15,2.6,2.6,0,0,1,.79,2,2.42,2.42,0,0,1-.54,1.69,1.2,1.2,0,0,1-1.22.36Zm.66-.6a1.8,1.8,0,0,0,.48-1.35,4,4,0,0,0-.49-1.73.33.33,0,0,0-.28-.09.3.3,0,0,0-.3.14A2.4,2.4,0,0,0,54.91,80a2.21,2.21,0,0,0,.49,1.55.45.45,0,0,0,.53,0Zm14,.42a1.54,1.54,0,0,1-.85-1.14,5.11,5.11,0,0,1,0-1.71A2,2,0,0,1,69.51,78a1.17,1.17,0,0,1,1.08-.26c.48.14.78.54,1,1.27a3.5,3.5,0,0,1-.13,2.17,1.27,1.27,0,0,1-1.51.79Zm.57-.56a1.5,1.5,0,0,0,.57-1.22,2.52,2.52,0,0,0-.16-1.27c-.13-.34-.45-.72-.6-.72s-.48.39-.59.68a3,3,0,0,0,.19,2.32c.17.28.34.34.59.21ZM41,82a1.05,1.05,0,0,1-.56-.46,3.09,3.09,0,0,1-.39-1.86c0-1,.21-1.4.72-1.75a.72.72,0,0,1,.57-.19c.66,0,1.09.44,1.32,1.34a3.78,3.78,0,0,1,0,1.64,1.73,1.73,0,0,1-.78,1.17A1.21,1.21,0,0,1,41,82Zm.73-.77a2.81,2.81,0,0,0,.32-1.75,3.32,3.32,0,0,0-.32-1.12,1,1,0,0,0-.28-.09c-.28,0-.3,0-.51.43a2.8,2.8,0,0,0,0,2.38c.14.31.28.42.51.4s.19,0,.32-.25Zm-5.22-.77a1.44,1.44,0,0,1-.74-.79,3.5,3.5,0,0,1-.2-1.49,2,2,0,0,1,.82-1.86c.16-.1.21-.11.54-.1a.76.76,0,0,1,.55.15,2.6,2.6,0,0,1,.79,2.05,2.38,2.38,0,0,1-.54,1.68,1.21,1.21,0,0,1-1.22.36Zm.66-.6a1.77,1.77,0,0,0,.47-1.35,4,4,0,0,0-.48-1.72.33.33,0,0,0-.28-.1.29.29,0,0,0-.3.15,2.4,2.4,0,0,0-.43,1.49,2.23,2.23,0,0,0,.49,1.55.45.45,0,0,0,.53,0Zm41.74.61a1,1,0,0,1-.55-.46A3.07,3.07,0,0,1,78,78.1c0-1,.21-1.4.72-1.75a.76.76,0,0,1,.57-.19c.65,0,1.08.44,1.32,1.35a3.74,3.74,0,0,1,0,1.63,1.76,1.76,0,0,1-.78,1.18,1.23,1.23,0,0,1-.89.1Zm.74-.77A2.78,2.78,0,0,0,80,77.91a3.29,3.29,0,0,0-.31-1.13,1.07,1.07,0,0,0-.29-.08c-.27,0-.29,0-.5.43a2.8,2.8,0,0,0,0,2.38c.15.3.29.41.52.39s.19,0,.32-.25Zm-57.39.55a1,1,0,0,1-.56-.45,3.11,3.11,0,0,1-.39-1.87c0-1,.21-1.4.72-1.75a.75.75,0,0,1,.57-.18c.66,0,1.09.43,1.32,1.34a3.74,3.74,0,0,1,0,1.63,1.73,1.73,0,0,1-.78,1.18,1.2,1.2,0,0,1-.88.1Zm.73-.77a2.77,2.77,0,0,0,.32-1.74A3.32,3.32,0,0,0,23,76.57a.75.75,0,0,0-.28-.09c-.28,0-.3,0-.51.43a2.8,2.8,0,0,0,0,2.38c.14.3.28.41.51.4s.19,0,.32-.26Zm22.64,0a1.63,1.63,0,0,1-.71-1.13,4.58,4.58,0,0,1,0-1.88,1.52,1.52,0,0,1,.47-.88,1,1,0,0,1,1.12-.27,2.1,2.1,0,0,1,1,2.09,2.16,2.16,0,0,1-.94,2.05,1.16,1.16,0,0,1-.93,0Zm.77-.61a1.39,1.39,0,0,0,.42-.61,2.34,2.34,0,0,0,.08-.83,2.07,2.07,0,0,0-.09-.87,1.51,1.51,0,0,0-.52-.7c-.24-.15-.32-.11-.52.3a2.74,2.74,0,0,0-.1,2.44c.21.45.39.52.73.27Zm28,.33A1.07,1.07,0,0,1,74,78.8a2.32,2.32,0,0,1-.52-1.53l0-.4-.2.12a5,5,0,0,1-3.48.31A7.68,7.68,0,0,1,67,75.51l-.39-.37,0,.15a1.42,1.42,0,0,1-1.27,1.14c-.58,0-1-.38-1.17-1.22a3.52,3.52,0,0,1-.09-.92,2.38,2.38,0,0,1,.53-1.81l.22-.22-.44-.8c-.24-.45-.54-1-.67-1.2s-.36-.69-.52-1.05a7.81,7.81,0,0,0-.92-1.72c-.09-.09-.15-.12-.15-.08a3.57,3.57,0,0,1-.9,1.35L61,69l0,1.41v1.4l.18,0a1.62,1.62,0,0,1,.42,0c.3.06.37.16.29.36a.87.87,0,0,1-.06.13,16.7,16.7,0,0,1-1.79,0c-.53,0-.54,0-.54-.28s0-.24.57-.24h.38V70.58a9.92,9.92,0,0,0,0-1.16l-.38.19a4.44,4.44,0,0,1-3.38.36,4.07,4.07,0,0,1-1.48-.88.29.29,0,0,0-.27-.12c-.25,0-.34-.06-.34-.24a.2.2,0,0,1,.07-.18c.06,0,0-.1-.18-.39a3.08,3.08,0,0,1-.59-1.24l0-.3H48.34v.11a3,3,0,0,1-.26.92,4,4,0,0,1-.77,1.11l-.28.3.11.17a3.12,3.12,0,0,1,.37,1.89c-.13,1.14-.65,1.82-1.41,1.82-.58,0-.94-.38-1.16-1.21a3.65,3.65,0,0,1-.1-1v-.62l-.18,0a4.92,4.92,0,0,1-1.53,0,5.21,5.21,0,0,1-1.94-1.08,2.74,2.74,0,0,0-.4-.31,1.73,1.73,0,0,1-.59-.93,1.07,1.07,0,0,0-.18-.4c-.08-.07-.08-.06-.17.25a8.12,8.12,0,0,1-1,1.79,24.41,24.41,0,0,0-1.35,2.37l-.27.53v.93l.12,0a1.29,1.29,0,0,1,.4,0c.4,0,.55.21.35.41s-.14.09-.86.09h-.77l-.21.35A8.68,8.68,0,0,1,34,76.64a4.25,4.25,0,0,1-2.65.79,5.65,5.65,0,0,1-2.4-.51,2.27,2.27,0,0,0-.35-.14.58.58,0,0,0-.12.19,1.25,1.25,0,0,1-1.12.76c-.58,0-.94-.38-1.16-1.21a4.68,4.68,0,0,1,0-1.9,2.51,2.51,0,0,1,.19-.52.41.41,0,0,0,0-.42,9.69,9.69,0,0,1-.18-1.58,5.64,5.64,0,0,1,.17-1.31c0-.1,0-.15-.05-.3a3.19,3.19,0,0,1-.26-1.41,2.33,2.33,0,0,1,.53-1.83.75.75,0,0,0,.3-.63,5.1,5.1,0,0,1,.16-.7c.06-.18.16-.55.23-.81l.13-.48-.36,0a1.79,1.79,0,0,1-.76-.17.3.3,0,0,1,0-.33,1.28,1.28,0,0,1,.48,0h.43V61L27,61c-.3.07-.59.06-.65,0s0-.27.31-.4a2.5,2.5,0,0,1,1-.19c.06,0,.07.14.07,1.19,0,.64,0,1.16,0,1.14s.1-.52.2-1.15a29.47,29.47,0,0,1,.57-3,3.69,3.69,0,0,0,.17-1.07c0-.34-.07-.79-.08-.59a2.46,2.46,0,0,1-.43.78,1.08,1.08,0,0,1-1.62.05A2.73,2.73,0,0,1,26.11,56a3.14,3.14,0,0,1,.26-1.44,1.81,1.81,0,0,1,.68-.64,1.13,1.13,0,0,1,1,.15,2.42,2.42,0,0,1,.66,1.32c0,.12.06.06.26-.48a9,9,0,0,1,2.63-4.16l.22-.15-.13-.09c-.7-.47-.92-2.36-.41-3.44a1,1,0,0,1,.58-.58,1.1,1.1,0,0,1,1.53.62l.16.34c0,.07,0,.08.12,0A4.34,4.34,0,0,1,36,47.11l.8,0V44.05l-.11,0a1.71,1.71,0,0,1-.71.08c-.11,0-.13-.24,0-.35A3.83,3.83,0,0,1,37,43.5c.33,0,.31-.14.31,1.85v1.77h.25c.36,0,1.53.1,2.06.18a4.88,4.88,0,0,1,1.41.41l.25.13V45.6l-.1,0-.39.08c-.23,0-.31,0-.36,0a.27.27,0,0,1,0-.34,5,5,0,0,1,.64-.21c.42-.12.6-.15.65-.12s.12.55.13,2.12c0,1.18,0,1.22.1,1.34a.3.3,0,0,0,.19.13,1.68,1.68,0,0,1,.32.05c.27,0,.34.16.27.34s-.09.13-.24.15l-.19,0,.06.23a6.79,6.79,0,0,1,.15,1.21c0,.18,0,.21.16.31a3,3,0,0,1,.74.72l.11.19H46V49.63l-.24.07c-.3.07-.59.06-.65,0s0-.28.3-.4a2.79,2.79,0,0,1,1-.2l.13,0,0,1.37,0,1.37,1.8,0h1.79L50,51.57a4,4,0,0,1,.05-2.8,1,1,0,0,1,.58-.58,1.12,1.12,0,0,1,1.51.56,3.64,3.64,0,0,1,.08,2.84l-.13.26h1.55a10.78,10.78,0,0,0,1.61-.05.81.81,0,0,1,.41,0c.2,0,.94,0,1.65,0l1.28,0,.31-.31.32-.31,0-.69c0-1.09.19-1.5.71-1.85a2.06,2.06,0,0,0,.4-.36,3,3,0,0,1,1.51-.9,9.06,9.06,0,0,1,2.33-.28l1,0v-.55l-.25.06c-.29.08-.58.07-.64,0s0-.28.29-.4a2.84,2.84,0,0,1,1-.2l.13,0,0,.54,0,.55,1.09,0A10.79,10.79,0,0,1,68,47.2a3.17,3.17,0,0,1,.82.61c.14.15.24.23.23.18a3.43,3.43,0,0,1-.06-.61,3.47,3.47,0,0,1,.27-1.66,1,1,0,0,1,.57-.58,1.13,1.13,0,0,1,1.52.56,3.63,3.63,0,0,1,.33,1.52c0,1.22-.45,2-1.27,2.12a1.05,1.05,0,0,1-.72-.17l-.12-.09,0,.13a4.7,4.7,0,0,1,.15.9v.2l.36.18a3.58,3.58,0,0,1,.65.41,10.25,10.25,0,0,1,2.53,4.36l.22.65,0,.49a5.15,5.15,0,0,0,0,1.84c0,.19.18.82.29,1.42a10.33,10.33,0,0,0,.5,2,.47.47,0,0,0,.12.22l.35-.06c.25,0,.33,0,.39,0a7.37,7.37,0,0,1,.06,1.84v1.78l.12,0a1.78,1.78,0,0,1,.39,0c.41,0,.56.21.36.41s-.14.08-.54.08a2.17,2.17,0,0,0-.46,0c0,.21.33,2.53.39,2.79a13.48,13.48,0,0,1,.33,2.06c0,.4.08.83.09,1s0,.23.11.25a.24.24,0,0,1,0,.44c-.07,0-.08.09-.11.51a3.74,3.74,0,0,1-.39,1.56l-.19.41.18.14a2.59,2.59,0,0,1,.73,1.62,2.7,2.7,0,0,1-.61,2.15,1.28,1.28,0,0,1-1.15.28Zm.67-.6a1.8,1.8,0,0,0,.47-1.35c0-.57-.37-1.78-.54-1.78s-.11.06-.16.14-.25.29-.42.48l-.32.33,0,.32a3.05,3.05,0,0,0,.13,1.27,1.47,1.47,0,0,0,.38.64.54.54,0,0,0,.5,0ZM27.68,77a1.69,1.69,0,0,0,.4-.52,6,6,0,0,0-.45-.49,2.51,2.51,0,0,1-.62-.78c-.11-.2-.19-.31-.2-.28a1.63,1.63,0,0,0-.08.41A2.47,2.47,0,0,0,27,76.89C27.21,77.23,27.37,77.26,27.68,77Zm37.92-1.3a1.45,1.45,0,0,0,.49-1c0-.21,0-.24-.15-.48s-.34-.52-.54-.85l-.35-.6-.14.29a2.77,2.77,0,0,0,0,2.35c.21.46.39.53.73.28ZM46.42,72.24a1.33,1.33,0,0,0,.42-.61,2.34,2.34,0,0,0,.08-.83,1.92,1.92,0,0,0-.1-.88,1.39,1.39,0,0,0-.2-.37l-.09-.11-.3.18-.46.24c-.18.07-.23.19-.3.74a2.52,2.52,0,0,0,.28,1.5C46,72.43,46.11,72.47,46.42,72.24ZM74.67,63c0-.65,0-.67-.09-.65a.28.28,0,0,0-.11,0,4.58,4.58,0,0,0,.18,1.27,5.91,5.91,0,0,0,0-.67Zm-47-5.61a1.28,1.28,0,0,0,.42-.61,2.24,2.24,0,0,0,.08-.82,2.1,2.1,0,0,0-.09-.88,1.49,1.49,0,0,0-.52-.69c-.24-.16-.32-.11-.52.29a2.74,2.74,0,0,0-.1,2.44c.21.45.39.52.73.27Zm23.6-5.63c.31-.14.53-.58.59-1.23a2.59,2.59,0,0,0-.15-1.26c-.14-.34-.46-.72-.61-.72s-.48.38-.58.67c-.37,1,0,2.56.55,2.59l.2-.05Zm-18.84-2A4.85,4.85,0,0,1,33,48.17c.09-.15.1-.2.06-.33-.13-.48-.51-1-.71-1s-.48.39-.59.68A3,3,0,0,0,32,49.83c.12.19.22.27.34.27s.09-.07.13-.31Zm38-1.06a1.5,1.5,0,0,0,.57-1.22,2.47,2.47,0,0,0-.16-1.26c-.13-.34-.45-.72-.6-.72s-.48.38-.59.67a3,3,0,0,0,.19,2.32c.17.28.34.34.59.21ZM60.19,78.9a1,1,0,0,1-.55-.46,3.09,3.09,0,0,1-.39-1.86c0-1,.21-1.4.72-1.75a.72.72,0,0,1,.57-.19c.65,0,1.08.44,1.32,1.34a3.78,3.78,0,0,1,0,1.64,1.8,1.8,0,0,1-.78,1.17,1.24,1.24,0,0,1-.89.11Zm.74-.77a2.81,2.81,0,0,0,.31-1.75,3.14,3.14,0,0,0-.31-1.12,1,1,0,0,0-.29-.09c-.27,0-.29,0-.5.43a2.8,2.8,0,0,0,0,2.38c.15.31.29.42.52.4s.19,0,.32-.25Zm-10.21.37-.31-.07c-.37-.08-.41-.11-.41-.28s.08-.24.56-.24H51V74.83l-.25,0a1.18,1.18,0,0,1-.6,0c-.08,0-.09-.25,0-.33a4.66,4.66,0,0,1,1.18-.32h.18v3.64h.41c.48,0,.58,0,.53.27a.4.4,0,0,1,0,.15,6,6,0,0,1-1.66.17Zm33-.64a1.52,1.52,0,0,1-.88-1.07A3.49,3.49,0,0,1,82.81,75c.19-.74.55-1.23,1-1.34s.33-.08.33.18v.24l-.18.09c-.42.18-.58.57-.57,1.38a3.27,3.27,0,0,0,.36,1.55c.11.21.16.26.26.28s.13,0,.13.26,0,.24-.12.23a1.09,1.09,0,0,1-.24,0Zm-29.15-2.4a.25.25,0,0,1,0-.38,1.46,1.46,0,0,1,.47,0h.4V71.94l-.11,0a1.56,1.56,0,0,1-.71.08c-.11,0-.13-.23,0-.35a3.83,3.83,0,0,1,1.07-.32c.33,0,.31-.14.31,1.86V75l.12,0a2.58,2.58,0,0,1,.4,0c.4,0,.55.22.35.41s-.14.09-1.14.09a6.38,6.38,0,0,1-1.13-.05ZM40.8,75.33c-.5,0-.52,0-.52-.27s0-.24.58-.25h.38V71.75l-.1,0-.39.08c-.23,0-.31,0-.36,0a.27.27,0,0,1,0-.34A5.16,5.16,0,0,1,41,71.3c.44-.12.61-.15.66-.12a7.91,7.91,0,0,1,.13,2.38l0,1.25.18,0a1.29,1.29,0,0,1,.43,0c.29.06.37.16.29.35s-.08.13-.28.15a12.33,12.33,0,0,1-1.6,0Zm37.92-1.52c-.5,0-.52-.06-.52-.28s0-.24.57-.24h.38V70.23l-.09,0-.39.08c-.24,0-.31,0-.36,0a.29.29,0,0,1,0-.34,4,4,0,0,1,.64-.21c.43-.12.6-.16.65-.12A7,7,0,0,1,79.71,72v1.25l.18,0a1.59,1.59,0,0,1,.42,0c.3.06.37.15.29.35s-.08.13-.27.15a12.37,12.37,0,0,1-1.6,0Zm-56.66-.22c-.5,0-.52-.06-.52-.28s0-.24.58-.24h.38V70l-.1,0-.39.07c-.23,0-.31,0-.36,0a.27.27,0,0,1,0-.34,3.77,3.77,0,0,1,.63-.21c.43-.12.61-.15.66-.12a7.81,7.81,0,0,1,.13,2.38l0,1.25.18,0a1.57,1.57,0,0,1,.42,0c.3.06.38.15.3.35s-.08.13-.28.15a12.33,12.33,0,0,1-1.6,0ZM50.72,72l-.31-.07c-.37-.08-.41-.11-.41-.28s.08-.24.56-.24H51V68.29l-.25.06a1.27,1.27,0,0,1-.6,0c-.08,0-.09-.25,0-.33a4.66,4.66,0,0,1,1.18-.32h.18v3.64h.41c.48,0,.58,0,.53.28a.33.33,0,0,1,0,.14,5.61,5.61,0,0,1-1.66.17Zm33-.63a1.54,1.54,0,0,1-.88-1.08,3.49,3.49,0,0,1-.07-1.76c.19-.74.55-1.23,1-1.34s.33-.08.33.19v.24l-.18.08c-.42.18-.58.57-.57,1.38a3.25,3.25,0,0,0,.36,1.55c.11.21.16.27.26.29s.13,0,.13.26,0,.23-.12.23a1.09,1.09,0,0,1-.24,0Zm-4.83-4c-.65-.25-1-1.09-.94-2.35,0-1,.21-1.38.72-1.72a.72.72,0,0,1,.57-.19c.65,0,1.09.44,1.32,1.34a3.63,3.63,0,0,1-.16,2.11,1.72,1.72,0,0,1-.62.7,1.24,1.24,0,0,1-.89.11Zm.74-.77A2.81,2.81,0,0,0,80,64.83a3.14,3.14,0,0,0-.31-1.12,1,1,0,0,0-.29-.09c-.27,0-.29,0-.5.43a2.8,2.8,0,0,0,0,2.38c.15.31.29.42.52.4s.19,0,.32-.25Zm-57.39.55c-.66-.24-1-1.09-1-2.35,0-1,.22-1.38.72-1.72a.72.72,0,0,1,.57-.19c.66,0,1.09.44,1.32,1.35a3.6,3.6,0,0,1-.16,2.1,1.66,1.66,0,0,1-.62.7,1.16,1.16,0,0,1-.88.11Zm.73-.77a2.78,2.78,0,0,0,.32-1.74A3.4,3.4,0,0,0,23,63.49a1.09,1.09,0,0,0-.28-.08c-.28,0-.3,0-.51.42a2.82,2.82,0,0,0,0,2.39c.14.3.28.41.51.39s.19,0,.32-.25Zm60.22-1.62c-.22,0-.28-.11-.28-.25s.07-.22.53-.22h.43V61.18l-.25.06c-.29.08-.58.07-.64,0a.25.25,0,0,1,.09-.32l.54-.15.47-.12v4.12l-.09,0A2.42,2.42,0,0,1,83.23,64.74Zm-4.51-4c-.5,0-.52,0-.52-.27s0-.24.57-.25h.38V57.15l-.09,0-.39.08c-.24,0-.31,0-.36,0a.29.29,0,0,1,0-.34,5.64,5.64,0,0,1,.64-.21c.43-.12.6-.15.65-.12A7.17,7.17,0,0,1,79.71,59v1.25l.18,0a1.59,1.59,0,0,1,.42,0c.3.06.37.16.29.35s-.08.13-.27.15a12.37,12.37,0,0,1-1.6,0Zm-56.66-.21c-.5-.05-.52-.06-.52-.28s0-.24.58-.24h.38V56.94l-.1,0L22,57c-.23,0-.31,0-.36,0a.27.27,0,0,1,0-.34,6.14,6.14,0,0,1,.63-.2c.43-.13.61-.16.66-.13a7.91,7.91,0,0,1,.13,2.38L23,60l.18,0a1.53,1.53,0,0,1,.42,0c.3.07.38.16.3.36s-.08.12-.28.14a12.4,12.4,0,0,1-1.6,0Zm52.38-1a1.43,1.43,0,0,1-.73-.79,3.66,3.66,0,0,1-.21-1.49,2.06,2.06,0,0,1,.83-1.86c.16-.1.21-.11.53-.1s.39,0,.55.15a2.57,2.57,0,0,1,.8,2.05,2.42,2.42,0,0,1-.54,1.68A1.21,1.21,0,0,1,74.44,59.49Zm.67-.6a1.76,1.76,0,0,0,.47-1.34,4.18,4.18,0,0,0-.48-1.73.34.34,0,0,0-.28-.1.27.27,0,0,0-.3.15,2.4,2.4,0,0,0-.43,1.49,2.28,2.28,0,0,0,.48,1.55.45.45,0,0,0,.54,0Zm8.65-.64a1.52,1.52,0,0,1-.88-1.07,3.49,3.49,0,0,1-.07-1.76c.19-.74.55-1.24,1-1.35s.33-.07.33.19v.24l-.18.08c-.42.19-.58.57-.57,1.38a3.29,3.29,0,0,0,.36,1.56c.11.21.16.26.26.28s.13,0,.13.26,0,.24-.12.23l-.24,0Zm-4.83-4a1,1,0,0,1-.55-.45A3.12,3.12,0,0,1,78,52c0-1,.21-1.4.72-1.75a.75.75,0,0,1,.57-.18c.65,0,1.08.43,1.32,1.34a3.74,3.74,0,0,1,0,1.63,1.76,1.76,0,0,1-.78,1.18,1.23,1.23,0,0,1-.89.1Zm.74-.77A2.76,2.76,0,0,0,80,51.76a3.29,3.29,0,0,0-.31-1.13,1.07,1.07,0,0,0-.29-.08c-.27,0-.29,0-.5.43a2.8,2.8,0,0,0,0,2.38c.15.3.29.41.52.39s.19,0,.32-.25Zm-57.39.55a1,1,0,0,1-.56-.45,3.11,3.11,0,0,1-.39-1.87c0-1,.21-1.4.72-1.74a.72.72,0,0,1,.57-.19c.66,0,1.09.44,1.32,1.34a3.78,3.78,0,0,1,0,1.64A1.73,1.73,0,0,1,23.16,54a1.2,1.2,0,0,1-.88.1Zm.73-.77a2.77,2.77,0,0,0,.32-1.74A3.32,3.32,0,0,0,23,50.42a.75.75,0,0,0-.28-.09c-.28,0-.3,0-.51.43a2.8,2.8,0,0,0,0,2.38c.14.3.28.41.51.4s.19,0,.32-.26ZM74.44,53a1.45,1.45,0,0,1-.73-.8,3.64,3.64,0,0,1-.21-1.49,2.06,2.06,0,0,1,.83-1.86c.16-.1.21-.11.53-.1a.84.84,0,0,1,.55.15,2.57,2.57,0,0,1,.8,2,2.47,2.47,0,0,1-.54,1.69A1.23,1.23,0,0,1,74.44,53Zm.67-.6A1.8,1.8,0,0,0,75.58,51a4.18,4.18,0,0,0-.48-1.73.34.34,0,0,0-.28-.09.28.28,0,0,0-.3.14,2.4,2.4,0,0,0-.43,1.49,2.26,2.26,0,0,0,.48,1.55.47.47,0,0,0,.54,0Zm8.12-.69c-.22-.06-.28-.11-.28-.26s.07-.22.53-.22h.43V48.11l-.25.06c-.29.08-.58.06-.64,0a.24.24,0,0,1,.09-.32l.54-.15.47-.13v4.12l-.09,0A2.72,2.72,0,0,1,83.23,51.67Zm-56.46-.18c-.33-.05-.46-.12-.47-.27s0-.25.52-.25h.43V47.89L27,48c-.3.08-.59.06-.65,0s0-.28.3-.4a2.57,2.57,0,0,1,1-.2l.13,0,0,1.8,0,1.81.41,0a1.24,1.24,0,0,1,.47.06.28.28,0,0,1,0,.35,1.75,1.75,0,0,1-.62.11,4.44,4.44,0,0,1-1.28,0Zm27.84-2.18a.25.25,0,0,1,0-.38,1.46,1.46,0,0,1,.47,0h.4V45.79l-.11,0a1.56,1.56,0,0,1-.71.08c-.11,0-.13-.23,0-.35a4.21,4.21,0,0,1,1.07-.32c.33-.05.31-.14.31,1.87v1.78l.12,0h.4c.4,0,.55.22.35.41s-.14.09-1.14.09a6.38,6.38,0,0,1-1.13,0Zm24.11-1.65c-.5,0-.52-.06-.52-.28s0-.24.57-.24h.38V44.08l-.09,0-.39.07c-.24,0-.31,0-.36,0a.29.29,0,0,1,0-.34,4,4,0,0,1,.64-.21c.43-.12.6-.15.65-.12a7,7,0,0,1,.13,2.37v1.25l.18,0a1.59,1.59,0,0,1,.42,0c.3.06.37.15.29.35s-.08.13-.27.15a12.37,12.37,0,0,1-1.6,0Zm-56.66-.22c-.5,0-.52-.06-.52-.28s0-.24.58-.24h.38V43.86l-.1,0L22,44c-.23,0-.31,0-.36,0a.27.27,0,0,1,0-.34,5.16,5.16,0,0,1,.63-.21c.43-.12.61-.15.66-.12a7.86,7.86,0,0,1,.13,2.38l0,1.25.18,0a1.57,1.57,0,0,1,.42,0c.3.06.38.16.3.35s-.08.13-.28.15a12.33,12.33,0,0,1-1.6,0Zm23.45-.74c-.33-.06-.46-.13-.47-.27s0-.25.52-.25H46V43.09l-.24.07c-.3.08-.59.06-.65,0s0-.28.3-.4a2.39,2.39,0,0,1,1-.2h.13l0,1.81,0,1.81H47a1.9,1.9,0,0,1,.46.06.29.29,0,0,1,0,.35,1.9,1.9,0,0,1-.62.12,5.33,5.33,0,0,1-1.28,0Zm28.27-.44a.26.26,0,0,1,0-.38,1.54,1.54,0,0,1,.48-.05h.4V42.74l-.12,0a1.52,1.52,0,0,1-.7.08c-.11,0-.14-.23,0-.35a3.74,3.74,0,0,1,1.06-.32c.33,0,.32-.14.32,1.86v1.79l.12,0a2.46,2.46,0,0,1,.39,0c.41,0,.56.22.36.41s-.14.09-1.14.09a6.63,6.63,0,0,1-1.14-.05ZM60,46.13c-.5,0-.52-.05-.52-.27s0-.24.57-.25h.38V42.55l-.09,0-.39.08c-.24,0-.31,0-.36,0a.29.29,0,0,1,0-.34,5.64,5.64,0,0,1,.64-.21c.43-.12.6-.15.65-.12A7.17,7.17,0,0,1,61,44.36v1.25l.18,0a1.59,1.59,0,0,1,.42,0c.29.06.37.16.29.35s-.08.13-.27.15a12.37,12.37,0,0,1-1.6,0ZM32.91,82.36a2.22,2.22,0,0,0,.22-.86,2.32,2.32,0,0,0-.46-1.76c-.26-.28-.34-.28-.6,0a2.7,2.7,0,0,0-.18,2.67c0,.06.09.07.5.07h.47l0-.12Zm13.08,0s0,0-.16,0-.27.07,0,.08.21,0,.21-.06Zm5.88,0a2.4,2.4,0,0,0-.2-.71.54.54,0,0,0-.56-.38.52.52,0,0,0-.52.34,3.41,3.41,0,0,0-.2.76,4.15,4.15,0,0,0,.74,0,3.38,3.38,0,0,0,.74,0ZM51.3,45.24c.31-.15.51-.59.57-1.22a2.6,2.6,0,0,0-.15-1.26c-.14-.34-.46-.72-.61-.72s-.48.39-.58.68A3,3,0,0,0,50.71,45c.18.27.35.33.59.2ZM32.55,43.48c.37-.17.54-.55.57-1.3l0-.49h-1.5l0,.34a3.15,3.15,0,0,0,.46,1.45c.11.11.19.11.42,0Zm37.87-1.27a1,1,0,0,0,.44-.4l.06-.12H69.74l.09.18c.18.35.33.44.59.34Z" transform="translate(-11.7 -38.07)"/></g></svg>