<svg xmlns="http://www.w3.org/2000/svg" viewBox="0 0 615.34 287.36"><defs><style>.cls-1{fill:#fff;}</style></defs><title>Asset 1</title><g id="Layer_2" data-name="Layer 2"><g id="Layer_1-2" data-name="Layer 1"><g id="Layer_1-2-2" data-name="Layer 1-2"><path class="cls-1" d="M5.84,80.88H57.37l4.55,25.52h1.57C81.49,90.1,102.92,76,132,76c46.36,0,66.12,30.93,66.12,81.31V282.44H135V165c0-29-8.24-38.08-26.48-38.08-15.87,0-25.57,7-39.47,19.58v136H5.84Z"/><path class="cls-1" d="M232.77,259.16,261.19,222c19.31,13.82,37.16,21.18,55,21.18,18.8,0,26.94-6.78,26.94-17.34,0-13.28-21.13-19.3-43.07-27.43-26.13-9.56-56.41-26-56.41-59.27,0-37.53,32.25-63.1,81.45-63.1,32.66,0,57,12.48,75.13,25.53L372,137.39C356.78,127,341.82,120.23,327,120.23c-16.32,0-24.35,6-24.35,16.1,0,12.85,20,17.77,42.05,25.37,27,9.44,57.43,23.81,57.43,60.66,0,36.47-30.44,65-87.57,65C286.51,287.32,254.36,275.8,232.77,259.16Z"/><path class="cls-1" d="M432.17,226.54c0-42.47,35.74-65.46,120-73.87-1.26-17.63-10.56-29.14-33.71-29.14-17.89,0-35.73,7.12-56.41,18.21l-22.4-39.21C466.7,86.9,497.19,76,530.65,76c54.5,0,84.69,29.44,84.69,91.21V282.44H563.86l-4.55-20.64h-1.57c-18,14.91-38.06,25.52-62,25.52C456.84,287.32,432.17,260.5,432.17,226.54Zm120-2.66V188.67c-44.91,5.73-59.57,17.87-59.57,33.11,0,13,9.45,19.35,24.46,19.35,14.35,0,24-6.69,35.16-17.25Z"/><path class="cls-1" d="M3.88.86c-1.22,1.22-1.22,31.49,0,32.71.57.58,3.73.86,9.39.86h8.47l-.22,2.3c-.21,2.29-.35,2.37-3.8,2.58-3.23.22-4.59.93-4.66,2.44,0,.36,6.74.57,15,.57,14.5,0,15-.07,14.64-1.43-.29-1.08-1.08-1.43-4.09-1.58C35,39.1,35,39,34.74,36.73l-.22-2.3h8.9c6.74,0,9.11-.21,9.75-1s.79-5.81.65-17L53.6.36,29.21.15C10.76,0,4.52.23,3.88.86ZM51.8,16.93V31.56H5.17V2.15l23.31.08L51.8,2.3Z"/><path class="cls-1" d="M14.85,7.89c-.21.79-.72,1.43-1,1.43-1.08,0-2.08,3.3-3,9.83-1,7.25-.57,8.83,2.59,8.83,1.72,0,5-3.23,5.74-5.82.5-1.36.57-1.43,1.86-.21,1.15,1,1.72,1.08,3.16.43C25.2,22,26,21.23,26,20.8c0-1.36,3.73-.72,5,.86s1.51,1.51,3.23.72,2.08-.72,3,.36a6.05,6.05,0,0,1,1,1.79c0,1.29,3,3.45,4.66,3.45,2.94,0,3.52-2.3,2.23-9.83C43.69,9.68,41.47,6.23,37.52,6.6c-1.79.14-2.79.64-3.22,1.72C33.72,9.61,32.93,9.82,28,9.9c-4.73.07-5.74-.15-6.1-1.15-.64-1.72-1.65-2.3-4.3-2.3C15.93,6.45,15.21,6.81,14.85,7.89Z"/><path class="cls-1" d="M62.56,25.46V50.93h10V19l16,16c13,13,16.28,15.92,17.93,15.92h1.94V0h-10V15.78c0,8.68-.22,15.78-.58,15.78s-7.6-7.1-16.28-15.78C70.31,4.51,65.36,0,64.21,0H62.56Z"/><path class="cls-1" d="M119.24,25.46V50.93h37.31V41.61H129.29V29.41h20.09V20.8H129.29V9.32h27.26V0H119.24Z"/><path class="cls-1" d="M164.44,4.66V9.32h17.22V50.93h10V9.32h17.22V0H164.44Z"/><path class="cls-1" d="M228.3.64A22.46,22.46,0,0,0,218.3,7c-3.87,4.67-3.87,11.91,0,16.29,2.51,2.87,6.24,4.52,13.56,5.88a30,30,0,0,1,7,2.08c3.37,2.23,2.73,7.39-1.22,9.55C234.2,42.54,225.3,41,221,37.88c-1.08-.79-1.72-.43-4.52,2.29-3.73,3.66-3.52,4.16,2.36,7.39,7.25,3.88,17.73,4.31,24.25,1,6.25-3.23,8.9-7.11,8.9-13.13,0-8.47-4.88-12.63-18.22-15.36-4.31-.86-7.61-3.22-7.61-5.31a7.56,7.56,0,0,1,1.65-3c1.44-1.65,10.84-2.22,13.78-.72l3.59,1.87,3-3c2.94-2.87,3-3.09,1.79-4.38-2.65-2.94-8-4.95-14.13-5.24C232.67.14,229.3.28,228.3.64Z"/><path class="cls-1" d="M275.86,1.5c-5.67,1.8-11.55,7-14.35,12.7-1.79,3.66-2,4.88-2,11.26s.22,7.61,2,11.27c7.9,16.14,30.21,19.08,42.33,5.67,4.52-5,5.81-8.68,5.81-16.94.08-5.88-.21-7.74-1.43-10.47C302.62,2.94,289-2.77,275.86,1.5Zm13.78,8.61a14.07,14.07,0,0,1,5.74,3.8c9.9,10.19,3.08,27.7-10.76,27.7-8.83,0-15.36-6.82-15.43-16C269.19,14.06,278.45,7,289.64,10.11Z"/><path class="cls-1" d="M334.26.78A25.73,25.73,0,0,0,318,13.91a27.25,27.25,0,0,0-2.23,15.72c2.37,14.63,15.86,23.6,31,20.66,4.3-.86,10.62-3.73,12-5.38.43-.5-.43-2.08-2.44-4.31l-3-3.51-3.52,1.65c-12.05,5.88-24-.65-24.1-13.2,0-5.24.71-7.32,3.73-10.69,4.44-5.1,13-6.25,20.37-2.66l3.52,1.65,3-3.51c1.72-1.94,2.94-3.73,2.73-4C358.38,5.11,352.21,2,348.69,1A33.77,33.77,0,0,0,334.26.78Z"/><path class="cls-1" d="M1.51,45A29,29,0,0,0,.36,49L0,51H28c15.43,0,28.06-.21,28.06-.57,0-1.65-2.59-7.32-3.38-7.32s-.71.5.15,2.59a17.38,17.38,0,0,1,1.07,3.22c0,.36-11.48.65-25.82.65C4,49.55,2.29,49.48,2.29,48.26a11.43,11.43,0,0,1,1-3.23c.93-1.72.93-1.94,0-1.94C2.73,43,1.94,43.9,1.51,45Z"/></g></g></g></svg>