<?xml version="1.0" encoding="utf-8"?>
<!-- Generator: Adobe Illustrator 23.1.0, SVG Export Plug-In . SVG Version: 6.00 Build 0)  -->
<svg version="1.1" id="Layer_1" xmlns="http://www.w3.org/2000/svg" xmlns:xlink="http://www.w3.org/1999/xlink" x="0px" y="0px"
	 viewBox="0 0 846.6 287.3" style="enable-background:new 0 0 846.6 287.3;" xml:space="preserve">
<style type="text/css">
	.st0{fill:#DEDFE0;}
</style>
<title>Asset 2</title>
<g>
	<g id="Layer_1-2">
		<path class="st0" d="M5.8,80.9h51.5l4.6,25.5h1.6C81.5,90.1,102.9,76,132,76c46.4,0,66.1,30.9,66.1,81.3v125.1H135V165
			c0-29-8.2-38.1-26.5-38.1c-15.9,0-25.6,7-39.5,19.6v136H5.8V80.9z"/>
		<path class="st0" d="M232.8,259.2l28.4-37.2c19.3,13.8,37.2,21.2,55,21.2c18.8,0,26.9-6.8,26.9-17.3c0-13.3-21.1-19.3-43.1-27.4
			c-26.1-9.6-56.4-26-56.4-59.3c0-37.5,32.3-63.1,81.5-63.1c32.7,0,57,12.5,75.1,25.5L372,137.4c-15.2-10.4-30.1-17.2-44.9-17.2
			c-16.3,0-24.4,6-24.4,16.1c0,12.9,20,17.8,42,25.4c27,9.4,57.4,23.8,57.4,60.7c0,36.5-30.4,65-87.6,65
			C286.5,287.3,254.4,275.8,232.8,259.2z"/>
		<path class="st0" d="M432.2,226.5c0-42.5,35.7-65.5,120-73.9c-1.3-17.6-10.6-29.1-33.7-29.1c-17.9,0-35.7,7.1-56.4,18.2
			l-22.4-39.2c27-15.6,57.5-26.5,91-26.5c54.5,0,84.7,29.4,84.7,91.2v115.2h-51.5l-4.5-20.6h-1.6c-18,14.9-38.1,25.5-62,25.5
			C456.8,287.3,432.2,260.5,432.2,226.5z M552.2,223.9v-35.2c-44.9,5.7-59.6,17.9-59.6,33.1c0,13,9.5,19.4,24.5,19.4
			C531.4,241.1,541,234.4,552.2,223.9L552.2,223.9z"/>
		<path class="st0" d="M650,250.7l29.1-37.7c16.7,15.1,36.9,26.1,59.8,26.1c26.6,0,44.4-11,44.4-30.8c0-22.6-14-36.6-73.3-36.6
			v-42.3c49,0,64.4-14.1,64.4-34.6c0-18.1-12.2-28.4-33.7-28.4c-19.4,0-34.1,8.3-51,22.6l-32-36.4c25.1-20.4,52.6-33,85.8-33
			c56.7,0,94.1,25.4,94.1,70.8c0,26.6-16.1,45.6-45.5,57.3v1.6c31.5,8.5,54.4,29.5,54.4,62.9c0,48-46.6,75.1-101.5,75.1
			C700.9,287.3,670,272.5,650,250.7z"/>
		<path class="st0" d="M3.9,0.9c-1.2,1.2-1.2,31.5,0,32.7c0.6,0.6,3.7,0.9,9.4,0.9h8.5l-0.2,2.3c-0.2,2.3-0.3,2.4-3.8,2.6
			c-3.2,0.2-4.6,0.9-4.7,2.4c0,0.4,6.7,0.6,15,0.6c14.5,0,15-0.1,14.6-1.4c-0.3-1.1-1.1-1.4-4.1-1.6C35,39.1,35,39,34.7,36.7
			l-0.2-2.3h8.9c6.7,0,9.1-0.2,9.8-1s0.8-5.8,0.7-17L53.6,0.4L29.2,0.1C10.8,0,4.5,0.2,3.9,0.9z M51.8,16.9v14.6H5.2V2.1l23.3,0.1
			l23.3,0.1L51.8,16.9z"/>
		<path class="st0" d="M14.9,7.9c-0.2,0.8-0.7,1.4-1,1.4c-1.1,0-2.1,3.3-3,9.8c-1,7.3-0.6,8.8,2.6,8.8c1.7,0,5-3.2,5.7-5.8
			c0.5-1.4,0.6-1.4,1.9-0.2c1.2,1,1.7,1.1,3.2,0.4c1-0.4,1.8-1.2,1.8-1.6c0-1.4,3.7-0.7,5,0.9s1.5,1.5,3.2,0.7s2.1-0.7,3,0.4
			c0.4,0.5,0.8,1.1,1,1.8c0,1.3,3,3.4,4.7,3.4c2.9,0,3.5-2.3,2.2-9.8c-1.4-8.5-3.6-11.9-7.6-11.5c-1.8,0.1-2.8,0.6-3.2,1.7
			c-0.6,1.3-1.4,1.5-6.3,1.6c-4.7,0.1-5.7-0.2-6.1-1.2c-0.6-1.7-1.7-2.3-4.3-2.3C15.9,6.5,15.2,6.8,14.9,7.9z"/>
		<path class="st0" d="M62.6,25.5v25.5h10V19l16,16c13,13,16.3,15.9,17.9,15.9h1.9V0h-10v15.8c0,8.7-0.2,15.8-0.6,15.8
			s-7.6-7.1-16.3-15.8C70.3,4.5,65.4,0,64.2,0h-1.7V25.5z"/>
		<path class="st0" d="M119.2,25.5v25.5h37.3v-9.3h-27.3V29.4h20.1v-8.6h-20.1V9.3h27.3V0h-37.3V25.5z"/>
		<path class="st0" d="M164.4,4.7v4.7h17.2v41.6h10V9.3h17.2V0h-44.4V4.7z"/>
		<path class="st0" d="M228.3,0.6c-4,1.3-7.9,3.7-10,6.3c-3.9,4.7-3.9,11.9,0,16.3c2.5,2.9,6.2,4.5,13.6,5.9c2.4,0.4,4.8,1.1,7,2.1
			c3.4,2.2,2.7,7.4-1.2,9.6c-3.4,1.8-12.3,0.3-16.6-2.9c-1.1-0.8-1.7-0.4-4.5,2.3c-3.7,3.7-3.5,4.2,2.4,7.4c7.3,3.9,17.7,4.3,24.3,1
			c6.3-3.2,8.9-7.1,8.9-13.1c0-8.5-4.9-12.6-18.2-15.4c-4.3-0.9-7.6-3.2-7.6-5.3c0.3-1.1,0.9-2.1,1.6-3c1.4-1.7,10.8-2.2,13.8-0.7
			l3.6,1.9l3-3c2.9-2.9,3-3.1,1.8-4.4c-2.6-2.9-8-5-14.1-5.2C232.7,0.1,229.3,0.3,228.3,0.6z"/>
		<path class="st0" d="M275.9,1.5c-5.7,1.8-11.5,7-14.4,12.7c-1.8,3.7-2,4.9-2,11.3s0.2,7.6,2,11.3c7.9,16.1,30.2,19.1,42.3,5.7
			c4.5-5,5.8-8.7,5.8-16.9c0.1-5.9-0.2-7.7-1.4-10.5C302.6,2.9,289-2.8,275.9,1.5z M289.6,10.1c2.2,0.8,4.2,2.1,5.7,3.8
			c9.9,10.2,3.1,27.7-10.8,27.7c-8.8,0-15.4-6.8-15.4-16C269.2,14.1,278.5,7,289.6,10.1z"/>
		<path class="st0" d="M334.3,0.8c-7,1.9-12.9,6.7-16.2,13.1c-2.3,4.9-3.1,10.4-2.2,15.7c2.4,14.6,15.9,23.6,31,20.7
			c4.3-0.9,10.6-3.7,12-5.4c0.4-0.5-0.4-2.1-2.4-4.3l-3-3.5l-3.5,1.7c-12,5.9-24-0.7-24.1-13.2c0-5.2,0.7-7.3,3.7-10.7
			c4.4-5.1,13-6.3,20.4-2.7l3.5,1.7l3-3.5c1.7-1.9,2.9-3.7,2.7-4c-0.7-1.2-6.9-4.4-10.4-5.3C344-0.1,339-0.2,334.3,0.8z"/>
		<path class="st0" d="M1.5,45c-0.5,1.3-0.9,2.6-1.1,4L0,51h28c15.4,0,28.1-0.2,28.1-0.6c0-1.7-2.6-7.3-3.4-7.3s-0.7,0.5,0.2,2.6
			c0.5,1,0.8,2.1,1.1,3.2c0,0.4-11.5,0.7-25.8,0.7C4,49.5,2.3,49.5,2.3,48.3c0.2-1.1,0.5-2.2,1-3.2c0.9-1.7,0.9-1.9,0-1.9
			C2.7,43,1.9,43.9,1.5,45z"/>
	</g>
</g>
</svg>
